<?xml version="1.0" encoding="UTF-8"?>
<svg width="48px" height="48px" viewBox="0 0 48 48" version="1.1" xmlns="http://www.w3.org/2000/svg" xmlns:xlink="http://www.w3.org/1999/xlink">
    <title>FEN</title>
    <defs>
        <rect id="path-1" x="0" y="0" width="48" height="48"></rect>
        <linearGradient x1="0%" y1="50%" x2="100%" y2="50%" id="linearGradient-3">
            <stop stop-color="#A8B2DE" offset="0%"></stop>
            <stop stop-color="#7D84C2" offset="100%"></stop>
        </linearGradient>
    </defs>
    <g id="FEN" stroke="none" stroke-width="1" fill="none" fill-rule="evenodd">
        <g id="FEN_small">
            <mask id="mask-2" fill="white">
                <use xlink:href="#path-1"></use>
            </mask>
            <g id="矩形"></g>
            <path d="M4.87333333,4.98 C4.83333333,4.94 4.83333333,4.88 4.87333333,4.83333333 C4.91333333,4.79333333 4.97333333,4.79333333 5.02,4.83333333 C12.0866667,11.6 18.2066667,17.5666667 23.0666667,22.3466667 L23.0666667,23.72 C18.54,19.1066667 12.5533333,12.9666667 4.86666667,4.98 L4.86666667,4.98 L4.87333333,4.98 Z M4.36,19.2533333 L3.87333333,20.46 L3.26,20.2066667 L3.74666667,19 C4.00666667,18.3533333 4.37333333,17.9533333 4.84666667,17.7933333 L4.84666667,17.1666667 L10.3733333,17.1666667 C13,17.1666667 14.5533333,19.26 14.5533333,22.76 C14.5533333,26.26 12.9133333,28.0133333 10.3733333,28.0133333 L10.0533333,28.0133333 C9.49333333,28.0133333 9.04666667,28.46 9.02666667,29.0133333 C8.81333333,29.0066667 8.63333333,28.92 8.47333333,28.7733333 C7.98,28.28 7.87333333,27.16 7.87333333,26.7666667 L7.87333333,25.7 L7.21333333,25.7 L7.21333333,26.7666667 C7.21333333,26.8333333 7.21333333,28.4466667 8.00666667,29.24 C8.8,30.0333333 8.63333333,29.6666667 9.02666667,29.6866667 L9.02666667,30.4266667 L8.88666667,30.4266667 C8.25333333,30.4266667 7.74666667,30.2333333 7.34666667,29.8133333 C6.34666667,28.7866667 6.39333333,26.8 6.39333333,26.7666667 L6.39333333,25.7 L5.73333333,25.7 L5.73333333,26.7533333 C5.73333333,26.8466667 5.68,29.04 6.87333333,30.2733333 C7.39333333,30.8133333 8.08,31.0866667 8.89333333,31.0866667 L9.03333333,31.0866667 L9.03333333,31.8333333 L8.7,31.8333333 C7.71333333,31.8333333 6.88,31.5 6.24666667,30.8466667 C4.8,29.36 4.84666667,26.76 4.85333333,26.6466667 L4.85333333,18.54 C4.69333333,18.6533333 4.52666667,18.86 4.36666667,19.2466667 L4.36666667,19.2466667 L4.36,19.2533333 Z M10.4466667,27.3533333 C12.5733333,27.3133333 13.8933333,25.56 13.8933333,22.7666667 C13.8933333,19.9733333 12.64,17.8866667 10.4466667,17.8466667 L10.4466667,27.3533333 L10.4466667,27.3533333 L10.4466667,27.3533333 Z M8.72,23.24 L9.38,23.24 L9.38,17.8333333 L8.72,17.8333333 L8.72,23.24 Z M5.50666667,23.24 L8.04666667,23.24 L8.04666667,17.8333333 L5.50666667,17.8333333 L5.50666667,23.24 Z M24.9933333,23.72 C29.52,19.1066667 35.5066667,12.9666667 43.1933333,4.98 C43.2333333,4.94 43.2333333,4.88 43.1933333,4.83333333 C43.1533333,4.79333333 43.0933333,4.79333333 43.0466667,4.83333333 C35.98,11.6 29.86,17.5666667 25,22.3466667 L25,23.72 L24.9933333,23.72 Z M44.8066667,20.2066667 L44.1933333,20.46 L43.7066667,19.2533333 C43.5466667,18.8733333 43.38,18.6533333 43.22,18.5466667 L43.22,26.6533333 C43.22,26.7666667 43.2666667,29.3733333 41.8266667,30.8533333 C41.1933333,31.5066667 40.36,31.84 39.3733333,31.84 L39.04,31.84 L39.04,31.0933333 L39.18,31.0933333 C39.9933333,31.0933333 40.6733333,30.82 41.2,30.28 C42.3933333,29.0466667 42.34,26.8533333 42.34,26.76 L42.34,25.7066667 L41.68,25.7066667 L41.68,26.7733333 C41.68,26.8 41.7266667,28.7933333 40.7266667,29.82 C40.3266667,30.2333333 39.82,30.4333333 39.1866667,30.4333333 L39.0466667,30.4333333 L39.0466667,29.6933333 C39.44,29.6866667 39.7866667,29.5333333 40.0666667,29.2466667 C40.86,28.4533333 40.86,26.84 40.86,26.7733333 L40.86,25.7066667 L40.2,25.7066667 L40.2,26.7733333 C40.2,27.1666667 40.1,28.2866667 39.6,28.78 C39.44,28.94 39.2666667,29.0133333 39.0466667,29.02 C39.0266667,28.4666667 38.5733333,28.02 38.02,28.02 L37.7,28.02 C35.16,28.02 33.52,25.9533333 33.52,22.7666667 C33.52,19.58 35.08,17.1733333 37.7,17.1733333 L43.2266667,17.1733333 L43.2266667,17.8 C43.7,17.96 44.0733333,18.3666667 44.3266667,19.0066667 L44.8133333,20.2133333 L44.8133333,20.2133333 L44.8066667,20.2066667 Z M37.6066667,17.8333333 C35.42,17.8733333 34.16,19.66 34.16,22.7533333 C34.16,25.8466667 35.4733333,27.3 37.6066667,27.34 L37.6066667,17.8333333 Z M39.3466667,17.8333333 L38.6866667,17.8333333 L38.6866667,23.24 L39.3466667,23.24 L39.3466667,17.8333333 Z M42.5466667,17.8333333 L40.0066667,17.8333333 L40.0066667,23.24 L42.5466667,23.24 L42.5466667,17.8333333 Z M4.47333333,42.82 L5.22666667,43.5733333 L8.58666667,40.2133333 L7.83333333,39.46 L4.47333333,42.82 Z M43.46,39.6933333 L43.46,39.6933333 C43.46,37.62 41.78,35.9466667 39.7133333,35.9466667 C37.6466667,35.9466667 38.1,36.2266667 37.4733333,36.6933333 L35.3266667,34.5466667 C34.4933333,33.7133333 30.8266667,30.0066667 24.98,24.24 L24.98,25.66 C30.7533333,31.5133333 33.72,34.4466667 34.58,35.2933333 L36.7266667,37.44 C36.24,38.0866667 35.98,38.86 35.98,39.68 C35.98,40.5 36.0333333,40.42 36.14,40.7733333 L40.26,36.6533333 C40.8733333,36.7666667 41.4466667,37.0533333 41.9,37.5 C42.48,38.08 42.8066667,38.8533333 42.8066667,39.6733333 C42.8066667,40.4933333 42.58,41.02 42.1733333,41.5533333 L39.24,38.62 L38.68,39.1866667 L42.9533333,43.46 L43.5133333,42.8933333 L42.6466667,42.0266667 C43.1666667,41.3733333 43.46,40.5533333 43.46,39.68 L43.46,39.6933333 Z M12.7266667,34.5466667 L10.7666667,36.5066667 C9.50666667,35.5933333 7.73333333,35.7066667 6.59333333,36.8333333 L6.38,37.0466667 L10.9466667,41.6133333 L11.16,41.4 C12.28,40.28 12.4,38.5266667 11.5133333,37.2666667 L13.4733333,35.2933333 C14.3333333,34.4333333 17.3,31.5133333 23.0733333,25.66 L23.0733333,24.24 C17.2266667,30.0133333 13.56,33.7266667 12.7266667,34.5466667 L12.7266667,34.5466667 L12.7266667,34.5466667 Z M27.2266667,4.8 L24.3666667,4.8 L24.3666667,4.10666667 L24.98,4.10666667 L24.98,3.48 C25.3466667,3.44 25.7066667,3.33333333 26.0266667,3.14666667 C26.3466667,2.96 26.24,2.84666667 26.1466667,2.68666667 C26.0533333,2.52666667 25.8466667,2.47333333 25.6866667,2.56666667 C25.46,2.7 25.2,2.78 24.9466667,2.80666667 C24.88,2.34 24.64,1.94 24.3,1.64666667 L24.3,0 L22.94,0 L22.94,1.20666667 L20.42,1.20666667 L20.42,2.4 L22.94,2.4 L22.94,3.14 C22.94,3.27333333 23.0266667,3.37333333 23.1466667,3.41333333 C23.4533333,3.50666667 23.68,3.78666667 23.68,4.12 L23.68,4.81333333 L20.82,4.81333333 C21.38,5.86666667 22.4333333,6.60666667 23.68,6.72 C23.7066667,18.9666667 23.72,33.3933333 23.9066667,45.2733333 C23.9266667,46.1666667 23.9533333,47.0733333 23.98,47.9733333 C23.98,47.9933333 24,48.0133333 24.02,48.0133333 L24.02,48.0133333 C24.04,48.0133333 24.06,47.9933333 24.06,47.9733333 C24.0866667,47.08 24.1133333,46.1733333 24.1333333,45.2733333 C24.32,33.4 24.3266667,18.9733333 24.36,6.72 C25.6133333,6.6 26.6666667,5.86 27.2266667,4.80666667 L27.2266667,4.8 Z" id="形状" fill="url(#linearGradient-3)" mask="url(#mask-2)"></path>
        </g>
    </g>
</svg>