<?xml version="1.0" encoding="UTF-8"?>
<svg width="48px" height="48px" viewBox="0 0 48 48" version="1.1" xmlns="http://www.w3.org/2000/svg" xmlns:xlink="http://www.w3.org/1999/xlink">
    <title>HOC</title>
    <defs>
        <rect id="path-1" x="0" y="0" width="48" height="48"></rect>
        <linearGradient x1="0%" y1="50%" x2="100%" y2="50%" id="linearGradient-3">
            <stop stop-color="#A8B2DE" offset="0%"></stop>
            <stop stop-color="#7D84C2" offset="100%"></stop>
        </linearGradient>
    </defs>
    <g id="HOC" stroke="none" stroke-width="1" fill="none" fill-rule="evenodd">
        <g id="HOC_small">
            <mask id="mask-2" fill="white">
                <use xlink:href="#path-1"></use>
            </mask>
            <g id="矩形"></g>
            <path d="M14.3733333,10.7266667 L19.1533333,15.5 L18.18,16.4733333 L18.9333333,17.2266667 L20.6666667,15.4933333 L14.38,9.20666667 L12.6466667,10.94 L13.4,11.6933333 L14.3733333,10.7266667 L14.3733333,10.7266667 Z M9.73333333,29.7266667 L9.84666667,29.0666667 C8.99333333,28.9266667 8.16,28.68 7.36666667,28.3466667 L7.10666667,28.96 C7.94666667,29.3133333 8.83333333,29.5733333 9.73333333,29.7266667 L9.73333333,29.7266667 Z M0.993333333,22.94 C1.36666667,23.7733333 1.83333333,24.5666667 2.39333333,25.2933333 L2.92,24.8866667 C2.39333333,24.2 1.94666667,23.4533333 1.6,22.6666667 L0.993333333,22.94 Z M0.666666667,18.66 L0,18.6866667 C0.04,19.6 0.18,20.5133333 0.433333333,21.3933333 L1.07333333,21.2133333 C0.84,20.38 0.7,19.52 0.666666667,18.66 Z M11.3933333,29.2133333 L11.3733333,29.88 C12.2866667,29.9 13.2066667,29.82 14.1,29.6333333 L13.96,28.98 C13.12,29.1533333 12.2533333,29.2333333 11.3933333,29.2133333 Z M1.26666667,14.5866667 L0.633333333,14.3666667 C0.333333333,15.2266667 0.133333333,16.1266667 0.0466666667,17.04 L0.713333333,17.1066667 C0.793333333,16.2466667 0.98,15.4 1.26666667,14.5866667 Z M6.3,8 L5.82666667,7.52666667 L3.94,9.41333333 L4.41333333,9.88666667 L6.3,8 L6.3,8 Z M3.32,11.02 L2.81333333,10.5866667 C2.21333333,11.28 1.7,12.0466667 1.28,12.86 L1.87333333,13.1666667 C2.26666667,12.3933333 2.75333333,11.6733333 3.32,11.02 Z M5.98666667,27.64 C5.25333333,27.1933333 4.56666667,26.66 3.94666667,26.0533333 L3.48,26.5266667 C4.13333333,27.1733333 4.86,27.74 5.64,28.2066667 L5.98666667,27.64 Z M11.2266667,19.1933333 C11.2266667,18.8933333 10.9866667,18.6533333 10.6866667,18.6533333 C10.3866667,18.6533333 10.1466667,18.8933333 10.1466667,19.1933333 C10.1466667,19.4933333 10.3866667,19.7333333 10.6866667,19.7333333 C10.9866667,19.7333333 11.2266667,19.4933333 11.2266667,19.1933333 Z M24,7.68 C24.9933333,7.68 25.8,6.87333333 25.8,5.88 C25.8,4.88666667 24.9933333,4.08 24,4.08 C23.0066667,4.08 22.2,4.88666667 22.2,5.88 C22.2,6.87333333 23.0066667,7.68 24,7.68 Z M12.02,33.26 L12.8133333,34.0533333 L32.58,14.64 L31.3466667,13.4066667 C30.52,14.2333333 29.16,16.0333333 28.0866667,17.0866667 C27.7066667,17.46 25.5666667,19.6066667 22.9733333,22.22 L5.17333333,4.42 L4.42,5.17333333 L22.2266667,22.9733333 C17.6266667,27.6133333 12.02,33.26 12.02,33.26 Z M41.0466667,3.71333333 L31.82,12.94 L33.0533333,14.1733333 C34.94,12.28 41.8866667,5.33333333 41.8866667,5.33333333 C45.5866667,1.75333333 41.9733333,-1.17333333 39.46,0.466666667 C37.4866667,1.75333333 39.3066667,3.57333333 40.5,2.50666667 C41.18,1.9 42.2333333,2.64 41.0466667,3.71333333 L41.0466667,3.71333333 Z M38.2666667,18.2733333 L38.1533333,18.9333333 C39.0066667,19.0733333 39.84,19.32 40.6333333,19.6533333 L40.8933333,19.04 C40.0533333,18.6866667 39.1666667,18.4266667 38.2666667,18.2733333 Z M47.0066667,25.06 C46.6333333,24.2266667 46.1666667,23.4333333 45.6066667,22.7066667 L45.08,23.1133333 C45.6066667,23.8 46.0466667,24.5466667 46.4,25.3333333 L47.0066667,25.06 Z M47.3333333,29.34 L48,29.3133333 C47.96,28.4 47.82,27.4866667 47.5666667,26.6066667 L46.9266667,26.7866667 C47.16,27.62 47.3,28.48 47.3333333,29.34 Z M36.6066667,18.7866667 L36.6266667,18.12 C35.7133333,18.1 34.7933333,18.18 33.9,18.3666667 L34.04,19.02 C34.88,18.8466667 35.7466667,18.7666667 36.6066667,18.7866667 Z M46.7333333,33.4133333 L47.3666667,33.6333333 C47.6666667,32.7733333 47.8666667,31.8733333 47.9533333,30.96 L47.2866667,30.8933333 C47.2066667,31.7533333 47.02,32.6 46.7333333,33.4133333 Z M41.7,40 L42.1733333,40.4733333 L44.06,38.5866667 L43.5866667,38.1133333 L41.7,40 Z M44.68,36.98 L45.1866667,37.4133333 C45.7866667,36.72 46.3,35.9533333 46.72,35.14 L46.1266667,34.8333333 C45.7333333,35.6066667 45.2466667,36.3266667 44.68,36.98 Z M42.0133333,20.36 C42.7466667,20.8066667 43.4333333,21.34 44.0533333,21.9466667 L44.52,21.4733333 C43.8666667,20.8266667 43.14,20.26 42.36,19.7933333 L42.0133333,20.36 Z M33.6266667,37.2733333 L28.8466667,32.5 L29.82,31.5266667 L29.0666667,30.7666667 L27.3333333,32.5 L33.62,38.7866667 L35.3533333,37.0533333 L34.6,36.2933333 L33.6266667,37.2733333 Z M36.7733333,28.8066667 C36.7733333,29.1066667 37.0133333,29.3466667 37.3133333,29.3466667 C37.6133333,29.3466667 37.8533333,29.1066667 37.8533333,28.8066667 C37.8533333,28.5066667 37.6133333,28.2666667 37.3133333,28.2666667 C37.0133333,28.2666667 36.7733333,28.5066667 36.7733333,28.8066667 Z M24,40.32 C23.0066667,40.32 22.2,41.1266667 22.2,42.12 C22.2,43.1133333 23.0066667,43.92 24,43.92 C24.9933333,43.92 25.8,43.1133333 25.8,42.12 C25.8,41.1266667 24.9933333,40.32 24,40.32 Z M35.98,14.74 L35.1866667,13.9466667 L15.42,33.36 L16.6533333,34.5933333 C17.48,33.7666667 18.84,31.9666667 19.9133333,30.9133333 C20.2933333,30.54 22.4333333,28.3933333 25.0266667,25.78 L42.8333333,43.58 L43.5866667,42.8266667 L25.78,25.0266667 C30.3733333,20.3866667 35.98,14.74 35.98,14.74 L35.98,14.74 Z M6.94666667,44.2866667 L16.1733333,35.06 L14.94,33.8266667 C13.0533333,35.72 6.11333333,42.6666667 6.11333333,42.6666667 C2.41333333,46.2466667 6.02666667,49.1733333 8.54,47.5333333 C10.5133333,46.2466667 8.69333333,44.4266667 7.5,45.4933333 C6.82,46.1 5.76666667,45.36 6.94666667,44.2866667 Z M20.7266667,22.4266667 L18.3133333,24.84 C14.6466667,28.5066667 8.70666667,28.5066667 5.04,24.84 C1.37333333,21.1733333 1.37333333,15.2333333 5.04,11.5666667 L7.45333333,9.15333333 L8.20666667,9.90666667 L5.79333333,12.32 C2.54666667,15.5666667 2.54666667,20.8333333 5.79333333,24.0866667 C9.04,27.34 14.3066667,27.3333333 17.56,24.0866667 L19.9733333,21.6733333 L20.7266667,22.4266667 Z M27.2733333,25.5733333 L29.6866667,23.16 C33.3533333,19.4933333 39.2933333,19.4933333 42.96,23.16 C46.6266667,26.8266667 46.6266667,32.7666667 42.96,36.4333333 L40.5466667,38.8466667 L39.7933333,38.0933333 L42.2066667,35.68 C45.4533333,32.4333333 45.4533333,27.1666667 42.2066667,23.9133333 C38.96,20.6666667 33.6933333,20.6666667 30.44,23.9133333 L28.0266667,26.3266667 L27.2733333,25.5733333 Z" id="形状" fill="url(#linearGradient-3)" mask="url(#mask-2)"></path>
        </g>
    </g>
</svg>