<?xml version="1.0" encoding="UTF-8"?>
<svg width="48px" height="48px" viewBox="0 0 48 48" version="1.1" xmlns="http://www.w3.org/2000/svg" xmlns:xlink="http://www.w3.org/1999/xlink">
    <title>CSP</title>
    <defs>
        <rect id="path-1" x="0" y="0" width="48" height="48"></rect>
        <linearGradient x1="0%" y1="50%" x2="100%" y2="50%" id="linearGradient-3">
            <stop stop-color="#A8B2DE" offset="0%"></stop>
            <stop stop-color="#7D84C2" offset="100%"></stop>
        </linearGradient>
    </defs>
    <g id="CSP" stroke="none" stroke-width="1" fill="none" fill-rule="evenodd">
        <g id="CSP_small">
            <mask id="mask-2" fill="white">
                <use xlink:href="#path-1"></use>
            </mask>
            <g id="矩形"></g>
            <path d="M42.8533333,4.78666667 L24.5333333,20.4133333 L24.5333333,12.3333333 L25.2333333,10.5866667 C26.32,7.88 26.6466667,4.22666667 26.04,1.71333333 C25.9333333,1.27333333 25.6266667,0.586666667 25.42,0.26 C25.2866667,0.0466666667 25.0333333,-0.0466666667 24.7866667,0.0266666667 C24.28,0.173333333 22.2666667,2.16666667 22.2666667,4 L22.2666667,6.42 C22.2666667,7.94666667 22.5133333,9.45333333 22.9933333,10.9 L23.4666667,12.32 L23.4666667,21.34 C23.22,21.5533333 22.98,21.7733333 22.74,21.9866667 L20.7466667,19.9933333 L22.8,17.94 L22.8,17 L20.28,19.52 L18.2133333,17.4533333 L22.8,12.8666667 L22.8,12.4266667 L22.6733333,12.0533333 L17.7333333,16.9933333 L15.6666667,14.9266667 L21.7866667,8.80666667 C21.74,8.52666667 21.7066667,8.25333333 21.68,7.97333333 L15.2,14.44 L13.1333333,12.3733333 L21.6,3.9 C21.62,3.13333333 21.9266667,2.34666667 22.34,1.64666667 L12.38,11.62 L5.18,4.42 L4.42,5.17333333 L11.62,12.3733333 L0,24 L0.753333333,24.7533333 L12.38,13.1333333 L14.4466667,15.2 L5.64666667,24 L6.12,24.4733333 L14.92,15.6733333 L16.9866667,17.74 L10.72,24 L11.1933333,24.4733333 L17.4533333,18.2133333 L19.52,20.28 L15.8,24 L16.2733333,24.4733333 L19.9933333,20.7533333 L21.9466667,22.7066667 C20.2466667,24.2666667 18.6,25.8866667 17.02,27.5666667 C14.6733333,30.06 12.46,32.68 10.3933333,35.42 L4.78,42.8666667 C4.69333333,42.9866667 4.72,43.12 4.80666667,43.2 C4.88666667,43.28 5.02666667,43.3133333 5.14,43.2266667 L12.5866667,37.6 C15.3266667,35.5333333 17.9466667,33.32 20.44,30.9733333 C21.4733333,30 22.4866667,29.0066667 23.4733333,27.9866667 L23.4733333,35.68 L23,37.1 C22.52,38.5466667 22.2733333,40.0533333 22.2733333,41.58 L22.2733333,44 C22.2733333,45.8266667 24.2866667,47.8266667 24.7933333,47.9733333 C24.8466667,47.9866667 24.9066667,48 24.96,48 C25.1466667,48 25.3266667,47.9066667 25.4266667,47.74 C25.6333333,47.4133333 25.94,46.72 26.0466667,46.2866667 C26.6533333,43.7733333 26.32,40.12 25.24,37.4133333 L24.5333333,35.6666667 L24.5333333,26.8666667 C24.7866667,26.5933333 25.04,26.32 25.2933333,26.0466667 L27.2466667,28 L25.2,30.0533333 L25.2,31 L27.72,28.48 L29.7866667,30.5466667 L25.2,35.1333333 L25.2,35.54 L25.3533333,35.92 L30.26,31.0133333 L32.3266667,33.08 L26.4333333,38.9733333 C26.5,39.2266667 26.56,39.48 26.6133333,39.74 L32.8,33.5533333 L34.8666667,35.62 L27,43.48 C27,44.0266667 26.9733333,44.56 26.9133333,45.0733333 L35.6133333,36.3733333 L42.8133333,43.5733333 L43.5666667,42.82 L36.3666667,35.62 L48,24 L47.2466667,23.2466667 L35.62,34.8666667 L33.5533333,32.8 L42.3533333,24 L41.88,23.5266667 L33.08,32.3266667 L31.0133333,30.26 L37.2733333,24 L36.8,23.5266667 L30.54,29.7866667 L28.4733333,27.72 L32.1933333,24 L31.72,23.5266667 L28,27.2466667 L26.0066667,25.2533333 C26.5133333,24.6866667 27.02,24.1133333 27.5133333,23.5333333 L43.2133333,5.14666667 C43.3133333,5.02666667 43.2866667,4.88666667 43.2,4.8 C43.1133333,4.71333333 42.9733333,4.68 42.8533333,4.78666667 Z M27.7866667,20.74 C27.82,20.9733333 27.8533333,21.3866667 27.7533333,21.8666667 C27.6533333,22.3466667 27.42,22.8933333 26.94,23.3866667 L23.6266667,26.78 C22.9933333,27.4133333 21.9866667,27.44 21.28,26.7333333 C20.5733333,26.0266667 20.6,25.02 21.2333333,24.3866667 L24.6266667,21.0733333 C25.12,20.5933333 25.6666667,20.36 26.1466667,20.26 C26.6266667,20.16 27.04,20.1933333 27.2733333,20.2266667 C27.4066667,20.2466667 27.5266667,20.3133333 27.62,20.4 C27.7,20.48 27.7666667,20.6 27.7866667,20.74 L27.7866667,20.74 Z" id="形状" fill="url(#linearGradient-3)" mask="url(#mask-2)"></path>
        </g>
    </g>
</svg>