<?xml version="1.0" encoding="UTF-8"?>
<svg width="48px" height="48px" viewBox="0 0 48 48" version="1.1" xmlns="http://www.w3.org/2000/svg" xmlns:xlink="http://www.w3.org/1999/xlink">
    <title>SAL</title>
    <defs>
        <rect id="path-1" x="0" y="0" width="48" height="48"></rect>
        <linearGradient x1="0%" y1="50%" x2="100%" y2="50%" id="linearGradient-3">
            <stop stop-color="#A8B2DE" offset="0%"></stop>
            <stop stop-color="#7D84C2" offset="100%"></stop>
        </linearGradient>
    </defs>
    <g id="SAL" stroke="none" stroke-width="1" fill="none" fill-rule="evenodd">
        <g id="SAL_small">
            <mask id="mask-2" fill="white">
                <use xlink:href="#path-1"></use>
            </mask>
            <g id="矩形"></g>
            <path d="M6.74,8.82 L6.26666667,8.34666667 C9.18,5.44 10.9666667,2.77333333 12.7533333,0 L13.5466667,0 C11.74,2.81333333 9.84,5.71333333 6.74,8.82 L6.74,8.82 Z M10.1133333,12.1866667 C13.3733333,8.97333333 15.5333333,5.69333333 17.6333333,2.50666667 C18.18,1.68 18.7333333,0.84 19.3066667,0 L18.5,0 C18.0133333,0.72 17.5466667,1.43333333 17.08,2.14 C14.9066667,5.44 12.8333333,8.58 9.64666667,11.72 L10.1133333,12.1866667 Z M16.38,18.46 L16.8533333,18.9333333 C20.26,15.6666667 22.9266667,11.7733333 25.5133333,7.98666667 C27.3533333,5.29333333 29.2333333,2.54 31.3933333,0 L30.5266667,0 C28.5,2.44 26.7133333,5.05333333 24.96,7.60666667 C22.3933333,11.3666667 19.7466667,15.2333333 16.38,18.46 L16.38,18.46 Z M13.0133333,15.0866667 L13.4866667,15.56 C16.82,12.32 19.2266667,8.73333333 21.5733333,5.25333333 C22.74,3.51333333 23.9333333,1.74666667 25.2466667,0.00666666667 L24.4133333,0.00666666667 C23.2066667,1.62666667 22.1066667,3.26666667 21.02,4.88666667 C18.6933333,8.33333333 16.3,11.8933333 13.0133333,15.0866667 Z M21.2466667,33.44 C21.3466667,33.4666667 21.4466667,33.5066667 21.5333333,33.56 C21.64,33.6266667 21.7333333,33.7 21.82,33.78 C23.8066667,31.0333333 25.9,28.3866667 28.24,26.1666667 L27.7666667,25.6933333 C25.3866667,27.9666667 23.26,30.6533333 21.2466667,33.44 Z M31.24,6.14666667 C30.8066667,6.74 26.4733333,12.52 26.4733333,12.52 C26.1933333,12.98 26.34,13.5866667 26.8066667,13.8666667 C27.0066667,13.9866667 27.2733333,13.9266667 27.3933333,13.72 L28.84,11.3266667 L31.22,13.7066667 C29.2666667,15.86 25.54,20.1933333 24.5133333,23.04 L24.5133333,23.04 C30.4466667,18.3133333 35.64,11.4666667 40.24,5.41333333 L40.24,5.41333333 C38.2933333,6.66 35.1133333,9.53333333 31.9466667,12.9266667 L29.4133333,10.3933333 L31.1,7.60666667 C31.3,7.28 31.7266667,7.17333333 32.0533333,7.37333333 L32.7933333,6.13333333 C32.2666667,5.81333333 31.66,5.57333333 31.24,6.14666667 L31.24,6.14666667 Z M26.4666667,14.44 C26.36,14.3733333 26.2666667,14.3 26.18,14.22 C24.1933333,16.9666667 22.1,19.6133333 19.76,21.8333333 L20.2333333,22.3066667 C22.6266667,20.04 24.7466667,17.3533333 26.76,14.5666667 C26.6533333,14.5333333 26.5533333,14.4933333 26.4666667,14.44 L26.4666667,14.44 Z M37.82,0 L36.8866667,0 C35.34,1.61333333 33.9,3.4 32.52,5.26 C32.7466667,5.34 32.9533333,5.45333333 33.1266667,5.56 C34.6066667,3.58 36.1533333,1.68 37.82,0 Z M37.8866667,35.8133333 C34.6266667,39.0266667 32.4666667,42.3066667 30.3666667,45.4933333 C29.82,46.32 29.2666667,47.16 28.6933333,48 L29.5,48 C29.9866667,47.28 30.4533333,46.5666667 30.92,45.86 C33.0933333,42.56 35.1666667,39.42 38.3533333,36.28 L37.8866667,35.8133333 Z M31.62,29.54 L31.1466667,29.0666667 C27.74,32.3333333 25.0733333,36.2266667 22.4866667,40.0133333 C20.6466667,42.7066667 18.7666667,45.46 16.6066667,48 L17.4733333,48 C19.5,45.56 21.2866667,42.9466667 23.04,40.3933333 C25.6066667,36.6333333 28.2533333,32.7666667 31.62,29.54 L31.62,29.54 Z M34.4533333,48 L35.2466667,48 C37.0333333,45.2266667 38.82,42.56 41.7266667,39.6533333 L41.2533333,39.18 C38.16,42.2866667 36.26,45.1866667 34.4533333,48 Z M34.9866667,32.9133333 L34.5133333,32.44 C31.18,35.68 28.7733333,39.2666667 26.4266667,42.7466667 C25.26,44.4866667 24.0666667,46.2533333 22.7533333,47.9933333 L23.5866667,47.9933333 C24.7933333,46.3733333 25.8933333,44.7333333 26.98,43.1133333 C29.3066667,39.6666667 31.7,36.1066667 34.9866667,32.9133333 L34.9866667,32.9133333 Z M6.91333333,41.94 C6.57333333,42.3933333 6.23333333,42.8333333 5.9,43.2733333 C5.77333333,43.2533333 5.65333333,43.2133333 5.54,43.14 L5.09333333,42.84 L5.39333333,42.4 C10.3866667,35.1066667 15.0066667,29.5333333 19.4333333,25.4866667 L18.7066667,24.76 C17.1133333,26.3533333 12.0733333,31.1333333 6.61333333,33.82 L6.34,33.9533333 L6.18,33.6933333 C2.26666667,27.1933333 0.833333333,19.8533333 0.313333333,14.8466667 C-0.246666667,9.42666667 0.12,5.47333333 0.12,5.43333333 L0.186666667,4.72666667 L20.2266667,24.7666667 C20.94,24.14 21.6466667,23.5533333 22.3466667,23.0066667 L22.7133333,22.72 L23.5533333,23.5333333 L23.1866667,23.82 C17,28.6466667 11.64,35.7133333 6.91333333,41.94 L6.91333333,41.94 Z M14.48,20.5333333 L0.706666667,6.76 C0.64,8.32666667 0.606666667,11.24 0.973333333,14.7933333 C1.46,19.5 2.77333333,26.28 6.22,32.44 C9.66666667,26.2866667 13.2666667,21.9266667 14.48,20.5333333 Z M18.2333333,24.2866667 L14.9466667,21 C13.7066667,22.4333333 10.08,26.8466667 6.64,33.0533333 C11.9,30.3866667 16.7,25.82 18.2333333,24.2866667 Z M10.18,48 L11.1133333,48 C12.66,46.3866667 14.1,44.6 15.48,42.74 C15.2533333,42.66 15.0466667,42.5466667 14.8733333,42.44 C13.3933333,44.42 11.8466667,46.32 10.18,48 Z M16.76,41.8533333 C17.1933333,41.26 21.5266667,35.48 21.5266667,35.48 C21.8066667,35.02 21.66,34.4133333 21.1933333,34.1333333 C20.9933333,34.0133333 20.7266667,34.0733333 20.6066667,34.28 L19.1533333,36.6666667 L16.7733333,34.2866667 C18.7266667,32.1333333 22.4533333,27.8 23.48,24.9533333 L23.48,24.9533333 C17.5533333,29.6866667 12.36,36.5333333 7.76,42.5866667 L7.76,42.5866667 C9.70666667,41.34 12.8866667,38.4666667 16.0533333,35.0733333 L18.5866667,37.6066667 L16.9,40.4 C16.7,40.7266667 16.2733333,40.8333333 15.9466667,40.6333333 L15.2066667,41.8666667 C15.7333333,42.1866667 16.34,42.4266667 16.76,41.8533333 L16.76,41.8533333 Z M47.88,42.56 L47.8133333,43.2666667 L27.7733333,23.2266667 C27.06,23.8533333 26.3533333,24.44 25.6533333,24.9866667 L25.2866667,25.2733333 L24.4466667,24.46 L24.8133333,24.1733333 C31,19.3533333 36.36,12.2866667 41.0866667,6.05333333 C41.4266667,5.6 41.7666667,5.16 42.1,4.72 C42.2266667,4.74 42.3466667,4.78 42.46,4.85333333 L42.9066667,5.15333333 L42.6066667,5.59333333 C37.6133333,12.8866667 32.9933333,18.46 28.5666667,22.5066667 L29.2933333,23.2333333 C30.8866667,21.64 35.9266667,16.86 41.3866667,14.1733333 L41.66,14.04 L41.82,14.3 C45.7266667,20.8 47.1666667,28.1333333 47.6866667,33.1466667 C48.2466667,38.5733333 47.88,42.5266667 47.88,42.56 L47.88,42.56 Z M33.52,27.4666667 L47.2866667,41.2333333 C47.3533333,39.6666667 47.3866667,36.7533333 47.02,33.2 C46.5333333,28.4933333 45.22,21.7133333 41.7733333,15.5533333 C38.3333333,21.7133333 34.7333333,26.0733333 33.52,27.4666667 L33.52,27.4666667 Z M29.7666667,23.7133333 L33.0533333,27 C34.2933333,25.5666667 37.92,21.1533333 41.36,14.9466667 C36.1,17.6133333 31.2933333,22.18 29.7666667,23.7133333 Z" id="形状" fill="url(#linearGradient-3)" mask="url(#mask-2)"></path>
        </g>
    </g>
</svg>