<?xml version="1.0" encoding="UTF-8"?>
<svg width="48px" height="48px" viewBox="0 0 48 48" version="1.1" xmlns="http://www.w3.org/2000/svg" xmlns:xlink="http://www.w3.org/1999/xlink">
    <title>SHO</title>
    <defs>
        <rect id="path-1" x="0" y="0" width="48" height="48"></rect>
        <linearGradient x1="0%" y1="50%" x2="100%" y2="50%" id="linearGradient-3">
            <stop stop-color="#A8B2DE" offset="0%"></stop>
            <stop stop-color="#7D84C2" offset="100%"></stop>
        </linearGradient>
    </defs>
    <g id="SHO" stroke="none" stroke-width="1" fill="none" fill-rule="evenodd">
        <g id="SHO_small">
            <mask id="mask-2" fill="white">
                <use xlink:href="#path-1"></use>
            </mask>
            <g id="矩形"></g>
            <path d="M32.5333333,14.7133333 L42.82,4.42 L43.5733333,5.17333333 L33.2866667,15.4666667 L32.5333333,14.7133333 L32.5333333,14.7133333 Z M23.4666667,3.17333333 L23.4666667,8.37333333 L24.5333333,8.37333333 L24.5333333,3.17333333 C29.5,3.3 34.1733333,5.15333333 37.86,8.44666667 L38.3333333,7.97333333 C34.6533333,4.68 29.8333333,2.63333333 24.5333333,2.50666667 L24.5333333,0 L23.4666667,0 L23.4666667,2.50666667 C18.1733333,2.63333333 13.3466667,4.68 9.66666667,7.97333333 L10.14,8.44666667 C13.8266667,5.14666667 18.5,3.29333333 23.4666667,3.17333333 Z M8.44666667,37.86 C5.14666667,34.1733333 3.29333333,29.5 3.17333333,24.5333333 L8.37333333,24.5333333 L8.37333333,23.4666667 L3.17333333,23.4666667 C3.3,18.5 5.15333333,13.8266667 8.44666667,10.14 L7.97333333,9.66666667 C4.68,13.3466667 2.63333333,18.1666667 2.50666667,23.4666667 L0,23.4666667 L0,24.5333333 L2.50666667,24.5333333 C2.63333333,29.8266667 4.68,34.6533333 7.97333333,38.3333333 L8.44666667,37.86 Z M32.5333333,33.2866667 L42.8266667,43.58 L43.58,42.8266667 L33.2866667,32.5333333 L32.5333333,33.2866667 L32.5333333,33.2866667 Z M34.9666667,33.2666667 L35.44,33.74 C40.22,28.14 40.22,19.8533333 35.44,14.2533333 L34.9666667,14.7266667 C39.4866667,20.0666667 39.4866667,27.9333333 34.9666667,33.2666667 Z M14.7333333,13.0333333 C20.0733333,8.51333333 27.9333333,8.51333333 33.2733333,13.0333333 L33.7466667,12.56 C28.1466667,7.78 19.86,7.78 14.26,12.56 L14.7333333,13.0333333 Z M33.2666667,34.9666667 C27.9266667,39.4866667 20.0666667,39.4866667 14.7266667,34.9666667 L14.2533333,35.44 C19.8533333,40.22 28.14,40.22 33.74,35.44 L33.2666667,34.9666667 Z M13.0333333,14.7333333 L12.56,14.26 C7.78,19.86 7.78,28.1466667 12.56,33.7466667 L13.0333333,33.2733333 C8.51333333,27.9333333 8.51333333,20.0666667 13.0333333,14.7333333 Z M45.4933333,23.4666667 C45.3666667,18.1733333 43.32,13.3466667 40.0266667,9.66666667 L39.5533333,10.14 C42.8466667,13.8266667 44.7,18.5 44.8266667,23.4666667 L39.6266667,23.4666667 L39.6266667,24.5333333 L44.8266667,24.5333333 C44.7,29.5 42.8466667,34.1733333 39.5533333,37.86 L40.0266667,38.3333333 C43.32,34.6533333 45.3666667,29.8333333 45.4933333,24.5333333 L48,24.5333333 L48,23.4666667 L45.4933333,23.4666667 Z M24.5333333,44.8266667 L24.5333333,39.6266667 L23.4666667,39.6266667 L23.4666667,44.8266667 C18.5,44.7 13.8266667,42.8466667 10.14,39.5533333 L9.66666667,40.0266667 C13.3466667,43.32 18.1666667,45.3666667 23.4666667,45.4933333 L23.4666667,48 L24.5333333,48 L24.5333333,45.4933333 C29.8266667,45.3666667 34.6533333,43.32 38.3333333,40.0266667 L37.86,39.5533333 C34.1733333,42.8533333 29.5,44.7066667 24.5333333,44.8266667 Z M14.7133333,15.4666667 L15.4666667,14.7133333 L5.18,4.42 L4.42,5.18 L14.7133333,15.4666667 Z M14.7133333,32.5333333 L4.42,42.82 L5.17333333,43.5733333 L15.4666667,33.2866667 L14.7133333,32.5333333 L14.7133333,32.5333333 Z M32.2533333,32.2533333 L15.7466667,32.2533333 L15.7466667,15.7466667 L32.2533333,15.7466667 L32.2533333,32.2533333 Z M26.5333333,24 C26.5333333,22.6 25.4,21.4666667 24,21.4666667 C22.6,21.4666667 21.4666667,22.6 21.4666667,24 C21.4666667,25.4 22.6,26.5333333 24,26.5333333 C25.4,26.5333333 26.5333333,25.4 26.5333333,24 Z" id="形状" fill="url(#linearGradient-3)" mask="url(#mask-2)"></path>
        </g>
    </g>
</svg>