<?xml version="1.0" encoding="UTF-8"?>
<svg width="48px" height="48px" viewBox="0 0 48 48" version="1.1" xmlns="http://www.w3.org/2000/svg" xmlns:xlink="http://www.w3.org/1999/xlink">
    <title>SWM</title>
    <defs>
        <rect id="path-1" x="0" y="0" width="48" height="48"></rect>
        <linearGradient x1="0%" y1="50%" x2="100%" y2="50%" id="linearGradient-3">
            <stop stop-color="#A8B2DE" offset="0%"></stop>
            <stop stop-color="#7D84C2" offset="100%"></stop>
        </linearGradient>
    </defs>
    <g id="SWM" stroke="none" stroke-width="1" fill="none" fill-rule="evenodd">
        <g id="SWM_small">
            <mask id="mask-2" fill="white">
                <use xlink:href="#path-1"></use>
            </mask>
            <g id="矩形"></g>
            <path d="M48,24 L47.0933333,23.7733333 C46.2666667,23.56 45.8533333,23.0266667 45.5733333,21.7933333 L45.5533333,21.6933333 C45.1666667,20.1333333 44.08,19.0866667 42.4133333,18.6666667 C41.1866667,18.36 40.2333333,17.4 39.92,16.16 L39.82,15.7533333 C39.48,14.38 38.42,13.32 37.0466667,12.9933333 C36.7266667,12.9133333 36.4266667,12.78 36.16,12.5933333 L43.58,5.17333333 L42.8266667,4.42 L24,23.2466667 L5.18,4.42 L4.42,5.18 L11.6133333,12.3733333 L0,24 L0.906666667,24.2266667 C1.73333333,24.44 2.14666667,24.9733333 2.42666667,26.2066667 L2.44666667,26.3066667 C2.83333333,27.8666667 3.92,28.9133333 5.58666667,29.3333333 C6.81333333,29.64 7.76666667,30.6 8.08,31.84 L8.18,32.2466667 C8.52,33.62 9.58,34.68 10.9533333,35.0066667 C11.2733333,35.0866667 11.5733333,35.22 11.84,35.4066667 L4.42,42.82 L5.17333333,43.5733333 L24,24.7533333 L42.82,43.5733333 L43.5733333,42.82 L36.38,35.6266667 L48,24 L48,24 Z M12.6,34.6466667 C12.1866667,34.3266667 11.7066667,34.1 11.2,33.9733333 C10.22,33.7333333 9.46,32.98 9.21333333,31.9933333 L9.11333333,31.5866667 C8.71333333,29.9666667 7.46,28.7066667 5.84666667,28.3 C4.57333333,27.98 3.78,27.2266667 3.48666667,26.06 L3.46666667,25.9733333 C3.26,25.0466667 2.90666667,24.0733333 1.98,23.52 L12.38,13.12 L14.7466667,15.4866667 L5.88,24.3533333 L5.31333333,23.7866667 L4.84,24.26 L6.44666667,25.8666667 L6.92,25.3933333 L6.35333333,24.8266667 L15.22,15.96 L17.58,18.32 L8.71333333,27.1866667 L8.14666667,26.62 L7.67333333,27.0933333 L9.28,28.7 L9.75333333,28.2266667 L9.18666667,27.66 L18.0533333,18.7933333 L20.4133333,21.1533333 L11.5466667,30.02 L10.98,29.4533333 L10.5066667,29.9266667 L12.1133333,31.5333333 L12.5866667,31.06 L12.02,30.4933333 L20.8866667,21.6266667 L23.2533333,23.9933333 L12.6,34.6466667 Z M33.26,32.5 L42.1266667,23.6333333 L42.6933333,24.2 L43.1666667,23.7266667 L41.56,22.12 L41.0866667,22.5933333 L41.6533333,23.16 L32.7866667,32.0266667 L30.4266667,29.6666667 L39.2933333,20.8 L39.86,21.3666667 L40.3333333,20.8933333 L38.7266667,19.2866667 L38.2533333,19.76 L38.82,20.3266667 L29.9533333,29.1933333 L27.5933333,26.8333333 L36.46,17.9666667 L37.0266667,18.5333333 L37.5,18.06 L35.8933333,16.4533333 L35.42,16.9266667 L35.9866667,17.4933333 L27.12,26.36 L24.7533333,24 L35.4,13.3533333 C35.8133333,13.6733333 36.2933333,13.9 36.8,14.0266667 C37.78,14.2666667 38.54,15.02 38.7866667,16.0066667 L38.8866667,16.4133333 C39.2866667,18.0333333 40.54,19.2933333 42.1533333,19.7 C43.4266667,20.02 44.22,20.7733333 44.5133333,21.94 L44.5333333,22.0266667 C44.74,22.9533333 45.0933333,23.9266667 46.02,24.48 L35.62,34.88 L33.26,32.5 L33.26,32.5 Z M27.2666667,9.92 C27.0533333,10.1333333 27.1133333,10.2866667 27.1733333,10.3866667 L27.1933333,10.42 C27.6666667,11.2066667 26.58,12.4333333 25.3266667,13.1866667 C25.26,13.2266667 25.1866667,13.2666667 25.12,13.3066667 L25.12,10.1866667 C25.6733333,10.0066667 26.2066667,9.93333333 26.6133333,10.0266667 C26.6533333,9.85333333 26.7466667,9.69333333 26.8933333,9.54 C27.04,9.38666667 27.2066667,9.3 27.38,9.26 C27.2133333,8.55333333 27.56,7.44666667 28.1133333,6.52 C28.4133333,6.02 28.7866667,5.54666667 29.18,5.19333333 L29.18,9.55333333 C28.68,9.92666667 28.1666667,10.0866667 27.7733333,9.84666667 L27.74,9.82666667 C27.64,9.76666667 27.48,9.70666667 27.2666667,9.92 L27.2666667,9.92 Z M17.42,6.80666667 C17.1466667,5.08 17.7,3.66666667 19.36,2.00666667 C21.02,0.346666667 22.4333333,-0.213333333 24.16,0.0666666667 C27.3133333,0.573333333 30.02,3.38 31.08,4.82 L31.08,4.82 C31.6,5.42666667 31.2266667,6.84 30.5466667,7.97333333 C30.3466667,8.31333333 30.1066667,8.64 29.8533333,8.92666667 L29.8533333,4.71333333 C28.16,4.29333333 25.92,5.05333333 24.1666667,6.80666667 C22.4133333,8.56 21.6533333,10.8 22.0733333,12.4933333 C22.3866667,11.88 23.1,11.2266667 23.8866667,10.76 C24.0733333,10.6466667 24.2666667,10.5466667 24.4666667,10.4533333 L24.4666667,13.6266667 C23.5533333,14 22.64,14.1133333 22.18,13.7266667 C20.7333333,12.6666667 17.92,9.96 17.42,6.80666667 L17.42,6.80666667 Z M30.5866667,41.1933333 C30.86,42.92 30.3066667,44.3333333 28.6466667,45.9933333 C26.9866667,47.6533333 25.5733333,48.2133333 23.8466667,47.9333333 C20.6933333,47.4266667 17.9866667,44.62 16.9266667,43.18 L16.9266667,43.18 C16.4066667,42.5733333 16.78,41.16 17.46,40.0266667 C17.66,39.6866667 17.9,39.36 18.1533333,39.0733333 L18.1533333,43.2866667 C19.8466667,43.7066667 22.0866667,42.9466667 23.84,41.1933333 C25.5933333,39.44 26.3533333,37.2 25.9333333,35.5066667 C25.62,36.12 24.9066667,36.7733333 24.12,37.24 C23.9333333,37.3533333 23.74,37.4533333 23.54,37.5466667 L23.54,34.3733333 C24.4533333,34 25.3666667,33.8866667 25.8266667,34.2733333 C27.2733333,35.3333333 30.08,38.04 30.5866667,41.1933333 L30.5866667,41.1933333 Z M20.7333333,38.08 C20.9466667,37.8666667 20.8866667,37.7133333 20.8266667,37.6133333 L20.8066667,37.58 C20.3333333,36.7933333 21.42,35.5666667 22.6733333,34.8133333 C22.74,34.7733333 22.8133333,34.7333333 22.88,34.6933333 L22.88,37.8133333 C22.3266667,37.9933333 21.7933333,38.0666667 21.3866667,37.9733333 C21.3466667,38.1466667 21.2533333,38.3066667 21.1066667,38.46 C20.96,38.6066667 20.7933333,38.7 20.62,38.74 C20.7866667,39.4466667 20.44,40.5533333 19.8866667,41.48 C19.5866667,41.98 19.2133333,42.4533333 18.82,42.8066667 L18.82,38.4466667 C19.32,38.0733333 19.8333333,37.9133333 20.2266667,38.1533333 L20.26,38.1733333 C20.3666667,38.2333333 20.52,38.2933333 20.7333333,38.08 L20.7333333,38.08 Z" id="形状" fill="url(#linearGradient-3)" mask="url(#mask-2)"></path>
        </g>
    </g>
</svg>