<?xml version="1.0" encoding="UTF-8"?>
<svg width="48px" height="48px" viewBox="0 0 48 48" version="1.1" xmlns="http://www.w3.org/2000/svg" xmlns:xlink="http://www.w3.org/1999/xlink">
    <title>TTE</title>
    <defs>
        <rect id="path-1" x="0" y="0" width="48" height="48"></rect>
        <linearGradient x1="0%" y1="50%" x2="100%" y2="50%" id="linearGradient-3">
            <stop stop-color="#A8B2DE" offset="0%"></stop>
            <stop stop-color="#7D84C2" offset="100%"></stop>
        </linearGradient>
    </defs>
    <g id="TTE" stroke="none" stroke-width="1" fill="none" fill-rule="evenodd">
        <g id="TTE_small">
            <mask id="mask-2" fill="white">
                <use xlink:href="#path-1"></use>
            </mask>
            <g id="矩形"></g>
            <g id="编组" mask="url(#mask-2)" fill="url(#linearGradient-3)">
                <path d="M19.2666667,0 L32.1866667,12.92 L34.34,10.76 L37.2133333,13.6333333 L35.06,15.7933333 L48,28.7333333 L42.2,34.54 C41.7666667,34.4333333 41.32,34.3733333 40.8666667,34.36 L46.4933333,28.7333333 L34.3066667,16.5466667 L25.6733333,25.2 L32.5066667,32.0533333 L32.0333333,32.5266667 L25.2,25.6733333 L16.5666667,34.3266667 L28.7333333,46.4933333 L34.3466667,40.88 C34.36,41.3266667 34.42,41.7733333 34.5266667,42.2066667 L28.7333333,48 L15.82,35.0866667 L13.6666667,37.2466667 L10.7933333,34.3733333 L12.9466667,32.2133333 L0,19.2666667 L5.8,13.46 C6.23333333,13.5666667 6.68,13.6266667 7.13333333,13.64 L1.50666667,19.2666667 L13.7,31.4533333 L22.3333333,22.8 L15.4933333,15.9466667 L15.9666667,15.4733333 L22.8,22.3266667 L31.4333333,13.6733333 L19.2666667,1.50666667 L13.6533333,7.12 C13.64,6.67333333 13.58,6.22666667 13.4733333,5.79333333 L19.2666667,0 Z M41.6266667,35.1066667 C42.7466667,35.2933333 43.82,35.82 44.68,36.68 L45.76,37.76 C47.9733333,39.9666667 47.9733333,43.5533333 45.76,45.76 C43.5533333,47.9666667 39.9666667,47.9666667 37.7533333,45.76 L36.6733333,44.68 C35.8133333,43.82 35.2866667,42.7466667 35.1,41.6333333 L41.6266667,35.1066667 Z M11.1266667,36.1266667 L11.88,36.88 L5.17333333,43.58 L4.42,42.8266667 L11.1266667,36.1266667 Z M43.54,39.4133333 C42.5933333,39.4133333 41.8266667,40.18 41.8266667,41.1266667 C41.8266667,42.0733333 42.5933333,42.84 43.54,42.84 C44.4866667,42.84 45.26,42.0666667 45.2533333,41.1266667 C45.2533333,40.18 44.4866667,39.4133333 43.54,39.4133333 Z M34.22,32.3333333 L37.0333333,35.1466667 C37.4133333,35.5333333 37.9933333,35.66 38.4933333,35.46 C39.0333333,35.2333333 39.6066667,35.1 40.18,35.0466667 L35.04,40.185 L35.0734259,39.8977778 C35.1271296,39.5140741 35.2178704,39.1362963 35.3515741,38.7644444 L35.46,38.4866667 C35.66,37.98 35.5333333,37.4066667 35.1466667,37.02 L32.34,34.2133333 C32.0466667,33.92 32.0466667,33.4533333 32.34,33.16 L33.1666667,32.3333333 C33.46,32.04 33.9266667,32.04 34.22,32.3333333 Z M13.42,32.68 L11.7333333,34.3666667 L13.66,36.3 L15.3466667,34.6066667 L13.42,32.68 Z M15.8733333,30.2133333 L14.1666667,31.9266667 L16.0933333,33.8533333 L17.8,32.14 L15.8733333,30.2133333 Z M18.1866667,27.9 L16.3466667,29.74 L18.2733333,31.6666667 L20.1133333,29.8266667 L18.1866667,27.9 Z M20.4933333,25.5866667 L18.6533333,27.4266667 L20.58,29.3533333 L22.42,27.5133333 L20.4933333,25.5866667 Z M22.8,23.2733333 L20.9666667,25.1133333 L22.8933333,27.04 L24.7266667,25.2 L22.8,23.2733333 Z M25.1066667,20.96 L23.2733333,22.8 L25.2,24.7266667 L27.0333333,22.8866667 L25.1066667,20.96 Z M27.42,18.6466667 L25.58,20.4866667 L27.5066667,22.4133333 L29.3466667,20.5733333 L27.42,18.6466667 Z M29.7266667,16.3333333 L27.8866667,18.1733333 L29.8133333,20.1 L31.6533333,18.26 L29.7266667,16.3333333 Z M31.9066667,14.1466667 L30.2,15.86 L32.1266667,17.7866667 L33.8333333,16.0733333 L31.9066667,14.1466667 Z M12.96,7.81333333 C12.9133333,8.39333333 12.7733333,8.96 12.54,9.51333333 C12.34,10.02 12.4666667,10.5933333 12.8533333,10.98 L15.66,13.7866667 C15.9533333,14.08 15.9533333,14.5466667 15.66,14.84 L14.8333333,15.6666667 C14.54,15.96 14.0733333,15.96 13.78,15.6666667 L10.9666667,12.8533333 C10.5866667,12.4666667 10.0066667,12.34 9.50666667,12.54 C8.96666667,12.7666667 8.39333333,12.9 7.82,12.9533333 L12.96,7.81333333 Z M34.34,11.7066667 L32.6533333,13.3933333 L34.58,15.32 L36.2666667,13.6333333 L34.34,11.7066667 Z M10.2466667,2.24 L11.3266667,3.32 C12.1866667,4.18 12.7133333,5.25333333 12.9,6.36666667 L6.37333333,12.8933333 C5.25333333,12.7066667 4.18,12.18 3.32,11.32 L2.24,10.24 C0.0266666667,8.03333333 0.0333333333,4.44666667 2.24,2.24 C4.44666667,0.0333333333 8.03333333,0.0333333333 10.2466667,2.24 Z M42.8266667,4.42666667 L43.58,5.18 L36.8733333,11.88 L36.12,11.1266667 L42.8266667,4.42666667 Z M4.46,5.16 C3.51333333,5.16 2.74666667,5.93333333 2.74666667,6.87333333 C2.74666667,7.82 3.51333333,8.58666667 4.46,8.58666667 C5.40666667,8.58666667 6.17333333,7.82 6.17333333,6.87333333 C6.17333333,5.92666667 5.40666667,5.16 4.46,5.16 Z" id="形状结合"></path>
            </g>
        </g>
    </g>
</svg>