<?xml version="1.0" encoding="UTF-8"?>
<svg width="48px" height="48px" viewBox="0 0 48 48" version="1.1" xmlns="http://www.w3.org/2000/svg" xmlns:xlink="http://www.w3.org/1999/xlink">
    <title>SWA</title>
    <defs>
        <rect id="path-1" x="0" y="0" width="48" height="48"></rect>
        <linearGradient x1="0%" y1="50%" x2="100%" y2="50%" id="linearGradient-3">
            <stop stop-color="#A8B2DE" offset="0%"></stop>
            <stop stop-color="#7D84C2" offset="100%"></stop>
        </linearGradient>
    </defs>
    <g id="SWA" stroke="none" stroke-width="1" fill="none" fill-rule="evenodd">
        <g id="SWA_small">
            <mask id="mask-2" fill="white">
                <use xlink:href="#path-1"></use>
            </mask>
            <g id="矩形"></g>
            <path d="M28.1466667,13.1733333 L28.3866667,13.5733333 C28.3866667,13.5733333 28.4733333,13.72 28.5733333,13.98 L28.5,13.9666667 C27.64,13.7933333 26.88,13.3066667 26.3533333,12.6 L26.1733333,12.36 C25.6333333,11.6266667 24.82,11.1933333 24,11.1933333 C23.18,11.1933333 22.3666667,11.6333333 21.8266667,12.36 L21.6466667,12.6 C21.12,13.3066667 20.36,13.7933333 19.5,13.9666667 L19.4266667,13.98 C19.5266667,13.72 19.6133333,13.5733333 19.6133333,13.5666667 L19.8533333,13.1733333 C20.3533333,12.9733333 20.7866667,12.6466667 21.1133333,12.2066667 L21.2933333,11.9666667 C21.96,11.0666667 22.9666667,10.5333333 24,10.5333333 C25.0333333,10.5333333 26.04,11.0733333 26.7066667,11.9666667 L26.8866667,12.2066667 C27.2066667,12.64 27.6466667,12.9733333 28.1466667,13.1733333 Z M11.96,26.7066667 L12.2,26.8866667 C12.64,27.2133333 12.9666667,27.6466667 13.1666667,28.1466667 L13.5666667,28.3866667 C13.5666667,28.3866667 13.7133333,28.4733333 13.9733333,28.5733333 L13.96,28.5 C13.7866667,27.64 13.3,26.88 12.5933333,26.3533333 L12.3533333,26.1733333 C11.62,25.6333333 11.1866667,24.82 11.1866667,24 C11.1866667,23.18 11.6266667,22.3666667 12.3533333,21.8266667 L12.5933333,21.6466667 C13.3,21.12 13.7866667,20.36 13.96,19.5 L13.9733333,19.4266667 C13.7133333,19.5266667 13.5666667,19.6133333 13.5666667,19.6133333 L13.1666667,19.86 C12.9666667,20.36 12.64,20.7933333 12.2,21.12 L11.96,21.3 C11.06,21.9666667 10.5266667,22.9733333 10.5266667,24.0066667 C10.5266667,25.04 11.06,26.04 11.96,26.7066667 L11.96,26.7066667 Z M21.1133333,35.8 L21.2933333,36.04 C21.96,36.94 22.9666667,37.4733333 24,37.4733333 C25.0333333,37.4733333 26.04,36.9333333 26.7066667,36.04 L26.8866667,35.8 C27.2133333,35.36 27.6466667,35.0266667 28.1466667,34.8333333 L28.3933333,34.4333333 C28.3933333,34.4333333 28.48,34.2866667 28.58,34.0266667 L28.5066667,34.04 C27.6466667,34.2133333 26.8866667,34.7 26.36,35.4066667 L26.18,35.6466667 C25.64,36.38 24.8266667,36.8133333 24.0066667,36.8133333 C23.1866667,36.8133333 22.3733333,36.3733333 21.8333333,35.6466667 L21.6533333,35.4066667 C21.1266667,34.7 20.3666667,34.2133333 19.5066667,34.04 L19.4333333,34.0266667 C19.5333333,34.2866667 19.62,34.4266667 19.62,34.4333333 L19.8666667,34.8333333 C20.3533333,35.0266667 20.7933333,35.36 21.1133333,35.8 L21.1133333,35.8 Z M36.04,21.3 L35.8,21.12 C35.36,20.7933333 35.0266667,20.36 34.8333333,19.86 L34.44,19.62 C34.44,19.62 34.2866667,19.5333333 34.0333333,19.4333333 L34.0466667,19.5066667 C34.22,20.3666667 34.7066667,21.1266667 35.4133333,21.6533333 L35.6533333,21.8333333 C36.3866667,22.3733333 36.82,23.1866667 36.82,24.0066667 C36.82,24.8266667 36.38,25.64 35.6533333,26.18 L35.4133333,26.36 C34.7066667,26.8866667 34.22,27.6466667 34.0466667,28.5066667 L34.0333333,28.58 C34.2933333,28.48 34.44,28.3933333 34.44,28.3933333 L34.84,28.1466667 C35.04,27.6533333 35.3666667,27.2133333 35.8066667,26.8866667 L36.0466667,26.7066667 C36.9466667,26.04 37.48,25.0333333 37.48,24 C37.48,22.9733333 36.9333333,21.9666667 36.04,21.3 L36.04,21.3 Z M21.2,30.54 C21.5866667,30.62 21.9333333,30.84 22.1666667,31.16 L22.2733333,31.3066667 C22.7,31.88 23.34,32.22 24,32.22 C24.66,32.22 25.3,31.88 25.7266667,31.3066667 L25.8333333,31.16 C26.0733333,30.84 26.4133333,30.62 26.8,30.54 L28.3066667,30.2333333 C28.3333333,30.2266667 28.3666667,30.22 28.3933333,30.2133333 C28.32,30.0266667 28.2333333,29.84 28.14,29.66 L28.1133333,29.6 L26.6666667,29.8933333 C26.12,30.0066667 25.6333333,30.3133333 25.3,30.76 L25.1933333,30.9066667 C24.8933333,31.3133333 24.4466667,31.5533333 23.9933333,31.5533333 C23.54,31.5533333 23.0933333,31.3133333 22.7933333,30.9066667 L22.6866667,30.76 C22.3533333,30.3066667 21.8666667,30 21.32,29.8933333 L19.8733333,29.6 L19.8466667,29.66 C19.7533333,29.8466667 19.6666667,30.0333333 19.5933333,30.2133333 C19.62,30.22 19.6533333,30.2266667 19.68,30.2333333 L21.2,30.54 L21.2,30.54 Z M30.5333333,26.8066667 C30.6133333,26.42 30.8333333,26.0733333 31.1533333,25.84 L31.3,25.7333333 C31.8733333,25.3066667 32.2133333,24.6666667 32.2133333,24.0066667 C32.2133333,23.3466667 31.8733333,22.7066667 31.3,22.28 L31.1533333,22.1733333 C30.8333333,21.9333333 30.6133333,21.5933333 30.5333333,21.2066667 L30.2266667,19.7 C30.22,19.6733333 30.2133333,19.64 30.2066667,19.6133333 C30.02,19.6866667 29.8333333,19.7733333 29.6533333,19.86 L29.5933333,19.8933333 L29.8866667,21.34 C30,21.8866667 30.3066667,22.3733333 30.7533333,22.7066667 L30.9,22.8133333 C31.3066667,23.1133333 31.5466667,23.56 31.5466667,24.0133333 C31.5466667,24.4666667 31.3066667,24.9133333 30.9,25.2133333 L30.7533333,25.32 C30.3,25.6533333 29.9933333,26.14 29.8866667,26.6866667 L29.5933333,28.1266667 L29.6533333,28.16 C29.84,28.2533333 30.02,28.34 30.2066667,28.4133333 C30.2133333,28.3866667 30.22,28.36 30.2266667,28.3266667 L30.5333333,26.8066667 Z M18.4,28.12 L18.1066667,26.68 C17.9933333,26.1333333 17.6866667,25.6466667 17.24,25.3133333 L17.0933333,25.2066667 C16.6866667,24.9066667 16.4466667,24.46 16.4466667,24.0066667 C16.4466667,23.5533333 16.6866667,23.1066667 17.0933333,22.8066667 L17.24,22.7 C17.6933333,22.3666667 18,21.88 18.1066667,21.3333333 L18.4,19.8866667 L18.34,19.8533333 C18.1533333,19.76 17.9733333,19.6733333 17.7866667,19.6 C17.78,19.6266667 17.7733333,19.66 17.7666667,19.6866667 L17.4666667,21.2 C17.3866667,21.5866667 17.1666667,21.9333333 16.8466667,22.1666667 L16.7,22.2733333 C16.1266667,22.7 15.7866667,23.34 15.7866667,24 C15.7866667,24.66 16.1266667,25.3 16.7,25.7266667 L16.8466667,25.8333333 C17.1666667,26.0733333 17.3866667,26.4133333 17.4666667,26.8 L17.7733333,28.3066667 C17.78,28.3333333 17.7866667,28.36 17.7933333,28.3866667 C17.98,28.3133333 18.1666667,28.2266667 18.3466667,28.1333333 L18.4,28.12 L18.4,28.12 Z M26.8,17.4666667 C26.4133333,17.3866667 26.0666667,17.1666667 25.8333333,16.8466667 L25.7266667,16.7 C25.3,16.1266667 24.66,15.7866667 24,15.7866667 C23.34,15.7866667 22.7,16.1266667 22.2733333,16.7 L22.1666667,16.8466667 C21.9266667,17.1666667 21.5866667,17.3866667 21.2,17.4666667 L19.6933333,17.7733333 C19.6666667,17.78 19.64,17.7866667 19.6066667,17.7933333 C19.68,17.98 19.7666667,18.16 19.8533333,18.34 L19.8866667,18.4 L21.3266667,18.1066667 C21.8733333,17.9933333 22.36,17.6866667 22.6933333,17.24 L22.8,17.0933333 C23.1,16.6866667 23.5466667,16.4466667 24,16.4466667 C24.4533333,16.4466667 24.9,16.6866667 25.2,17.0933333 L25.3066667,17.24 C25.64,17.6933333 26.1266667,18 26.6733333,18.1066667 L28.1133333,18.4 L28.1466667,18.34 C28.24,18.1533333 28.3266667,17.9733333 28.4,17.7933333 C28.3733333,17.7866667 28.34,17.78 28.3133333,17.7733333 L26.8,17.4666667 L26.8,17.4666667 Z M45.5266667,19.34 L45.0866667,19.0133333 C43.9933333,18.2066667 43.2466667,17.0266667 42.98,15.7066667 L42.3066667,12.3666667 C42.2066667,12.4866667 42.1,12.6066667 41.9866667,12.72 C41.9133333,12.7933333 41.8333333,12.8666667 41.7533333,12.94 L42.34,15.8333333 C42.64,17.3133333 43.48,18.6333333 44.7,19.54 L45.14,19.8666667 C46.52,20.8933333 47.3466667,22.44 47.3533333,23.9933333 C47.3533333,25.5533333 46.5266667,27.1 45.14,28.1266667 L44.7,28.4533333 C43.48,29.36 42.64,30.6733333 42.34,32.16 L41.7533333,35.0533333 C41.8333333,35.1266667 41.9133333,35.2 41.9866667,35.2733333 C42.1,35.3866667 42.2066667,35.5066667 42.3066667,35.6266667 L42.98,32.2933333 C43.2466667,30.9733333 43.9933333,29.7933333 45.0866667,28.9866667 L45.5266667,28.66 C47.0733333,27.5133333 48,25.7666667 48,24 C48,22.2333333 47.0733333,20.4933333 45.5266667,19.34 Z M12.7333333,6.01333333 C12.8066667,6.08666667 12.88,6.16666667 12.9533333,6.24666667 L15.8466667,5.66 C17.3266667,5.36 18.6466667,4.52 19.5533333,3.3 L19.88,2.86 C20.9,1.48666667 22.44,0.66 24,0.66 C25.56,0.66 27.1066667,1.48666667 28.1333333,2.87333333 L28.46,3.31333333 C29.3666667,4.53333333 30.68,5.37333333 32.1666667,5.67333333 L35.06,6.26 C35.1333333,6.18 35.2066667,6.1 35.28,6.02666667 C35.3933333,5.91333333 35.5133333,5.80666667 35.6333333,5.70666667 L32.3,5.03333333 C30.98,4.76666667 29.8,4.02 28.9933333,2.92666667 L28.6666667,2.48666667 C27.5066667,0.926666667 25.7666667,0 24,0 C22.2333333,0 20.4933333,0.926666667 19.34,2.47333333 L19.0133333,2.91333333 C18.2066667,4.00666667 17.0266667,4.75333333 15.7066667,5.02 L12.3666667,5.69333333 C12.5,5.79333333 12.62,5.9 12.7333333,6.01333333 Z M5.69333333,35.6266667 C5.79333333,35.5066667 5.9,35.3866667 6.01333333,35.2666667 C6.08666667,35.1933333 6.16666667,35.12 6.24666667,35.0466667 L5.66666667,32.16 C5.36666667,30.68 4.52666667,29.36 3.30666667,28.4533333 L2.86666667,28.1266667 C1.48666667,27.1 0.66,25.56 0.66,24 C0.66,22.44 1.48666667,20.8933333 2.87333333,19.8666667 L3.31333333,19.54 C4.53333333,18.6333333 5.37333333,17.32 5.67333333,15.8333333 L6.26,12.94 C6.18,12.8666667 6.1,12.7933333 6.02666667,12.72 C5.91333333,12.6066667 5.80666667,12.4866667 5.70666667,12.3666667 L5.03333333,15.7 C4.76666667,17.02 4.02,18.2 2.92666667,19.0066667 L2.48666667,19.3333333 C0.926666667,20.4933333 0,22.2333333 0,24 C0,25.7666667 0.926666667,27.5066667 2.47333333,28.66 L2.91333333,28.9866667 C4.00666667,29.7933333 4.75333333,30.9733333 5.02,32.2933333 L5.69333333,35.6266667 Z M35.2666667,41.9866667 C35.1933333,41.9133333 35.12,41.8333333 35.0466667,41.7533333 L32.1533333,42.34 C30.6733333,42.64 29.3533333,43.48 28.4466667,44.7 L28.1333333,45.1333333 C27.1066667,46.5133333 25.56,47.34 24.0066667,47.3466667 C22.4466667,47.3466667 20.9,46.52 19.8733333,45.1333333 L19.5466667,44.6933333 C18.64,43.4733333 17.3266667,42.6333333 15.84,42.3333333 L12.9466667,41.7466667 C12.8733333,41.8266667 12.8,41.9066667 12.7266667,41.98 C12.6133333,42.0933333 12.4933333,42.2 12.3733333,42.3 L15.7066667,42.9733333 C17.0266667,43.24 18.2066667,43.9866667 19.0133333,45.08 L19.34,45.52 C20.4866667,47.0666667 22.2333333,47.9933333 24,47.9933333 C25.7666667,47.9933333 27.5066667,47.0666667 28.66,45.52 L28.9866667,45.08 C29.7933333,43.9866667 30.9733333,43.24 32.2933333,42.9733333 L35.6333333,42.3 C35.5,42.2066667 35.38,42.1 35.2666667,41.9866667 L35.2666667,41.9866667 Z M42.74,24 C42.74,22.6 42.0066667,21.2266667 40.7866667,20.32 L40.4466667,20.0666667 C39.6133333,19.4466667 39.04,18.5533333 38.84,17.54 L38.2933333,14.8466667 C38.14,14.9666667 38,15.0933333 37.86,15.2266667 C37.8133333,15.2733333 37.7733333,15.32 37.7266667,15.3733333 L38.1933333,17.6733333 C38.4333333,18.8466667 39.0933333,19.88 40.0533333,20.6 L40.3933333,20.8533333 C41.4533333,21.64 42.08,22.8133333 42.08,24.0066667 C42.08,25.2 41.4466667,26.3733333 40.3933333,27.16 L40.0533333,27.4133333 C39.0866667,28.1266667 38.4266667,29.1666667 38.1933333,30.34 L37.7266667,32.64 C37.7733333,32.6866667 37.8133333,32.74 37.86,32.7866667 C37.9933333,32.92 38.14,33.0466667 38.2933333,33.1666667 L38.84,30.4733333 C39.0466667,29.46 39.6133333,28.5666667 40.4466667,27.9466667 L40.7866667,27.6933333 C42.0066667,26.7733333 42.7333333,25.4 42.74,24 Z M27.9333333,7.56 L27.68,7.22 C26.7733333,5.99333333 25.4,5.26666667 24,5.26666667 C22.6,5.26666667 21.2266667,6 20.32,7.22 L20.0666667,7.56 C19.4466667,8.39333333 18.5533333,8.96666667 17.54,9.16666667 L14.8466667,9.71333333 C14.9666667,9.86666667 15.0933333,10.0066667 15.2266667,10.1466667 C15.2733333,10.1933333 15.32,10.2333333 15.3733333,10.28 L17.6733333,9.81333333 C18.8466667,9.58 19.88,8.91333333 20.6,7.95333333 L20.8533333,7.61333333 C21.64,6.55333333 22.82,5.92666667 24.0066667,5.92666667 C25.1933333,5.92666667 26.3733333,6.56 27.16,7.61333333 L27.4133333,7.95333333 C28.1266667,8.92 29.1666667,9.58 30.34,9.81333333 L32.64,10.28 C32.6866667,10.2333333 32.74,10.1933333 32.7866667,10.1466667 C32.92,10.0133333 33.0466667,9.86666667 33.1666667,9.71333333 L30.4733333,9.16666667 C29.4466667,8.96666667 28.5533333,8.39333333 27.9333333,7.56 Z M7.22,27.68 L7.56,27.9333333 C8.39333333,28.5533333 8.96666667,29.4466667 9.16666667,30.46 L9.71333333,33.1533333 C9.86666667,33.0333333 10.0066667,32.9066667 10.1466667,32.7733333 C10.1933333,32.7266667 10.2333333,32.68 10.28,32.6333333 L9.81333333,30.3333333 C9.57333333,29.16 8.91333333,28.1266667 7.95333333,27.4066667 L7.61333333,27.1533333 C6.55333333,26.3666667 5.92666667,25.1933333 5.92666667,24 C5.92666667,22.8066667 6.56,21.6333333 7.61333333,20.8466667 L7.95333333,20.5933333 C8.92,19.88 9.58,18.84 9.81333333,17.6666667 L10.28,15.3666667 C10.2333333,15.32 10.1933333,15.2666667 10.1466667,15.22 C10.0133333,15.0866667 9.86666667,14.96 9.71333333,14.84 L9.16666667,17.5333333 C8.96,18.5466667 8.39333333,19.44 7.56,20.06 L7.22,20.3133333 C6,21.2266667 5.26666667,22.6066667 5.26666667,24 C5.26666667,25.3933333 5.99333333,26.7733333 7.22,27.68 L7.22,27.68 Z M20.0666667,40.44 L20.32,40.78 C21.2266667,42 22.6066667,42.7333333 24,42.7333333 C25.3933333,42.7333333 26.7733333,42 27.68,40.78 L27.9333333,40.44 C28.5533333,39.6066667 29.4466667,39.0333333 30.46,38.8333333 L33.1533333,38.2866667 C33.0333333,38.1333333 32.9066667,37.9933333 32.7733333,37.8533333 C32.7266667,37.8066667 32.68,37.7666667 32.6333333,37.72 L30.3333333,38.1866667 C29.16,38.42 28.1266667,39.0866667 27.4066667,40.0466667 L27.1533333,40.3866667 C26.3666667,41.4466667 25.1866667,42.0733333 24,42.0733333 C22.8133333,42.0733333 21.6333333,41.44 20.8466667,40.3866667 L20.5933333,40.0466667 C19.88,39.08 18.84,38.42 17.6666667,38.1866667 L15.3666667,37.72 C15.32,37.7666667 15.2733333,37.8066667 15.2266667,37.8533333 C15.0933333,37.9866667 14.96,38.1333333 14.8466667,38.2866667 L17.54,38.8333333 C18.5533333,39.04 19.4466667,39.6066667 20.0666667,40.44 L20.0666667,40.44 Z M35.0466667,12.68 C35.34,12.74 35.6333333,12.8 35.92,12.8666667 C37.64,13.24 39.2666667,13.6 40.76,12.8266667 C41.0266667,12.6933333 41.28,12.5 41.52,12.2666667 C42.5666667,11.22 42.9266667,9.74666667 42.6,8.40666667 L41.92,8.48666667 C42.1733333,9.44 42.0066667,10.4866667 41.42,11.3266667 L41.42,11.3266667 C41.3,10.94 40.9933333,10.7 40.5933333,10.5333333 C40.1933333,10.3666667 39.72,10.28 39.2466667,10.1933333 C38.8733333,10.1266667 38.54,9.95333333 38.28,9.7 C38.0266667,9.44 37.8533333,9.10666667 37.7866667,8.73333333 C37.7,8.26666667 37.6133333,7.78 37.4466667,7.38666667 C37.28,6.99333333 37.04,6.68666667 36.6533333,6.56 C37.24,6.15333333 37.9266667,5.94666667 38.6133333,5.94666667 C39.3,5.94666667 39.2066667,5.98666667 39.4933333,6.06 L39.5733333,5.38 C39.26,5.30666667 38.9333333,5.26666667 38.6066667,5.26666667 C37.56,5.26666667 36.5133333,5.66666667 35.7133333,6.46666667 C35.16,7.02 34.7733333,7.67333333 34.5466667,8.37333333 C34.3,9.18666667 33.86,9.95333333 33.22,10.6 C32.8,11.02 32.3266667,11.3666667 31.8333333,11.64 L29.3866667,12.9733333 C31.5666667,11.98 33.4066667,12.3533333 35.0466667,12.68 L35.0466667,12.68 Z M35.78,13.52 C35.4933333,13.46 35.2066667,13.3933333 34.92,13.34 C33.1933333,12.9933333 31.4133333,12.6333333 29.2533333,13.8066667 L29.22,13.8266667 C29.3066667,14.0666667 29.4,14.3733333 29.4666667,14.74 C29.6466667,15.7266667 29.48,17.1933333 28.7333333,18.6533333 C28.7333333,18.6533333 28.8866667,18.76 29.0733333,18.94 C29.26,19.12 29.36,19.28 29.36,19.28 C30.4666667,18.7133333 31.5866667,18.48 32.4866667,18.48 C33.3866667,18.48 33.0333333,18.5 33.2733333,18.5466667 C34.2,18.7133333 34.7733333,19.0666667 34.7733333,19.0666667 L36.3533333,16.1666667 C36.62,15.6666667 36.9666667,15.2 37.3933333,14.78 C37.7133333,14.46 38.0666667,14.1866667 38.4466667,13.9666667 C37.5733333,13.9066667 36.6866667,13.7133333 35.78,13.52 L35.78,13.52 Z M12.68,12.9533333 C12.74,12.66 12.8,12.3666667 12.8666667,12.08 C13.24,10.36 13.6,8.73333333 12.8266667,7.24 C12.6933333,6.97333333 12.5,6.72 12.2666667,6.48 C11.22,5.43333333 9.74666667,5.07333333 8.40666667,5.4 L8.48666667,6.08 C9.44,5.82666667 10.4866667,5.99333333 11.3266667,6.58 L11.3266667,6.58 C10.94,6.7 10.7,7.00666667 10.5333333,7.40666667 C10.3666667,7.8 10.28,8.28 10.1933333,8.75333333 C10.1266667,9.12666667 9.95333333,9.46 9.7,9.72 C9.44,9.97333333 9.10666667,10.1466667 8.73333333,10.2133333 C8.26666667,10.3 7.78,10.3866667 7.38666667,10.5533333 C6.99333333,10.72 6.68666667,10.96 6.56,11.3466667 C6.15333333,10.76 5.94666667,10.0733333 5.94666667,9.38666667 C5.94666667,8.7 5.98666667,8.79333333 6.06,8.50666667 L5.38,8.42666667 C5.30666667,8.74 5.26666667,9.06666667 5.26666667,9.39333333 C5.26666667,10.44 5.66666667,11.4866667 6.46666667,12.2866667 C7.02,12.84 7.67333333,13.2266667 8.37333333,13.4533333 C9.18666667,13.7 9.95333333,14.14 10.6,14.78 C11.02,15.2 11.3666667,15.6733333 11.64,16.1666667 L12.9733333,18.6133333 C11.98,16.4333333 12.3533333,14.5933333 12.68,12.9533333 Z M13.52,12.22 C13.46,12.5066667 13.3933333,12.7933333 13.34,13.08 C12.9933333,14.8066667 12.6333333,16.5866667 13.8066667,18.7466667 L13.8266667,18.78 C14.0666667,18.6933333 14.3733333,18.6 14.74,18.5333333 C15.7266667,18.3533333 17.1933333,18.52 18.6533333,19.2666667 C18.6533333,19.2666667 18.76,19.1133333 18.94,18.9266667 C19.12,18.74 19.28,18.64 19.28,18.64 C18.7133333,17.5333333 18.48,16.4133333 18.48,15.5133333 C18.48,14.6133333 18.5,14.9666667 18.5466667,14.7266667 C18.7133333,13.8 19.0666667,13.2266667 19.0666667,13.2266667 L16.1666667,11.6466667 C15.6666667,11.38 15.2,11.0333333 14.78,10.6066667 C14.46,10.2866667 14.1866667,9.93333333 13.9666667,9.55333333 C13.9066667,10.4266667 13.72,11.3133333 13.52,12.22 L13.52,12.22 Z M12.9533333,35.32 C12.66,35.26 12.3666667,35.2 12.08,35.1333333 C10.36,34.76 8.73333333,34.4 7.24,35.1733333 C6.97333333,35.3066667 6.72,35.5 6.48,35.7333333 C5.43333333,36.78 5.07333333,38.2533333 5.4,39.5933333 L6.08,39.5133333 C5.82666667,38.56 5.99333333,37.5133333 6.58,36.6733333 L6.58,36.6733333 C6.7,37.06 7.00666667,37.3 7.40666667,37.4666667 C7.8,37.6333333 8.28,37.72 8.75333333,37.8066667 C9.12666667,37.8733333 9.46,38.0466667 9.72,38.3 C9.97333333,38.56 10.1466667,38.8933333 10.2133333,39.2666667 C10.3,39.7333333 10.3866667,40.22 10.5533333,40.6133333 C10.72,41.0066667 10.96,41.3133333 11.3466667,41.44 C10.76,41.8466667 10.0733333,42.0533333 9.38666667,42.0533333 C8.7,42.0533333 8.79333333,42.0133333 8.50666667,41.94 L8.42666667,42.62 C8.74,42.6933333 9.06666667,42.7333333 9.39333333,42.7333333 C10.44,42.7333333 11.4866667,42.3333333 12.2866667,41.5333333 C12.84,40.98 13.2266667,40.3266667 13.4533333,39.6266667 C13.7,38.8133333 14.14,38.0466667 14.78,37.4 C15.2,36.98 15.6733333,36.6333333 16.1666667,36.36 L18.6133333,35.0266667 C16.4333333,36.02 14.5933333,35.6466667 12.9533333,35.32 Z M12.22,34.48 C12.5066667,34.54 12.7933333,34.6066667 13.08,34.66 C14.8066667,35.0066667 16.5866667,35.3666667 18.7466667,34.1933333 L18.78,34.1733333 C18.6933333,33.9333333 18.6,33.6266667 18.5333333,33.26 C18.3533333,32.2733333 18.52,30.8066667 19.2666667,29.3466667 C19.2666667,29.3466667 19.1133333,29.24 18.9266667,29.06 C18.74,28.88 18.64,28.72 18.64,28.72 C17.5333333,29.2866667 16.4133333,29.52 15.5133333,29.52 C14.6133333,29.52 14.9666667,29.5 14.7266667,29.4533333 C13.8,29.2866667 13.2266667,28.9333333 13.2266667,28.9333333 L11.6466667,31.8333333 C11.38,32.3333333 11.0333333,32.8 10.6066667,33.22 C10.2866667,33.54 9.93333333,33.8133333 9.55333333,34.0333333 C10.4266667,34.0933333 11.3133333,34.2866667 12.22,34.48 L12.22,34.48 Z M35.32,35.0466667 C35.26,35.34 35.2,35.6333333 35.1333333,35.92 C34.76,37.64 34.4,39.2666667 35.1733333,40.76 C35.3066667,41.0266667 35.5,41.28 35.7333333,41.52 C36.78,42.5666667 38.2533333,42.9266667 39.5933333,42.6 L39.5133333,41.92 C38.56,42.1733333 37.5133333,42.0066667 36.6733333,41.42 L36.6733333,41.42 C37.06,41.3 37.3,40.9933333 37.4666667,40.5933333 C37.6333333,40.1933333 37.72,39.72 37.8066667,39.2466667 C37.8733333,38.8733333 38.0466667,38.54 38.3,38.28 C38.56,38.0266667 38.8933333,37.8533333 39.2666667,37.7866667 C39.7333333,37.7 40.22,37.6133333 40.6133333,37.4466667 C41.0066667,37.28 41.3133333,37.04 41.44,36.6533333 C41.8466667,37.24 42.0533333,37.9266667 42.0533333,38.6133333 C42.0533333,39.3 42.0133333,39.2066667 41.94,39.4933333 L42.62,39.5733333 C42.6933333,39.26 42.7333333,38.9333333 42.7333333,38.6066667 C42.7333333,37.56 42.3333333,36.5133333 41.5333333,35.7133333 C40.7333333,34.9133333 40.3266667,34.7733333 39.6266667,34.5466667 C38.8133333,34.3 38.0466667,33.86 37.4,33.22 C36.98,32.8 36.6333333,32.3266667 36.36,31.8333333 L35.0266667,29.3866667 C36.02,31.5666667 35.6466667,33.4066667 35.32,35.0466667 L35.32,35.0466667 Z M34.48,35.78 C34.54,35.4933333 34.6066667,35.2066667 34.66,34.92 C35.0066667,33.1933333 35.3666667,31.4133333 34.1933333,29.2533333 L34.1733333,29.22 C33.9333333,29.3066667 33.6266667,29.4 33.26,29.4666667 C32.2733333,29.6466667 30.8066667,29.48 29.3466667,28.7333333 C29.3466667,28.7333333 29.24,28.8866667 29.06,29.0733333 C28.88,29.26 28.72,29.36 28.72,29.36 C29.2866667,30.4666667 29.52,31.5866667 29.52,32.4866667 C29.52,33.3866667 29.5,33.0333333 29.4533333,33.2733333 C29.2866667,34.2 28.9333333,34.7733333 28.9333333,34.7733333 L31.8333333,36.3533333 C32.3333333,36.62 32.8,36.9666667 33.22,37.3933333 C33.54,37.7133333 33.8133333,38.0666667 34.0333333,38.4466667 C34.0933333,37.5733333 34.2866667,36.6866667 34.48,35.78 L34.48,35.78 Z" id="形状" fill="url(#linearGradient-3)" mask="url(#mask-2)"></path>
        </g>
    </g>
</svg>