<?xml version="1.0" encoding="UTF-8"?>
<svg width="48px" height="48px" viewBox="0 0 48 48" version="1.1" xmlns="http://www.w3.org/2000/svg" xmlns:xlink="http://www.w3.org/1999/xlink">
    <title>BK3</title>
    <defs>
        <rect id="path-1" x="0" y="0" width="48" height="48"></rect>
        <linearGradient x1="0%" y1="50%" x2="100%" y2="50%" id="linearGradient-3">
            <stop stop-color="#A8B2DE" offset="0%"></stop>
            <stop stop-color="#7D84C2" offset="100%"></stop>
        </linearGradient>
    </defs>
    <g id="BK3" stroke="none" stroke-width="1" fill="none" fill-rule="evenodd">
        <g id="BK3_small">
            <mask id="mask-2" fill="white">
                <use xlink:href="#path-1"></use>
            </mask>
            <g id="矩形"></g>
            <path d="M44.9333333,17.16 C42.0066667,14.2333333 37.7733333,13.4 34.1,14.66 L43.5866667,5.16666667 L42.8333333,4.41333333 L29.34,17.9066667 L30.8466667,17.9066667 C34.5266667,14.24 40.5,14.24 44.1733333,17.9133333 C47.8533333,21.5933333 47.8533333,27.5733333 44.1733333,31.2533333 L38.0933333,37.34 L35.18,34.4266667 L42.34,27.2666667 L36.9866667,21.9133333 L36.8066667,22.6733333 L41.3933333,27.26 L34.7133333,33.9533333 L30.8333333,30.0733333 L29.3266667,30.0733333 L42.8333333,43.58 L43.5866667,42.8266667 L38.8533333,38.0933333 L44.9333333,32.0066667 C49.02,27.92 49.02,21.2533333 44.9333333,17.16 L44.9333333,17.16 Z M17.1666667,30.08 L17.1666667,30.08 C13.4866667,33.76 7.5,33.76 3.82666667,30.08 C0.146666667,26.4 0.146666667,20.42 3.82666667,16.74 L9.90666667,10.6533333 L12.82,13.5666667 L5.66,20.7266667 L11.1466667,26.2133333 L11.3266667,25.4466667 L6.6,20.7266667 L13.2866667,14.04 L17.1533333,17.9066667 L18.66,17.9066667 L5.16666667,4.41333333 L4.41333333,5.16666667 L9.14666667,9.9 L3.06666667,15.9866667 C-1.02666667,20.08 -1.02666667,26.74 3.06666667,30.8333333 C5.99333333,33.76 10.2266667,34.5933333 13.9,33.3333333 L4.41333333,42.8333333 L5.16666667,43.5866667 L18.6733333,30.08 L17.1666667,30.08 L17.1666667,30.08 Z M36.1466667,22.5866667 L34.4733333,23.9333333 L35.5666667,25.2466667 L34.9533333,27.84 L32.88,29.4133333 L30.0466667,29.4133333 L30.64,26.8933333 L31.2466667,26.8933333 L31.6333333,25.2333333 L29.9466667,25.2333333 L30.5666667,22.56 L32.2333333,22.56 L32.5866667,21.1 L31.3,21.1 L31.8866667,18.58 L35.4133333,18.58 L36.7266667,20.16 L36.1466667,22.5866667 L36.1466667,22.5866667 Z M29.0666667,26.8933333 L29.8266667,26.8933333 L29.2333333,29.4133333 L27.1333333,29.4133333 L18.96,21.1066667 L18.2,21.1066667 L18.7733333,18.5733333 L20.8866667,18.5733333 L29.0666667,26.8933333 L29.0666667,26.8933333 Z M15.5866667,26.9 L16.8733333,26.9 L16.2866667,29.4133333 L12.76,29.4133333 L11.4533333,27.8266667 L12.0466667,25.2733333 L13.7266667,23.9266667 L12.6333333,22.6133333 L13.2266667,20.16 L15.28,18.58 L17.96,18.58 L17.3666667,21.1333333 L16.9333333,21.1333333 L16.5733333,22.6133333 L18.26,22.6133333 L17.64,25.2866667 L15.9733333,25.2866667 L15.5866667,26.9 Z M21.1866667,24.5333333 L23.26,26.62 L20.4533333,29.4133333 L17.0933333,29.4133333 L17.68,26.9 L18.7866667,26.9 L21.1866667,24.5333333 L21.1866667,24.5333333 Z M26.82,23.4466667 L24.7466667,21.3733333 L27.5733333,18.5733333 L31.0733333,18.5733333 L30.4866667,21.0933333 L29.2266667,21.0933333 L26.82,23.4466667 L26.82,23.4466667 Z M21,6.64 C20.9,4.86666667 20.28,3.19333333 19.2266667,1.78666667 C20.3733333,0.773333333 21.8466667,0.12 23.4666667,0 L23.4666667,6.64 L21,6.64 Z M28.7733333,1.78666667 C27.6266667,0.773333333 26.1533333,0.12 24.5333333,0 L24.5333333,6.64 L27,6.64 C27.1066667,4.87333333 27.72,3.19333333 28.7733333,1.78666667 Z M19.9266667,7.70666667 L16.82,7.70666667 C16.9333333,9.25333333 17.5333333,10.6666667 18.4733333,11.7866667 C19.3266667,10.5933333 19.8333333,9.19333333 19.9266667,7.70666667 L19.9266667,7.70666667 Z M19.9266667,6.64 C19.8266667,5.16 19.3266667,3.75333333 18.4733333,2.56 C17.5333333,3.68 16.9333333,5.09333333 16.82,6.64 L19.9266667,6.64 Z M27,7.70666667 L24.5333333,7.70666667 L24.5333333,14.3466667 C26.1533333,14.2266667 27.6266667,13.5733333 28.7733333,12.56 C27.72,11.16 27.1066667,9.48 27,7.70666667 Z M28.0733333,6.64 L31.18,6.64 C31.0666667,5.09333333 30.4666667,3.68666667 29.5266667,2.56666667 C28.6733333,3.76 28.1666667,5.16 28.0733333,6.64 Z M28.0733333,7.70666667 C28.1733333,9.18666667 28.6733333,10.5933333 29.5266667,11.7866667 C30.4666667,10.6666667 31.0666667,9.25333333 31.18,7.70666667 C31.18,7.70666667 28.0733333,7.70666667 28.0733333,7.70666667 L28.0733333,7.70666667 Z M23.4666667,7.70666667 L21,7.70666667 C20.9,9.48 20.28,11.1533333 19.2266667,12.56 C20.3733333,13.5733333 21.8466667,14.2266667 23.4666667,14.3466667 L23.4666667,7.70666667 Z M24.5333333,41.36 L24.5333333,48 C26.1533333,47.88 27.6266667,47.2266667 28.7733333,46.2133333 C27.72,44.8066667 27.1066667,43.1333333 27,41.36 L24.5333333,41.36 L24.5333333,41.36 Z M19.2266667,46.2133333 C20.3733333,47.2266667 21.8466667,47.88 23.4666667,48 L23.4666667,41.36 L21,41.36 C20.8933333,43.1266667 20.28,44.8066667 19.2266667,46.2133333 L19.2266667,46.2133333 Z M28.0733333,40.2933333 L31.18,40.2933333 C31.0666667,38.7466667 30.4666667,37.3333333 29.5266667,36.2133333 C28.6733333,37.4066667 28.1666667,38.8066667 28.0733333,40.2933333 Z M28.0733333,41.36 C28.1733333,42.84 28.6733333,44.2466667 29.5266667,45.44 C30.4666667,44.32 31.0666667,42.9066667 31.18,41.36 L28.0733333,41.36 Z M21,40.2933333 L23.4666667,40.2933333 L23.4666667,33.6533333 C21.8466667,33.7733333 20.3733333,34.4266667 19.2266667,35.44 C20.28,36.84 20.8933333,38.52 21,40.2933333 L21,40.2933333 Z M19.9266667,41.36 L16.82,41.36 C16.9333333,42.9066667 17.5333333,44.32 18.4733333,45.44 C19.3266667,44.24 19.8333333,42.84 19.9266667,41.36 Z M19.9266667,40.2933333 C19.8266667,38.8133333 19.3266667,37.4066667 18.4733333,36.2133333 C17.5333333,37.3333333 16.9333333,38.7466667 16.82,40.2933333 L19.9266667,40.2933333 Z M24.5333333,40.2933333 L27,40.2933333 C27.1,38.52 27.72,36.8466667 28.7733333,35.44 C27.6266667,34.4266667 26.1533333,33.7733333 24.5333333,33.6533333 L24.5333333,40.2933333 Z" id="形状" fill="url(#linearGradient-3)" mask="url(#mask-2)"></path>
        </g>
    </g>
</svg>