<?xml version="1.0" encoding="UTF-8"?>
<svg width="48px" height="48px" viewBox="0 0 48 48" version="1.1" xmlns="http://www.w3.org/2000/svg" xmlns:xlink="http://www.w3.org/1999/xlink">
    <title>JUD</title>
    <defs>
        <rect id="path-1" x="0" y="0" width="48" height="48"></rect>
        <linearGradient x1="0%" y1="50%" x2="100%" y2="50%" id="linearGradient-3">
            <stop stop-color="#A8B2DE" offset="0%"></stop>
            <stop stop-color="#7D84C2" offset="100%"></stop>
        </linearGradient>
    </defs>
    <g id="JUD" stroke="none" stroke-width="1" fill="none" fill-rule="evenodd">
        <g id="JUD_small">
            <mask id="mask-2" fill="white">
                <use xlink:href="#path-1"></use>
            </mask>
            <g id="矩形"></g>
            <path d="M29.5,2.19333333 C28.6266667,1.63333333 27.8333333,1.00666667 26.9933333,0 L21.0266667,0 C20.1866667,1.01333333 19.3933333,1.64 18.52,2.19333333 L16.22,3.66 L13.5533333,12.8 L5.18,4.42 L4.42,5.18 L11.62,12.38 L0,24 L11.62,35.62 L4.42,42.82 L5.17333333,43.5733333 L13.5333333,35.2133333 L16.2,44.34 L18.5,45.8066667 C19.2866667,46.3066667 20.0066667,46.9133333 20.64,47.5933333 L25.42,33.44 L19.4866667,33.44 L19.1933333,31.5133333 L22.1666667,31.5133333 L22.64,31.9866667 L26.9333333,27.6933333 L28.2933333,29.0533333 L25.8333333,31.52 L28.7866667,31.52 L28.4933333,33.4466667 L26.5466667,33.4466667 L21.6333333,48 L26.3533333,48 L24.56,42.6733333 L25.12,41.0066667 L27.34,47.5933333 C27.9733333,46.9066667 28.6933333,46.3066667 29.48,45.8066667 L31.78,44.34 L34.4466667,35.2 L42.8266667,43.58 L43.58,42.8266667 L36.38,35.6266667 L48,24 L36.38,12.38 L43.58,5.18 L42.8266667,4.42666667 L34.46,12.7866667 L31.8,3.66 L29.5,2.19333333 L29.5,2.19333333 Z M17.1333333,4.34666667 L19.0933333,3.09333333 C19.8,2.64666667 20.4466667,2.12666667 21.0466667,1.54 L22.8866667,6.98666667 L23.4466667,5.32 L22.0133333,1.06666667 L26.0133333,1.06666667 L21.46,14.56 L19.5133333,14.56 L19.22,16.4866667 L22.1733333,16.4866667 L19.7133333,18.9466667 L18.0266667,17.26 L19.06,10.4866667 L18.4,10.3866667 L17.4466667,16.6733333 L14.4266667,13.6533333 L17.1333333,4.34666667 L17.1333333,4.34666667 Z M12.38,34.8666667 L1.51333333,24 L12.38,13.1333333 L17.3866667,18.14 L11.52,24 L17.38,29.86 L12.38,34.8666667 L12.38,34.8666667 Z M18.3666667,37.6066667 L17.4133333,31.34 L18,30.7533333 L19.0266667,37.5066667 L18.3666667,37.6066667 Z M17.8533333,29.3933333 L12.4666667,24 L17.8533333,18.6066667 L23.2466667,24 L17.8533333,29.3933333 L17.8533333,29.3933333 Z M22.1666667,31.5133333 L19.7066667,29.0533333 L21.0666667,27.6933333 L23.5266667,30.1533333 L22.1666667,31.5133333 Z M24,23.2466667 L21.0666667,20.3133333 L25.36,16.02 L25.8333333,16.4933333 L28.8066667,16.4933333 L28.5133333,14.5666667 L22.58,14.5666667 L26.9733333,1.54666667 C27.5666667,2.12666667 28.22,2.65333333 28.9266667,3.1 L30.8866667,4.35333333 L33.6,13.6466667 L30.5866667,16.66 L29.6333333,10.3933333 L28.9733333,10.4933333 L30,17.2466667 L28.2933333,18.9533333 L25.8333333,16.4933333 L24.4733333,17.8533333 L26.9333333,20.3133333 L24,23.2466667 Z M24.7533333,24 L30.14,18.6133333 L35.5333333,24 L30.1466667,29.3866667 L24.7533333,24 L24.7533333,24 Z M29.6133333,37.6066667 L28.9533333,37.5066667 L29.98,30.7333333 L30.5666667,31.32 L29.6133333,37.6066667 Z M30.6133333,29.86 L36.4733333,24 L30.6133333,18.14 L35.62,13.1333333 L46.4866667,24 L35.62,34.8666667 L30.6133333,29.86 L30.6133333,29.86 Z" id="形状" fill="url(#linearGradient-3)" mask="url(#mask-2)"></path>
        </g>
    </g>
</svg>