<?xml version="1.0" encoding="UTF-8"?>
<svg width="48px" height="48px" viewBox="0 0 48 48" version="1.1" xmlns="http://www.w3.org/2000/svg" xmlns:xlink="http://www.w3.org/1999/xlink">
    <title>EQU</title>
    <defs>
        <rect id="path-1" x="0" y="0" width="48" height="48"></rect>
        <linearGradient x1="0%" y1="50%" x2="100%" y2="50%" id="linearGradient-3">
            <stop stop-color="#A8B2DE" offset="0%"></stop>
            <stop stop-color="#7D84C2" offset="100%"></stop>
        </linearGradient>
    </defs>
    <g id="EQU" stroke="none" stroke-width="1" fill="none" fill-rule="evenodd">
        <g id="EQU_small">
            <mask id="mask-2" fill="white">
                <use xlink:href="#path-1"></use>
            </mask>
            <g id="矩形"></g>
            <path d="M0,9.98 C0,6.64 2.10666667,3.8 5.06,2.7 L7.76,0 L7.76,2.22 L14.4133333,5.54666667 L13.3066667,7.76666667 L7.76,7.76666667 L7.76,17.7466667 C3.47333333,17.74 0,14.2666667 0,9.98 L0,9.98 Z M14.36,14.4 C16.3866667,12.3733333 19.6666667,12.3733333 21.6933333,14.4 L22.0866667,14.7933333 L24,12.88 L24.7533333,13.6333333 L20.22,18.1666667 L22.5933333,21.1733333 L20.9533333,22.8133333 L17.1266667,21.2666667 L15.5133333,22.88 L14.3666667,21.7333333 C12.3333333,19.7133333 12.3333333,16.4266667 14.36,14.4 L14.36,14.4 Z M17.9466667,20.4466667 L20.7,21.5666667 L21.1666667,21.1 L19.46,18.9333333 L17.9466667,20.4466667 Z M40.24,7.76 L40.24,17.74 C44.5266667,17.74 48,14.2666667 48,9.98 C48,5.69333333 45.8933333,3.8 42.94,2.7 L40.24,0 L40.24,2.22 L33.5866667,5.54666667 L34.6933333,7.76666667 L40.24,7.76666667 L40.24,7.76 Z M40.24,30.26 L40.24,40.24 L34.6933333,40.24 L33.5866667,42.46 L40.24,45.7866667 L40.24,48 L42.94,45.3 C45.8933333,44.2 48,41.36 48,38.02 C48,34.68 44.5266667,30.26 40.24,30.26 L40.24,30.26 Z M7.76,40.24 L7.76,30.26 C3.47333333,30.26 8.8817842e-16,33.7333333 8.8817842e-16,38.02 C8.8817842e-16,42.3066667 2.10666667,44.2 5.06,45.3 L7.76,48 L7.76,45.78 L14.4133333,42.4533333 L13.3066667,40.2333333 L7.76,40.2333333 L7.76,40.24 Z M32.6666667,15.8066667 L36.9333333,11.8733333 C37.0666667,11.7533333 37.1533333,11.6 37.18,11.46 C37.2066667,11.32 37.18,11.18 37.0866667,11.0866667 L37,11 L36.9133333,10.9133333 C36.82,10.82 36.6866667,10.7933333 36.54,10.82 C36.3933333,10.8466667 36.2466667,10.9333333 36.1266667,11.0666667 L32.1933333,15.3333333 L15.3333333,32.1933333 L11.0666667,36.1266667 C10.9333333,36.2466667 10.8466667,36.4 10.82,36.54 C10.7933333,36.68 10.82,36.82 10.9133333,36.9133333 L11,37 L11.0866667,37.0866667 C11.18,37.18 11.3133333,37.2066667 11.46,37.18 C11.6066667,37.1533333 11.7533333,37.0666667 11.8733333,36.9333333 L15.8066667,32.6666667 L32.6666667,15.8066667 L32.6666667,15.8066667 Z M33.64,33.6 C31.6133333,35.6266667 28.3333333,35.6266667 26.3066667,33.6 L25.9133333,33.2066667 L24,35.1133333 L23.2466667,34.36 L27.78,29.8266667 L25.4066667,26.82 L27.0466667,25.18 L30.8733333,26.7333333 L32.4866667,25.12 L33.6333333,26.2666667 C35.6666667,28.2866667 35.6666667,31.5733333 33.6333333,33.6 L33.64,33.6 Z M30.0533333,27.5533333 L27.3,26.4333333 L26.8333333,26.9 L28.54,29.0666667 L30.0533333,27.5533333 Z" id="形状" fill="url(#linearGradient-3)" mask="url(#mask-2)"></path>
        </g>
    </g>
</svg>