<?xml version="1.0" encoding="UTF-8"?>
<svg width="48px" height="48px" viewBox="0 0 48 48" version="1.1" xmlns="http://www.w3.org/2000/svg" xmlns:xlink="http://www.w3.org/1999/xlink">
    <title>VBV</title>
    <defs>
        <rect id="path-1" x="0" y="0" width="48" height="48"></rect>
        <linearGradient x1="0%" y1="50%" x2="100%" y2="50%" id="linearGradient-3">
            <stop stop-color="#A8B2DE" offset="0%"></stop>
            <stop stop-color="#7D84C2" offset="100%"></stop>
        </linearGradient>
    </defs>
    <g id="VBV" stroke="none" stroke-width="1" fill="none" fill-rule="evenodd">
        <g id="VBV_small">
            <mask id="mask-2" fill="white">
                <use xlink:href="#path-1"></use>
            </mask>
            <g id="矩形"></g>
            <g id="编组" mask="url(#mask-2)" fill="url(#linearGradient-3)">
                <path d="M26.68,33.5933333 C30.66,33.5933333 33.8866667,36.8133333 33.8866667,40.7933333 C33.8866667,44.7733333 30.66,48 26.68,48 C22.7,48 19.4733333,44.78 19.4733333,40.8 C19.4733333,36.82 22.7,33.5933333 26.68,33.5933333 Z M29.2666667,43.5933333 C28.94,43.88 26.2866667,46.1133333 22.6333333,45.9266667 C23.7466667,46.8066667 25.1533333,47.3333333 26.68,47.3333333 C28.1533333,47.3333333 29.5133333,46.8466667 30.6066667,46.0266667 C30.3266667,45.2866667 29.9066667,44.44 29.2666667,43.5933333 Z M40,1.88 L46.12,8 L27.44,26.6866667 L35.9066667,35.1533333 L47.06,24.0066667 L39.06,16.0066667 L39.5333333,15.5333333 L48,24 L36.3733333,35.6266667 L43.5733333,42.8266667 L42.82,43.58 L26.68,27.44 L8,46.12 L1.88,40 L20.56,21.3066667 L12.0933333,12.84 L0.94,23.9933333 L8.94,31.9933333 L8.46666667,32.4666667 L0,24 L11.62,12.38 L4.42,5.18 L5.18,4.42 L21.32,20.56 L40,1.88 Z M27.5733333,37.78 C27.28,38.6066667 27.08,39.5533333 27.0266667,40.62 C29.3533333,42.1333333 30.5466667,44.0266667 31.16,45.5533333 C31.9466667,44.8066667 32.5533333,43.8733333 32.9,42.8133333 C31.44,38.9933333 27.62,37.7933333 27.5733333,37.78 Z M26.66,41.18 C24.1866667,42.44 21.9533333,42.5266667 20.32,42.2933333 C20.5733333,43.38 21.1,44.3666667 21.8333333,45.1666667 C25.8666667,45.8066667 28.8133333,43.1 28.8466667,43.0666667 L28.6247396,42.8198958 C28.090625,42.2460417 27.4416667,41.6875 26.66,41.18 Z M8,41.4133333 L6.12,43.2933333 L8,45.1733333 L9.88,43.2933333 L8,41.4133333 Z M10.3533333,39.06 L8.47333333,40.94 L10.3533333,42.82 L12.2333333,40.94 L10.3533333,39.06 Z M5.64666667,39.06 L3.76666667,40.94 L5.64666667,42.82 L7.52666667,40.94 L5.64666667,39.06 Z M29.2466667,34.78 C28.7466667,35.3933333 28.22,36.18 27.8066667,37.16 C28.22,37.3 31.48,38.4866667 33.1466667,41.7466667 C33.1933333,41.4333333 33.22,41.12 33.22,40.7933333 C33.22,38.1 31.58,35.78 29.2466667,34.78 Z M24.2733333,34.72 C21.86,35.68 20.1466667,38.04 20.1466667,40.7933333 C20.1466667,41.06 20.16,41.3266667 20.1933333,41.5733333 C20.9733333,41.7066667 21.92,41.7666667 22.9733333,41.6333333 C22.8866667,41.2066667 22.2866667,37.7933333 24.2733333,34.72 Z M26.68,34.26 C26.2133333,34.26 25.76,34.3066667 25.3266667,34.4066667 C22.7466667,37.5733333 23.62,41.4866667 23.6333333,41.54 L23.9563932,41.4711458 C24.7171875,41.2954167 25.5258333,41.0125 26.36,40.5866667 C26.5066667,37.82 27.5466667,35.8333333 28.5666667,34.54 C27.9666667,34.36 27.3333333,34.26 26.68,34.26 Z M40,2.82666667 L2.82666667,40 L3.3,40.4666667 L40.4733333,3.3 L40,2.82666667 Z M12.7066667,36.7066667 L10.8266667,38.5866667 L12.7066667,40.4666667 L14.5866667,38.5866667 L12.7066667,36.7066667 Z M8,36.7066667 L6.12,38.5866667 L8,40.4666667 L9.88666667,38.5866667 L8,36.7066667 Z M15.06,34.3533333 L13.18,36.2333333 L15.06,38.1133333 L16.94,36.2333333 L15.06,34.3533333 Z M10.3533333,34.3533333 L8.47333333,36.2333333 L10.3533333,38.1133333 L12.2333333,36.2333333 L10.3533333,34.3533333 Z M17.4133333,32 L15.5333333,33.88 L17.4133333,35.7666667 L19.2933333,33.88 L17.4133333,32 Z M12.7066667,32 L10.8266667,33.88 L12.7066667,35.76 L14.5866667,33.88 L12.7066667,32 Z M19.7666667,29.6533333 L17.8866667,31.5333333 L19.7666667,33.4133333 L21.6466667,31.5333333 L19.7666667,29.6533333 Z M15.06,29.6466667 L13.18,31.5266667 L15.06,33.4066667 L16.94,31.5266667 L15.06,29.6466667 Z M34.5,30.9133333 C34.6866667,30.9133333 34.8333333,31.06 34.8333333,31.2466667 C34.8333333,31.4333333 34.6866667,31.58 34.5,31.58 C34.32,31.58 34.1666667,31.4333333 34.1666667,31.2466667 C34.1666667,31.06 34.3133333,30.9133333 34.5,30.9133333 Z M17.4133333,27.3 L15.5333333,29.18 L17.4133333,31.06 L19.2933333,29.18 L17.4133333,27.3 Z M22.12,27.3 L20.24,29.18 L22.12,31.06 L24,29.18 L22.12,27.3 Z M38.2466667,29.8266667 C38.4333333,29.8266667 38.58,29.9733333 38.58,30.16 C38.58,30.3466667 38.4333333,30.4933333 38.2466667,30.4933333 C38.06,30.4933333 37.9133333,30.3466667 37.9133333,30.16 C37.9133333,29.9733333 38.06,29.8266667 38.2466667,29.8266667 Z M36.0933333,29.2 C36.28,29.2 36.4266667,29.3466667 36.4266667,29.5333333 C36.4266667,29.72 36.28,29.8666667 36.0933333,29.8666667 C35.9066667,29.8666667 35.76,29.72 35.76,29.5333333 C35.76,29.3466667 35.9066667,29.2 36.0933333,29.2 Z M19.7666667,24.9466667 L17.8866667,26.8266667 L19.7666667,28.7066667 L21.6466667,26.8266667 L19.7666667,24.9466667 Z M24.4733333,24.9466667 L22.5933333,26.8266667 L24.4733333,28.7066667 L26.3533333,26.8266667 L24.4733333,24.9466667 Z M33.7733333,28.0333333 C33.96,28.0333333 34.1066667,28.18 34.1066667,28.3666667 C34.1066667,28.5533333 33.96,28.7 33.7733333,28.7 C33.5933333,28.7 33.44,28.5533333 33.44,28.3666667 C33.44,28.18 33.5866667,28.0333333 33.7733333,28.0333333 Z M9.05333333,27.3466667 C9.24,27.3466667 9.38666667,27.4933333 9.38666667,27.68 C9.38666667,27.8666667 9.24,28.0133333 9.05333333,28.0133333 C8.86666667,28.0133333 8.72,27.8666667 8.72,27.68 C8.72,27.4933333 8.86666667,27.3466667 9.05333333,27.3466667 Z M31.9333333,27.1266667 C32.12,27.1266667 32.2666667,27.2733333 32.2666667,27.46 C32.2666667,27.6466667 32.12,27.7933333 31.9333333,27.7933333 C31.7466667,27.7933333 31.6,27.6466667 31.6,27.46 C31.6,27.2733333 31.7466667,27.1266667 31.9333333,27.1266667 Z M11.6866667,27.0933333 C11.8733333,27.0933333 12.02,27.24 12.02,27.4266667 C12.02,27.6133333 11.8733333,27.76 11.6866667,27.76 C11.5066667,27.76 11.3533333,27.6133333 11.3533333,27.4266667 C11.3533333,27.24 11.5,27.0933333 11.6866667,27.0933333 Z M39.26,26.7866667 C39.4466667,26.7866667 39.5933333,26.9333333 39.5933333,27.12 C39.5933333,27.3066667 39.4466667,27.4533333 39.26,27.4533333 C39.0733333,27.4533333 38.9266667,27.3066667 38.9266667,27.12 C38.9266667,26.9333333 39.0733333,26.7866667 39.26,26.7866667 Z M37.1066667,26.4866667 C37.2933333,26.4866667 37.44,26.6333333 37.44,26.82 C37.44,27.0066667 37.2933333,27.1533333 37.1066667,27.1533333 C36.92,27.1533333 36.7733333,27.0066667 36.7733333,26.82 C36.7733333,26.6333333 36.92,26.4866667 37.1066667,26.4866667 Z M7.02666667,25.9333333 C7.21333333,25.9333333 7.36,26.08 7.36,26.2666667 C7.36,26.4533333 7.21333333,26.6 7.02666667,26.6 C6.84,26.6 6.69333333,26.4533333 6.69333333,26.2666667 C6.69333333,26.08 6.84,25.9333333 7.02666667,25.9333333 Z M42.3,25.7733333 C42.4866667,25.7733333 42.6333333,25.92 42.6333333,26.1066667 C42.6333333,26.2933333 42.4866667,26.44 42.3,26.44 C42.1133333,26.44 41.9666667,26.2933333 41.9666667,26.1066667 C41.9666667,25.92 42.1133333,25.7733333 42.3,25.7733333 Z M22.12,22.5933333 L20.24,24.4733333 L22.12,26.3533333 L24,24.4733333 L22.12,22.5933333 Z M26.8266667,22.5933333 L24.9466667,24.4733333 L26.8266667,26.3533333 L28.7066667,24.4733333 L26.8266667,22.5933333 Z M32.4933333,25.0866667 C32.68,25.0866667 32.8266667,25.2333333 32.8266667,25.42 C32.8266667,25.6066667 32.68,25.7533333 32.4933333,25.7533333 C32.3066667,25.7533333 32.16,25.6066667 32.16,25.42 C32.16,25.2333333 32.3066667,25.0866667 32.4933333,25.0866667 Z M40.2733333,25.0333333 C40.46,25.0333333 40.6066667,25.18 40.6066667,25.3666667 C40.6066667,25.5533333 40.46,25.7 40.2733333,25.7 C40.0866667,25.7 39.94,25.5533333 39.94,25.3666667 C39.94,25.18 40.0866667,25.0333333 40.2733333,25.0333333 Z M8.74,24.94 C8.92666667,24.94 9.07333333,25.0866667 9.07333333,25.2733333 C9.07333333,25.46 8.92666667,25.6066667 8.74,25.6066667 C8.56,25.6066667 8.40666667,25.46 8.40666667,25.2733333 C8.40666667,25.0866667 8.55333333,24.94 8.74,24.94 Z M37.2333333,24.76 C37.42,24.76 37.5666667,24.9066667 37.5666667,25.0933333 C37.5666667,25.28 37.42,25.4266667 37.2333333,25.4266667 C37.0466667,25.4266667 36.9,25.28 36.9,25.0933333 C36.9,24.9066667 37.0466667,24.76 37.2333333,24.76 Z M14.12,24.66 C14.3066667,24.66 14.4533333,24.8066667 14.4533333,24.9933333 C14.4533333,25.18 14.3066667,25.3266667 14.12,25.3266667 C13.9333333,25.3266667 13.7866667,25.18 13.7866667,24.9933333 C13.7866667,24.8066667 13.9333333,24.66 14.12,24.66 Z M11.0933333,24.64 C11.28,24.64 11.4266667,24.7866667 11.4266667,24.9733333 C11.4266667,25.16 11.28,25.3066667 11.0933333,25.3066667 C10.9133333,25.3066667 10.76,25.16 10.76,24.9733333 C10.76,24.7866667 10.9066667,24.64 11.0933333,24.64 Z M35.3733333,24.58 C35.56,24.58 35.7066667,24.7266667 35.7066667,24.9133333 C35.7066667,25.1 35.56,25.2466667 35.3733333,25.2466667 C35.1933333,25.2466667 35.04,25.1 35.04,24.9133333 C35.04,24.7266667 35.1866667,24.58 35.3733333,24.58 Z M42.92,23.72 C43.1066667,23.72 43.2533333,23.8666667 43.2533333,24.0533333 C43.2533333,24.24 43.1066667,24.3866667 42.92,24.3866667 C42.7333333,24.3866667 42.5866667,24.24 42.5866667,24.0533333 C42.5866667,23.8666667 42.7333333,23.72 42.92,23.72 Z M5.08,23.6133333 C5.26666667,23.6133333 5.41333333,23.76 5.41333333,23.9466667 C5.41333333,24.1333333 5.26666667,24.28 5.08,24.28 C4.89333333,24.28 4.74666667,24.1333333 4.74666667,23.9466667 C4.74666667,23.76 4.89333333,23.6133333 5.08,23.6133333 Z M24.4666667,20.24 L22.5866667,22.12 L24.4733333,24 L26.3466667,22.12 L24.4666667,20.24 Z M29.18,20.24 L27.3,22.12 L29.18,24 L31.06,22.12 L29.18,20.24 Z M12.6266667,22.7533333 C12.8133333,22.7533333 12.96,22.9 12.96,23.0866667 C12.96,23.2733333 12.8133333,23.42 12.6266667,23.42 C12.44,23.42 12.2933333,23.2733333 12.2933333,23.0866667 C12.2933333,22.9 12.44,22.7533333 12.6266667,22.7533333 Z M36.9066667,22.6933333 C37.0933333,22.6933333 37.24,22.84 37.24,23.0266667 C37.24,23.2133333 37.0933333,23.36 36.9066667,23.36 C36.72,23.36 36.5733333,23.2133333 36.5733333,23.0266667 C36.5733333,22.84 36.72,22.6933333 36.9066667,22.6933333 Z M33.88,22.6733333 C34.0666667,22.6733333 34.2133333,22.82 34.2133333,23.0066667 C34.2133333,23.1933333 34.0666667,23.34 33.88,23.34 C33.6933333,23.34 33.5466667,23.1933333 33.5466667,23.0066667 C33.5466667,22.82 33.6933333,22.6733333 33.88,22.6733333 Z M10.7666667,22.5733333 C10.9533333,22.5733333 11.1,22.72 11.1,22.9066667 C11.1,23.0933333 10.9533333,23.24 10.7666667,23.24 C10.5866667,23.24 10.4333333,23.0933333 10.4333333,22.9066667 C10.4333333,22.72 10.58,22.5733333 10.7666667,22.5733333 Z M39.26,22.3933333 C39.4466667,22.3933333 39.5933333,22.54 39.5933333,22.7266667 C39.5933333,22.9133333 39.4466667,23.06 39.26,23.06 C39.0733333,23.06 38.9266667,22.9133333 38.9266667,22.7266667 C38.9266667,22.54 39.0733333,22.3933333 39.26,22.3933333 Z M7.72666667,22.3 C7.91333333,22.3 8.06,22.4466667 8.06,22.6333333 C8.06,22.82 7.91333333,22.9666667 7.72666667,22.9666667 C7.54666667,22.9666667 7.39333333,22.82 7.39333333,22.6333333 C7.39333333,22.4466667 7.54,22.3 7.72666667,22.3 Z M15.5066667,22.2466667 C15.6933333,22.2466667 15.84,22.3933333 15.84,22.58 C15.84,22.7666667 15.6933333,22.9133333 15.5066667,22.9133333 C15.3266667,22.9133333 15.1733333,22.7666667 15.1733333,22.58 C15.1733333,22.3933333 15.32,22.2466667 15.5066667,22.2466667 Z M5.7,21.56 C5.88666667,21.56 6.03333333,21.7066667 6.03333333,21.8933333 C6.03333333,22.08 5.88666667,22.2266667 5.7,22.2266667 C5.51333333,22.2266667 5.36666667,22.08 5.36666667,21.8933333 C5.36666667,21.7066667 5.51333333,21.56 5.7,21.56 Z M40.9733333,21.4 C41.16,21.4 41.3066667,21.5466667 41.3066667,21.7333333 C41.3066667,21.92 41.16,22.0666667 40.9733333,22.0666667 C40.7933333,22.0666667 40.64,21.92 40.64,21.7333333 C40.64,21.5466667 40.7866667,21.4 40.9733333,21.4 Z M31.5266667,17.8866667 L29.6466667,19.7666667 L31.5266667,21.6466667 L33.4066667,19.7666667 L31.5266667,17.8866667 Z M26.8266667,17.8866667 L24.9466667,19.7666667 L26.8266667,21.6466667 L28.7066667,19.7666667 L26.8266667,17.8866667 Z M10.8933333,20.8466667 C11.08,20.8466667 11.2266667,20.9933333 11.2266667,21.18 C11.2266667,21.3666667 11.08,21.5133333 10.8933333,21.5133333 C10.7066667,21.5133333 10.56,21.3666667 10.56,21.18 C10.56,20.9933333 10.7066667,20.8466667 10.8933333,20.8466667 Z M8.74,20.5466667 C8.92666667,20.5466667 9.07333333,20.6933333 9.07333333,20.88 C9.07333333,21.0666667 8.92666667,21.2133333 8.74,21.2133333 C8.56,21.2133333 8.40666667,21.0666667 8.40666667,20.88 C8.40666667,20.6933333 8.55333333,20.5466667 8.74,20.5466667 Z M36.3133333,20.24 C36.5,20.24 36.6466667,20.3866667 36.6466667,20.5733333 C36.6466667,20.76 36.5,20.9066667 36.3133333,20.9066667 C36.1266667,20.9066667 35.98,20.76 35.98,20.5733333 C35.98,20.3866667 36.1266667,20.24 36.3133333,20.24 Z M16.0666667,20.2066667 C16.2533333,20.2066667 16.4,20.3533333 16.4,20.54 C16.4,20.7266667 16.2533333,20.8733333 16.0666667,20.8733333 C15.8866667,20.8733333 15.7333333,20.7266667 15.7333333,20.54 C15.7333333,20.3533333 15.88,20.2066667 16.0666667,20.2066667 Z M38.9466667,19.9866667 C39.1333333,19.9866667 39.28,20.1333333 39.28,20.32 C39.28,20.5066667 39.1333333,20.6533333 38.9466667,20.6533333 C38.7666667,20.6533333 38.6133333,20.5066667 38.6133333,20.32 C38.6133333,20.1333333 38.76,19.9866667 38.9466667,19.9866667 Z M14.2266667,19.3 C14.4133333,19.3 14.56,19.4466667 14.56,19.6333333 C14.56,19.82 14.4133333,19.9666667 14.2266667,19.9666667 C14.04,19.9666667 13.8933333,19.82 13.8933333,19.6333333 C13.8933333,19.4466667 14.04,19.3 14.2266667,19.3 Z M33.88,15.5333333 L32,17.4133333 L33.88,19.2933333 L35.76,17.4133333 L33.88,15.5333333 Z M29.18,15.5333333 L27.3,17.4133333 L29.18,19.2933333 L31.06,17.4133333 L29.18,15.5333333 Z M11.9066667,18.1333333 C12.0933333,18.1333333 12.24,18.28 12.24,18.4666667 C12.24,18.6533333 12.0933333,18.8 11.9066667,18.8 C11.72,18.8 11.5733333,18.6533333 11.5733333,18.4666667 C11.5733333,18.28 11.72,18.1333333 11.9066667,18.1333333 Z M9.75333333,17.5066667 C9.94,17.5066667 10.0866667,17.6533333 10.0866667,17.84 C10.0866667,18.0266667 9.94,18.1733333 9.75333333,18.1733333 C9.57333333,18.1733333 9.42,18.0266667 9.42,17.84 C9.42,17.6533333 9.56666667,17.5066667 9.75333333,17.5066667 Z M13.5,16.42 C13.6866667,16.42 13.8333333,16.5666667 13.8333333,16.7533333 C13.8333333,16.94 13.6866667,17.0866667 13.5,17.0866667 C13.3133333,17.0866667 13.1666667,16.94 13.1666667,16.7533333 C13.1666667,16.5666667 13.3133333,16.42 13.5,16.42 Z M36.2333333,13.18 L34.3533333,15.06 L36.2333333,16.94 L38.1133333,15.06 L36.2333333,13.18 Z M31.5333333,13.18 L29.6533333,15.06 L31.5333333,16.94 L33.4133333,15.06 L31.5333333,13.18 Z M38.5866667,10.8266667 L36.7066667,12.7066667 L38.5866667,14.5866667 L40.4666667,12.7066667 L38.5866667,10.8266667 Z M33.88,10.8266667 L32,12.7066667 L33.8866667,14.5866667 L35.7666667,12.7066667 L33.88,10.8266667 Z M21.32,0 C25.3,0 28.5266667,3.22 28.5266667,7.2 C28.5266667,11.18 25.3,14.4066667 21.32,14.4066667 C17.34,14.4066667 14.1133333,11.1866667 14.1133333,7.20666667 C14.1133333,3.22666667 17.34,0 21.32,0 Z M24.3666667,6.46 L24.0436068,6.52885417 C23.2828125,6.70458333 22.4741667,6.9875 21.64,7.41333333 C21.4933333,10.18 20.4533333,12.1666667 19.4333333,13.46 C20.0333333,13.64 20.6666667,13.74 21.32,13.74 C21.7866667,13.74 22.24,13.6933333 22.6733333,13.5933333 C25.2533333,10.4266667 24.38,6.51333333 24.3666667,6.46 Z M27.8066667,6.42666667 C27.0266667,6.29333333 26.08,6.23333333 25.0266667,6.36666667 C25.1133333,6.79333333 25.7133333,10.2066667 23.7266667,13.28 C26.14,12.32 27.8533333,9.96 27.8533333,7.20666667 C27.8533333,6.94 27.84,6.67333333 27.8066667,6.42666667 Z M14.8533333,6.25333333 C14.8066667,6.56666667 14.78,6.88 14.78,7.20666667 C14.78,9.9 16.42,12.22 18.7533333,13.22 C19.2533333,12.6066667 19.78,11.82 20.1933333,10.84 C19.78,10.7 16.52,9.51333333 14.8533333,6.25333333 Z M40.94,8.47333333 L39.06,10.3533333 L40.94,12.2333333 L42.82,10.3533333 L40.94,8.47333333 Z M36.24,8.47333333 L34.36,10.3533333 L36.24,12.2333333 L38.12,10.3533333 L36.24,8.47333333 Z M16.84,2.44666667 C16.0533333,3.19333333 15.4466667,4.12666667 15.1,5.18666667 C16.56,9.00666667 20.38,10.2066667 20.4266667,10.22 C20.72,9.39333333 20.92,8.44666667 20.9733333,7.38 C18.6466667,5.86666667 17.4533333,3.97333333 16.84,2.44666667 Z M38.5866667,6.12 L36.7066667,8 L38.5866667,9.88 L40.4666667,8 L38.5866667,6.12 Z M43.2933333,6.12 L41.4133333,8 L43.2933333,9.88 L45.1733333,8 L43.2933333,6.12 Z M40.94,3.77333333 L39.06,5.65333333 L40.94,7.53333333 L42.82,5.64666667 L40.94,3.77333333 Z M26.1666667,2.83333333 C22.1333333,2.19333333 19.1866667,4.9 19.1533333,4.93333333 L19.3752604,5.18010417 C19.909375,5.75395833 20.5583333,6.3125 21.34,6.82 C23.8133333,5.56 26.0466667,5.47333333 27.68,5.70666667 C27.4266667,4.62 26.9,3.63333333 26.1666667,2.83333333 Z M21.32,0.666666667 C19.8466667,0.666666667 18.4866667,1.15333333 17.3933333,1.97333333 C17.6733333,2.71333333 18.0933333,3.56 18.7333333,4.40666667 C19.06,4.12 21.7133333,1.88666667 25.3666667,2.07333333 C24.2533333,1.19333333 22.8466667,0.666666667 21.32,0.666666667 Z" id="形状结合"></path>
            </g>
        </g>
    </g>
</svg>