<?xml version="1.0" encoding="UTF-8"?>
<svg width="48px" height="48px" viewBox="0 0 48 48" version="1.1" xmlns="http://www.w3.org/2000/svg" xmlns:xlink="http://www.w3.org/1999/xlink">
    <title>HBL</title>
    <defs>
        <rect id="path-1" x="0" y="0" width="48" height="48"></rect>
        <linearGradient x1="0%" y1="50%" x2="100%" y2="50%" id="linearGradient-3">
            <stop stop-color="#A8B2DE" offset="0%"></stop>
            <stop stop-color="#7D84C2" offset="100%"></stop>
        </linearGradient>
    </defs>
    <g id="HBL" stroke="none" stroke-width="1" fill="none" fill-rule="evenodd">
        <g id="HBL_small">
            <mask id="mask-2" fill="white">
                <use xlink:href="#path-1"></use>
            </mask>
            <g id="矩形"></g>
            <path d="M9.58,10.3133333 L4.42,5.15333333 L5.18,4.4 L11.9,11.12 C11.16,10.7666667 10.3866667,10.4933333 9.58,10.3133333 Z M4.42,42.8 L5.17333333,43.5533333 L11.8866667,36.84 C11.1533333,37.1933333 10.3733333,37.4666667 9.57333333,37.6466667 L4.42,42.8 L4.42,42.8 Z M11.6733333,25.3666667 L12.34,25.3666667 L12.34,22.58 L11.6733333,22.58 L11.6733333,25.3666667 Z M15.68,25.7266667 L16.3466667,25.7266667 L16.3466667,22.2266667 L15.68,22.2266667 L15.68,25.7266667 Z M15.3866667,16.5933333 C15.66,17.5266667 15.6666667,18.6066667 15.6733333,19.7333333 L16.34,19.7333333 C16.3333333,18.4133333 16.3266667,17.16 15.9133333,16.06 L15.3866667,16.5933333 Z M15.3866667,31.36 L15.9133333,31.8866667 C16.3266667,30.7933333 16.3333333,29.5333333 16.34,28.22 L15.6733333,28.22 C15.6733333,29.34 15.6733333,30.4266667 15.3866667,31.36 Z M43.58,5.15333333 L42.82,4.4 L36.1,11.12 C36.8333333,10.7666667 37.6133333,10.4933333 38.4133333,10.3133333 L43.58,5.15333333 L43.58,5.15333333 Z M36.1066667,36.8333333 L42.82,43.5466667 L43.5733333,42.7933333 L38.4133333,37.6333333 C37.62,37.46 36.84,37.1933333 36.1066667,36.8333333 L36.1066667,36.8333333 Z M48,28.1066667 L44.8266667,28.1066667 L44.8266667,37.3066667 L40.78,37.3066667 C38.0533333,37.3066667 35.4933333,36.24 33.56,34.3133333 C33.3066667,34.06 33.06,33.7866667 32.8333333,33.4933333 L24,42.3266667 L15.1666667,33.4933333 C14.9333333,33.78 14.6933333,34.06 14.44,34.3133333 C12.5066667,36.2466667 9.94666667,37.3066667 7.22,37.3066667 L3.17333333,37.3066667 L3.17333333,28.1066667 L0,28.1066667 L0,19.84 L3.17333333,19.84 L3.17333333,10.64 L7.22,10.64 C9.94666667,10.64 12.5066667,11.7066667 14.44,13.6333333 C14.6933333,13.8866667 14.94,14.16 15.1666667,14.4533333 L24,5.62666667 L32.8333333,14.46 C33.0666667,14.1733333 33.3066667,13.8933333 33.56,13.64 C35.4933333,11.7066667 38.0533333,10.6466667 40.78,10.6466667 L44.8266667,10.6466667 L44.8266667,19.84 L48,19.84 L48,28.1066667 Z M24.3333333,29.9533333 L24.3333333,40.48 L40.84,23.9733333 L24.3333333,7.46666667 L24.3333333,18 C24.22,17.9933333 24.1133333,17.9933333 24,17.9933333 C23.8866667,17.9933333 23.78,18 23.6666667,18 L23.6666667,7.47333333 L7.16,23.9733333 L23.6666667,40.4866667 L23.6666667,29.9533333 C23.78,29.96 23.8866667,29.96 24,29.96 C24.1133333,29.96 24.22,29.96 24.3333333,29.9533333 L24.3333333,29.9533333 Z M3.17333333,27.04 L3.17333333,20.9066667 L1.06666667,20.9066667 L1.06666667,27.04 L3.17333333,27.04 Z M14.4066667,32.7333333 L5.65333333,23.9733333 L14.4133333,15.2133333 C14.1866667,14.92 13.94,14.6466667 13.6866667,14.3933333 C11.9533333,12.66 9.66,11.7066667 7.22,11.7066667 L4.24,11.7066667 L4.24,36.2333333 L7.22,36.2333333 C9.66,36.2333333 11.96,35.28 13.6866667,33.5466667 C13.94,33.3 14.18,33.0266667 14.4066667,32.7333333 Z M43.76,11.7133333 L40.78,11.7133333 C38.34,11.7133333 36.04,12.6666667 34.3133333,14.4 C34.06,14.6533333 33.82,14.9266667 33.5866667,15.22 L42.3466667,23.98 L33.5933333,32.7333333 C33.82,33.0266667 34.0666667,33.3 34.32,33.5533333 C36.0533333,35.2866667 38.3466667,36.2333333 40.7866667,36.2333333 L43.7666667,36.2333333 L43.7666667,11.7133333 L43.7666667,11.7133333 L43.76,11.7133333 Z M46.9333333,20.9066667 L44.8266667,20.9066667 L44.8266667,27.04 L46.9333333,27.04 L46.9333333,20.9066667 Z M36.3266667,22.5866667 L35.66,22.5866667 L35.66,25.3733333 L36.3266667,25.3733333 L36.3266667,22.5866667 Z M32.32,22.2266667 L31.6533333,22.2266667 L31.6533333,25.7266667 L32.32,25.7266667 L32.32,22.2266667 Z M32.6133333,16.5933333 L32.0866667,16.0666667 C31.6733333,17.16 31.6666667,18.42 31.66,19.7333333 L32.3266667,19.7333333 C32.3266667,18.6133333 32.3266667,17.5266667 32.6133333,16.5933333 L32.6133333,16.5933333 Z M32.6133333,31.36 C32.34,30.4266667 32.3333333,29.3466667 32.3266667,28.22 L31.66,28.22 C31.6666667,29.54 31.6733333,30.7933333 32.0866667,31.8933333 L32.6133333,31.36 L32.6133333,31.36 Z M24.4533333,29.4133333 C25.0333333,29.3666667 25.5933333,29.2266667 26.1133333,29.0066667 L25.7933333,28.7266667 L24.4533333,29.4133333 L24.4533333,29.4133333 Z M21.5733333,21.3133333 L21.8066667,19.7533333 L21.2466667,19.2666667 C20.24,19.86 19.44,20.76 18.98,21.84 L19.7666667,22.3533333 L21.5733333,21.3133333 L21.5733333,21.3133333 Z M26.4333333,26.64 L26.2,28.2 L26.7533333,28.6866667 C27.76,28.0933333 28.56,27.1933333 29.02,26.1133333 L28.2333333,25.6 L26.4333333,26.64 Z M23.6666667,22.94 L21.8733333,21.9066667 L20.08,22.94 L20.08,25.0066667 L21.8733333,26.04 L23.6666667,25.0066667 L23.6666667,22.94 Z M19.76,25.5933333 L18.9733333,26.1066667 C19.4333333,27.1866667 20.2333333,28.0933333 21.24,28.68 L21.8,28.1933333 L21.5666667,26.64 L19.76,25.5933333 L19.76,25.5933333 Z M23.5533333,18.54 C22.9666667,18.5866667 22.4066667,18.7266667 21.8933333,18.9466667 L22.2133333,19.2266667 L23.5533333,18.54 L23.5533333,18.54 Z M19.42,22.9266667 L18.7533333,22.4866667 C18.62,22.96 18.5466667,23.4533333 18.5466667,23.9733333 C18.5466667,24.4933333 18.62,24.9866667 18.7533333,25.46 L19.42,25.02 L19.42,22.9266667 Z M25.76,26.6066667 L24,25.5866667 L22.24,26.6066667 L22.4666667,28.1066667 L24.0066667,28.8933333 L25.5466667,28.1066667 L25.76,26.6066667 L25.76,26.6066667 Z M26.1133333,18.9466667 C25.5933333,18.7266667 25.0333333,18.5866667 24.4533333,18.54 L25.7933333,19.2266667 L26.1133333,18.9466667 L26.1133333,18.9466667 Z M24.3333333,25.0133333 L26.1266667,26.0466667 L27.92,25.0133333 L27.92,22.9466667 L26.1266667,21.9133333 L24.3333333,22.94 L24.3333333,25.0133333 Z M22.24,21.3466667 L24,22.3666667 L25.76,21.3466667 L25.5333333,19.8466667 L24,19.06 L22.46,19.8466667 L22.24,21.3466667 L22.24,21.3466667 Z M28.24,22.36 L29.0266667,21.8466667 C28.5666667,20.7666667 27.7666667,19.86 26.76,19.2733333 L26.2,19.76 L26.4333333,21.32 L28.24,22.36 L28.24,22.36 Z M28.58,25.0266667 L29.2466667,25.4666667 C29.38,24.9933333 29.4533333,24.5 29.4533333,23.98 C29.4533333,23.46 29.38,22.9666667 29.2466667,22.4933333 L28.58,22.9333333 L28.58,25.0266667 Z M21.8866667,29.0066667 C22.4066667,29.2266667 22.96,29.3666667 23.5466667,29.4133333 L22.2066667,28.7266667 L21.8866667,29.0066667 L21.8866667,29.0066667 Z" id="形状" fill="url(#linearGradient-3)" mask="url(#mask-2)"></path>
        </g>
    </g>
</svg>