<?xml version="1.0" encoding="UTF-8"?>
<svg width="48px" height="48px" viewBox="0 0 48 48" version="1.1" xmlns="http://www.w3.org/2000/svg" xmlns:xlink="http://www.w3.org/1999/xlink">
    <title>BDM</title>
    <defs>
        <rect id="path-1" x="0" y="0" width="48" height="48"></rect>
        <linearGradient x1="0%" y1="50%" x2="100%" y2="50%" id="linearGradient-3">
            <stop stop-color="#A8B2DE" offset="0%"></stop>
            <stop stop-color="#7D84C2" offset="100%"></stop>
        </linearGradient>
    </defs>
    <g id="BDM" stroke="none" stroke-width="1" fill="none" fill-rule="evenodd">
        <g id="BDM_small">
            <mask id="mask-2" fill="white">
                <use xlink:href="#path-1"></use>
            </mask>
            <g id="矩形"></g>
            <path d="M2.86666667,27.8133333 L2.37333333,27.32 L3.26666667,25.2866667 L3.96,25.98 L2.86666667,27.8133333 Z M10.1333333,14.8933333 L4.33333333,9.09333333 L9.08666667,4.33333333 L14.8866667,10.1333333 L14.4133333,10.6066667 L13.3466667,9.54 L11.6733333,11.2133333 L12.74,12.28 L12.2666667,12.7533333 L11.2,11.6866667 L9.53333333,13.36 L10.6,14.4266667 L10.1333333,14.8933333 L10.1333333,14.8933333 Z M11.22,7.40666667 L9.54666667,9.08 L11.2066667,10.74 L12.88,9.06666667 L11.22,7.40666667 Z M7.41333333,6.94666667 L9.07333333,8.60666667 L10.7466667,6.93333333 L9.08666667,5.27333333 L7.41333333,6.94666667 L7.41333333,6.94666667 Z M6.93333333,10.7533333 L8.60666667,9.08 L6.94666667,7.42 L5.27333333,9.09333333 L6.93333333,10.7533333 Z M9.06666667,12.8866667 L10.74,11.2133333 L9.08,9.55333333 L7.4,11.2266667 L9.06666667,12.8866667 Z M5.1,30.9933333 L2.09333333,27.9866667 L1.62,28.46 L4.62666667,31.4666667 L5.1,30.9933333 Z M0.62,29.46 C-0.206666667,30.2866667 -0.206666667,31.6333333 0.62,32.4666667 C1.44666667,33.3 2.79333333,33.2933333 3.62666667,32.4666667 L4.15333333,31.94 L1.14666667,28.9333333 L0.62,29.46 Z M8.14666667,18.98 L7.62666667,17.46 C7.56,17.2666667 7.38666667,17.1333333 7.18,17.1266667 C6.97333333,17.12 6.78666667,17.2333333 6.70666667,17.4266667 L3.55333333,24.6333333 L4.31333333,25.3933333 L8.14666667,18.98 L8.14666667,18.98 Z M8.68,18.4733333 L22.2533333,4.9 L21.78,4.42666667 L8.44,17.7733333 L8.68,18.4733333 L8.68,18.4733333 Z M13.8,24.3333333 L13.6333333,22.8066667 C13.6133333,22.5933333 13.4533333,22.4266667 13.2466667,22.3866667 L11.48,22.0666667 L6.23333333,27.3133333 L7.2,28.28 L13.8,24.3333333 Z M3.35333333,28.3 L3.83333333,28.78 L5.29333333,27.32 L4.44666667,26.4666667 L3.35333333,28.3 L3.35333333,28.3 Z M10.2733333,19.4466667 L8.74666667,19.28 L4.79333333,25.88 L5.76,26.8466667 L11.0066667,21.6 L10.6866667,19.8333333 C10.6533333,19.6266667 10.4866667,19.4666667 10.2733333,19.4466667 Z M15.3066667,24.64 L35.0466667,4.9 L34.5733333,4.42666667 L14.6066667,24.4 L15.3066667,24.64 Z M6.61333333,28.6333333 L5.76666667,27.7866667 L4.30666667,29.2466667 L4.78666667,29.7266667 L6.61333333,28.6333333 L6.61333333,28.6333333 Z M7.79333333,29.8133333 L7.1,29.12 L5.26666667,30.2133333 L5.76,30.7066667 L7.79333333,29.8133333 Z M20.8133333,17 L21.2866667,16.5266667 L19.7466667,14.9866667 L14.9866667,19.7466667 L16.5266667,21.2866667 L17,20.8133333 L15.9333333,19.7466667 L17.6066667,18.0733333 L18.6733333,19.14 L19.1466667,18.6666667 L18.08,17.6 L19.7533333,15.9266667 L20.8133333,17 Z M12.26,16.08 L11.7866667,16.5533333 L13.3266667,18.0933333 L18.0866667,13.3333333 L16.5466667,11.7933333 L16.0733333,12.2666667 L17.14,13.3333333 L15.4666667,15.0066667 L14.4,13.94 L13.9266667,14.4133333 L14.9933333,15.48 L13.32,17.1533333 L12.26,16.08 L12.26,16.08 Z M15.6533333,26.3666667 C15.84,26.2866667 15.96,26.1 15.9533333,25.8933333 C15.9466667,25.6866667 15.8133333,25.5133333 15.62,25.4466667 L14.1,24.9266667 L7.68666667,28.76 L8.44666667,29.52 L15.6533333,26.3666667 L15.6533333,26.3666667 Z M11.66,21.42 L12.06,21.4933333 L28.6533333,4.9 L28.18,4.42666667 L11.5866667,21.02 L11.66,21.42 L11.66,21.42 Z M35.74,31.9266667 L36.2133333,31.4533333 L34.6733333,29.9133333 L29.9133333,34.6733333 L31.4533333,36.2133333 L31.9266667,35.74 L30.86,34.6733333 L32.5333333,33 L33.6,34.0666667 L34.0733333,33.5933333 L33.0066667,32.5266667 L34.68,30.8533333 L35.74,31.9266667 L35.74,31.9266667 Z M39.32,29.5333333 L25.74,43.1066667 L26.2133333,43.58 L39.5533333,30.24 L39.32,29.5333333 Z M27.1866667,31.0066667 L26.7133333,31.48 L28.2533333,33.02 L33.0133333,28.26 L31.4733333,26.72 L31,27.1933333 L32.0666667,28.26 L30.3933333,29.9333333 L29.3266667,28.8666667 L28.8533333,29.34 L29.92,30.4066667 L28.2466667,32.08 L27.1866667,31.0066667 L27.1866667,31.0066667 Z M37.8666667,33.1133333 L43.6666667,38.9133333 L38.9066667,43.6733333 L33.1066667,37.8733333 L33.58,37.4 L34.6466667,38.4666667 L36.32,36.7933333 L35.2533333,35.7266667 L35.7266667,35.2533333 L36.7933333,36.32 L38.4666667,34.6466667 L37.4,33.58 L37.8666667,33.1133333 L37.8666667,33.1133333 Z M36.78,40.6 L38.4533333,38.9266667 L36.7933333,37.2666667 L35.12,38.94 L36.78,40.6 Z M40.5866667,41.06 L38.9266667,39.4 L37.2533333,41.0733333 L38.9133333,42.7333333 L40.5866667,41.06 Z M41.0666667,37.2533333 L39.3933333,38.9266667 L41.0533333,40.5866667 L42.7266667,38.9133333 L41.0666667,37.2533333 Z M38.9333333,35.12 L37.2666667,36.7933333 L38.9266667,38.4533333 L40.6,36.78 L38.9333333,35.12 Z M36.34,26.5866667 L35.94,26.5133333 L19.3466667,43.1066667 L19.82,43.58 L36.4133333,26.9866667 L36.34,26.5866667 L36.34,26.5866667 Z M39.8533333,29.0266667 L40.3733333,30.5466667 C40.44,30.74 40.6133333,30.8733333 40.82,30.88 C41.0266667,30.8866667 41.2133333,30.7733333 41.2933333,30.58 L44.4533333,23.3733333 L43.6933333,22.6133333 L39.8533333,29.0266667 L39.8533333,29.0266667 Z M42.9,17.02 L45.9066667,20.0266667 L46.38,19.5533333 L43.3733333,16.5466667 L42.9,17.02 Z M47.38,15.5466667 C46.5533333,14.72 45.2066667,14.72 44.3733333,15.5466667 L43.8466667,16.0733333 L46.8533333,19.08 L47.38,18.5533333 C48.2066667,17.72 48.2066667,16.3733333 47.38,15.5466667 L47.38,15.5466667 Z M44.04,22.0266667 L44.7333333,22.72 L45.6266667,20.6866667 L45.1333333,20.1933333 L44.04,22.0266667 Z M22,26.76 L5.18,43.58 L4.42666667,42.8266667 L21.2466667,26.0066667 L18.1866667,22.9466667 L18.66,22.4733333 L19.7266667,23.54 L21.4,21.8666667 L20.3333333,20.8 L20.8066667,20.3266667 L21.8733333,21.3933333 L23.5466667,19.72 L22.48,18.6533333 L22.9533333,18.18 L26.0133333,21.24 L42.8266667,4.42666667 L43.58,5.18 L26.7533333,22 L29.8133333,25.06 L29.34,25.5333333 L28.2733333,24.4666667 L26.6,26.14 L27.6666667,27.2066667 L27.1933333,27.68 L26.1266667,26.6133333 L24.4533333,28.2866667 L25.52,29.3533333 L25.0533333,29.82 L22,26.76 L22,26.76 Z M25.66,26.1333333 L24.14,24.6133333 L22.4666667,26.2866667 L23.9866667,27.8066667 L25.66,26.1333333 Z M24.6133333,24.1466667 L26.1333333,25.6666667 L27.8066667,23.9933333 L26.2866667,22.4733333 L24.6133333,24.1466667 Z M22.34,21.8733333 L23.86,23.3933333 L25.5333333,21.72 L24.0133333,20.2 L22.34,21.8733333 Z M21.7133333,25.5333333 L23.3866667,23.86 L21.8666667,22.3466667 L20.1933333,24.02 L21.7133333,25.5333333 Z M34.7533333,25.62 L36.52,25.94 L41.7666667,20.6933333 L40.8,19.7266667 L34.2,23.68 L34.3666667,25.2066667 C34.3866667,25.4133333 34.5466667,25.5866667 34.7533333,25.62 Z M32.6933333,23.3733333 L12.9533333,43.1066667 L13.4266667,43.58 L33.4,23.6066667 L32.6933333,23.3733333 Z M32.34,21.64 C32.1533333,21.72 32.0333333,21.9066667 32.04,22.1133333 C32.0466667,22.32 32.18,22.4933333 32.3733333,22.56 L33.8933333,23.08 L40.3066667,19.2466667 L39.5466667,18.4866667 L32.34,21.64 L32.34,21.64 Z M40.2066667,18.1933333 L40.9,18.8866667 L42.7333333,17.7933333 L42.24,17.3 L40.2066667,18.1933333 Z M37.7266667,28.56 L39.2533333,28.7266667 L43.2066667,22.1266667 L42.24,21.16 L36.9933333,26.4066667 L37.3133333,28.1733333 C37.34,28.38 37.5133333,28.54 37.7266667,28.56 L37.7266667,28.56 Z M41.3866667,19.3733333 L42.2333333,20.22 L43.6933333,18.76 L43.2133333,18.28 L41.3866667,19.3733333 Z M44.6466667,19.7066667 L44.1666667,19.2266667 L42.7066667,20.6866667 L43.5533333,21.5333333 L44.6466667,19.7066667 Z" id="形状" fill="url(#linearGradient-3)" mask="url(#mask-2)"></path>
        </g>
    </g>
</svg>