<?xml version="1.0" encoding="UTF-8"?>
<svg width="48px" height="48px" viewBox="0 0 48 48" version="1.1" xmlns="http://www.w3.org/2000/svg" xmlns:xlink="http://www.w3.org/1999/xlink">
    <title>CTR</title>
    <defs>
        <rect id="path-1" x="0" y="0" width="48" height="48"></rect>
        <linearGradient x1="0%" y1="50%" x2="100%" y2="50%" id="linearGradient-3">
            <stop stop-color="#A8B2DE" offset="0%"></stop>
            <stop stop-color="#7D84C2" offset="100%"></stop>
        </linearGradient>
    </defs>
    <g id="CTR" stroke="none" stroke-width="1" fill="none" fill-rule="evenodd">
        <g id="CTR_small">
            <mask id="mask-2" fill="white">
                <use xlink:href="#path-1"></use>
            </mask>
            <g id="矩形"></g>
            <path d="M29.2666667,41.44 C29.2666667,41.38 29.26,41.3133333 29.26,41.2466667 C29.26,40.9666667 29.2866667,40.6866667 29.3466667,40.42 L28.9866667,40.78 C23.1133333,46.66 13.6266667,46.78 7.6,41.1466667 L8.69333333,40.0533333 C14.1266667,45.0933333 22.62,44.9733333 27.9,39.6866667 L39.6733333,27.9066667 C44.96,22.62 45.08,14.1266667 40.04,8.68666667 L43.5533333,5.16666667 L42.8,4.41333333 L40.8533333,6.36666667 C34.6333333,0.54 24.8666667,0.6 18.72,6.55333333 C18.72,6.61333333 18.7266667,6.68 18.7266667,6.74666667 C18.7266667,7.02666667 18.7,7.30666667 18.64,7.57333333 L19,7.21333333 C24.8733333,1.33333333 34.36,1.21333333 40.3866667,6.84666667 L39.2933333,7.94 C33.86,2.9 25.3666667,3.02666667 20.08,8.31333333 L8.30666667,20.0866667 C3.02,25.3733333 2.9,33.8666667 7.94,39.3066667 L4.42666667,42.8266667 L5.18,43.58 L7.12666667,41.6266667 C13.3466667,47.4533333 23.12,47.3933333 29.2666667,41.44 L29.2666667,41.44 Z M9.06,20.84 L20.8333333,9.06 C25.7,4.19333333 33.5133333,4.06666667 38.5333333,8.69333333 L36.08,11.1466667 C36.2133333,11.2666667 36.34,11.3866667 36.4666667,11.5133333 C36.5933333,11.64 36.7133333,11.7733333 36.8333333,11.9 L39.2866667,9.44666667 C43.9066667,14.4666667 43.7866667,22.2866667 38.92,27.1533333 L27.1466667,38.9333333 C22.28,43.8 14.4666667,43.9266667 9.44666667,39.3 L11.9,36.8466667 C11.7666667,36.7266667 11.64,36.6066667 11.5133333,36.48 C11.3866667,36.3533333 11.2666667,36.22 11.1466667,36.0933333 L8.69333333,38.5466667 C4.07333333,33.5333333 4.19333333,25.7133333 9.06,20.84 Z M12.92,35.0733333 C13.0466667,35.2 13.18,35.32 13.3133333,35.4333333 L15.92,32.8266667 C17.3533333,33.9 19.3933333,33.78 20.7,32.48 L32.4666667,20.7066667 C33.7733333,19.4 33.8866667,17.36 32.8133333,15.9266667 L35.42,13.32 C35.3066667,13.1866667 35.1866667,13.0533333 35.06,12.9266667 C34.9333333,12.8 34.8,12.68 34.6666667,12.5666667 L32.0666667,15.1666667 C30.6333333,14.0933333 28.5933333,14.2133333 27.2866667,15.5133333 L15.5133333,27.2933333 C14.2066667,28.6 14.0933333,30.64 15.1666667,32.0733333 L12.56,34.68 C12.6733333,34.8133333 12.7933333,34.9466667 12.92,35.0733333 L12.92,35.0733333 Z M31.9933333,20.2333333 L20.2266667,32.0066667 C19.1866667,33.0466667 17.5666667,33.16 16.4,32.3466667 L32.34,16.4 C33.1533333,17.5733333 33.04,19.1933333 31.9933333,20.2333333 L31.9933333,20.2333333 Z M15.9866667,27.7666667 L27.7533333,15.9933333 C28.7933333,14.9533333 30.4133333,14.84 31.58,15.6533333 L15.6466667,31.5933333 C14.8333333,30.4266667 14.9466667,28.8066667 15.9866667,27.7666667 L15.9866667,27.7666667 Z M24.2266667,36.0133333 L36,24.2333333 C39.3733333,20.8533333 39.3733333,15.36 36,11.98 C32.6266667,8.6 27.1333333,8.6 23.7533333,11.98 L11.98,23.7666667 C8.60666667,27.1466667 8.60666667,32.64 11.98,36.02 C15.36,39.3933333 20.8533333,39.3933333 24.2266667,36.02 L24.2266667,36.0133333 Z M12.4533333,24.2333333 L24.2266667,12.4533333 C27.34,9.33333333 32.4133333,9.33333333 35.5266667,12.4533333 C38.64,15.5733333 38.64,20.6466667 35.5266667,23.76 L23.7533333,35.5466667 C20.64,38.6666667 15.5666667,38.6666667 12.4533333,35.5466667 C9.33333333,32.4266667 9.33333333,27.3533333 12.4533333,24.2333333 Z M6.32666667,18.48 C4.44666667,18.48 2.92666667,16.96 2.92666667,15.08 C2.92666667,13.2 3.58,12.7733333 4.55333333,12.18 L6.02666667,15.2266667 L6.62666667,14.9333333 L5.15333333,11.8866667 C5.52,11.7533333 5.91333333,11.68 6.32666667,11.68 C8.20666667,11.68 9.72666667,13.2 9.72666667,15.08 C9.72666667,16.96 8.20666667,18.48 6.32666667,18.48 L6.32666667,18.48 Z M11.2666667,7.08 C11.2533333,6.97333333 11.2533333,6.86 11.2533333,6.75333333 C11.2533333,4.87333333 12.7733333,3.35333333 14.6533333,3.35333333 C16.5333333,3.35333333 18.0533333,4.87333333 18.0533333,6.75333333 C18.0533333,8.63333333 16.5333333,10.1533333 14.6533333,10.1533333 C12.7733333,10.1533333 11.82,9.13333333 11.4,7.73333333 L14.72,7.08 L14.5933333,6.42666667 L11.2666667,7.08 L11.2666667,7.08 Z M4.26,11.5733333 L10.4933333,10.2266667 L11.2933333,11.6533333 L11.8733333,11.3266667 L7.87333333,4.17333333 C8.27333333,3.94 8.48,3.47333333 8.39333333,3.01333333 L8.35333333,2.80666667 C8.33333333,2.69333333 8.24666667,2.60666667 8.14,2.57333333 C8.03333333,2.54 7.91333333,2.57333333 7.83333333,2.65333333 L6.21333333,4.27333333 C6.08,4.40666667 6.08,4.62 6.21333333,4.75333333 C6.34666667,4.88666667 6.36666667,4.85333333 6.45333333,4.85333333 C6.54,4.85333333 6.55333333,4.84 6.60666667,4.82 L7.28666667,4.48 L8.51333333,6.66666667 L4.55333333,10.6266667 L3.98666667,9.45333333 C3.89333333,9.26666667 3.71333333,9.13333333 3.50666667,9.1 C3.3,9.06666667 3.08666667,9.13333333 2.94,9.28 L1.54,10.6666667 L2.01333333,11.14 L3.4,9.76666667 L4.26,11.5733333 Z M8.84,7.26666667 L10.1533333,9.62 L5.48,10.6266667 L8.84,7.26666667 Z M41.6533333,29.5133333 C43.5333333,29.5133333 45.0533333,31.0333333 45.0533333,32.9133333 C45.0533333,34.7933333 44.4,35.22 43.4266667,35.8133333 L41.9533333,32.7666667 L41.3533333,33.06 L42.8266667,36.1066667 C42.46,36.24 42.0666667,36.3133333 41.6533333,36.3133333 C39.7733333,36.3133333 38.2533333,34.7933333 38.2533333,32.9133333 C38.2533333,31.0333333 39.78,29.5133333 41.6533333,29.5133333 L41.6533333,29.5133333 Z M36.72,40.9133333 C36.7333333,41.02 36.7333333,41.1333333 36.7333333,41.24 C36.7333333,43.12 35.2133333,44.64 33.3333333,44.64 C31.4533333,44.64 29.9333333,43.12 29.9333333,41.24 C29.9333333,39.36 31.4533333,37.84 33.3333333,37.84 C35.2133333,37.84 36.1666667,38.86 36.5866667,40.26 L33.2666667,40.9133333 L33.3933333,41.5666667 L36.72,40.9133333 L36.72,40.9133333 Z M45.9866667,36.8533333 L44.6,38.2266667 L43.72,36.42 L37.4866667,37.7666667 L36.6866667,36.34 L36.1066667,36.6666667 L40.1066667,43.82 C39.7066667,44.0533333 39.5,44.52 39.5866667,44.98 L39.6266667,45.1866667 C39.6466667,45.3 39.7333333,45.3866667 39.84,45.42 C39.9466667,45.4533333 40.0666667,45.42 40.1466667,45.34 L41.7666667,43.72 C41.9,43.5866667 41.9,43.3733333 41.7666667,43.24 C41.6333333,43.1066667 41.6133333,43.14 41.5266667,43.14 C41.44,43.14 41.4266667,43.1533333 41.3733333,43.1733333 L40.6933333,43.5133333 L39.48,41.3333333 L43.44,37.3733333 L44.0066667,38.5466667 C44.1,38.7333333 44.28,38.8666667 44.4866667,38.9 C44.6933333,38.9333333 44.9066667,38.8666667 45.0533333,38.72 L46.4533333,37.3333333 L45.9866667,36.8533333 L45.9866667,36.8533333 Z M39.1466667,40.7266667 L37.8333333,38.3733333 L42.5066667,37.3666667 L39.1466667,40.7266667 Z M18.32,4.98 C18.22,4.78 18.1066667,4.58666667 17.9733333,4.4 C22.38,0.593333333 28.1933333,-0.746666667 33.5933333,0.393333333 L33.34,1.02 C28.1333333,-0.04 22.54,1.28 18.32,4.98 L18.32,4.98 Z M29.6666667,43.02 C29.7666667,43.22 29.88,43.4133333 30.0133333,43.6 C25.6066667,47.4066667 19.7933333,48.74 14.3933333,47.6066667 L14.6466667,46.98 C19.8466667,48.04 25.44,46.72 29.6666667,43.02 L29.6666667,43.02 Z" id="形状" fill="url(#linearGradient-3)" mask="url(#mask-2)"></path>
        </g>
    </g>
</svg>