<?xml version="1.0" encoding="UTF-8"?>
<svg width="48px" height="48px" viewBox="0 0 48 48" version="1.1" xmlns="http://www.w3.org/2000/svg" xmlns:xlink="http://www.w3.org/1999/xlink">
    <title>DIV</title>
    <defs>
        <rect id="path-1" x="0" y="0" width="48" height="48"></rect>
        <linearGradient x1="0%" y1="50%" x2="100%" y2="50%" id="linearGradient-3">
            <stop stop-color="#A8B2DE" offset="0%"></stop>
            <stop stop-color="#7D84C2" offset="100%"></stop>
        </linearGradient>
    </defs>
    <g id="DIV" stroke="none" stroke-width="1" fill="none" fill-rule="evenodd">
        <g id="DIV_small">
            <mask id="mask-2" fill="white">
                <use xlink:href="#path-1"></use>
            </mask>
            <g id="矩形"></g>
            <path d="M45.4666667,18.7333333 C46.0866667,18.3866667 46.7266667,18.0266667 48,18.0266667 L48,18.6933333 C46.9,18.6933333 46.3666667,18.9933333 45.7933333,19.32 C45.1733333,19.6666667 44.5333333,20.0266667 43.26,20.0266667 C41.9866667,20.0266667 41.3466667,19.6666667 40.7266667,19.32 C40.1533333,19 39.62,18.6933333 38.52,18.6933333 C37.42,18.6933333 36.8866667,18.9933333 36.3133333,19.32 C35.6933333,19.6666667 35.0533333,20.0266667 33.78,20.0266667 C32.5066667,20.0266667 31.8666667,19.6666667 31.2466667,19.32 C31.06,19.2133333 30.88,19.1133333 30.68,19.02 L31.18,18.52 C31.32,18.5933333 31.4466667,18.6666667 31.5733333,18.7333333 C32.1466667,19.0533333 32.68,19.36 33.78,19.36 C34.88,19.36 35.4133333,19.06 35.9866667,18.7333333 C36.6066667,18.3866667 37.2466667,18.0266667 38.52,18.0266667 C39.7933333,18.0266667 40.4333333,18.3866667 41.0533333,18.7333333 C41.6266667,19.0533333 42.16,19.36 43.26,19.36 C44.36,19.3533333 44.9,19.0533333 45.4666667,18.7333333 L45.4666667,18.7333333 Z M43.26,16.64 C42.16,16.64 41.6266667,16.34 41.0533333,16.0133333 C40.4333333,15.6666667 39.7933333,15.3066667 38.52,15.3066667 C37.2466667,15.3066667 36.6066667,15.6666667 35.9866667,16.0133333 C35.4133333,16.3333333 34.88,16.64 33.78,16.64 C32.68,16.64 33.3,16.6266667 33.1,16.5933333 L32.5333333,17.16 C32.8733333,17.2466667 33.28,17.3066667 33.78,17.3066667 C35.0533333,17.3066667 35.6933333,16.9466667 36.3133333,16.6 C36.8866667,16.28 37.42,15.9733333 38.52,15.9733333 C39.62,15.9733333 40.1533333,16.2733333 40.7266667,16.6 C41.3466667,16.9466667 41.9866667,17.3066667 43.26,17.3066667 C44.5333333,17.3066667 45.1733333,16.9466667 45.7933333,16.6 C46.3666667,16.28 46.9,15.9733333 48,15.9733333 L48,15.3066667 C46.7266667,15.3066667 46.0866667,15.6666667 45.4666667,16.0133333 C44.9,16.34 44.36,16.64 43.26,16.64 L43.26,16.64 Z M45.4666667,10.5866667 C44.8933333,10.9066667 44.36,11.2133333 43.26,11.2133333 C42.16,11.2133333 41.6266667,10.9133333 41.0533333,10.5866667 C40.66,10.3666667 40.26,10.14 39.6933333,10.0066667 L39.12,10.58 C39.84,10.6666667 40.2733333,10.9133333 40.7333333,11.1666667 C41.3533333,11.5133333 41.9933333,11.8733333 43.2666667,11.8733333 C44.54,11.8733333 45.18,11.5133333 45.8,11.1666667 C46.3733333,10.8466667 46.9066667,10.54 48.0066667,10.54 L48.0066667,9.87333333 C46.7266667,9.87333333 46.0866667,10.24 45.4666667,10.5866667 Z M43.26,13.9266667 C42.16,13.9266667 41.6266667,13.6266667 41.0533333,13.3 C40.4333333,12.9533333 39.7933333,12.5933333 38.52,12.5933333 C37.2466667,12.5933333 37.24,12.72 36.8,12.8933333 L35.3466667,14.3466667 C35.72,14.2133333 36.02,14.0466667 36.3133333,13.88 C36.8866667,13.56 37.42,13.2533333 38.52,13.2533333 C39.62,13.2533333 40.1533333,13.5533333 40.7266667,13.88 C41.3466667,14.2266667 41.9866667,14.5866667 43.26,14.5866667 C44.5333333,14.5866667 45.1733333,14.2266667 45.7933333,13.88 C46.3666667,13.56 46.9,13.2533333 48,13.2533333 L48,12.5866667 C46.7266667,12.5866667 46.0866667,12.9466667 45.4666667,13.2933333 C44.9,13.6266667 44.36,13.9266667 43.26,13.9266667 L43.26,13.9266667 Z M32.4133333,1.98 L32.4133333,5.86666667 L31.48,5.86666667 C29.7133333,5.86666667 28.1933333,6.52666667 27.0933333,7.77333333 C25.7866667,9.24666667 25.1266667,11.4466667 25.1266667,14.3133333 L25.1266667,18.1466667 L28.1533333,18.1466667 L27.4866667,18.8133333 L25.1266667,18.8133333 L25.1266667,21.1733333 L24.46,21.84 L24.46,14.3066667 C24.46,11.2733333 25.18,8.92 26.5933333,7.32 C27.3933333,6.41333333 28.3933333,5.78666667 29.54,5.46 L12.3733333,5.46 C18.7333333,6.72666667 23.54,12.3466667 23.54,19.0733333 L23.54,22.7533333 L22.8733333,23.42 L22.8733333,18.8133333 L15.98,18.8133333 C18.8466667,19.4533333 20.9066667,21.24 22.14,24.16 L21.6266667,24.6733333 C20.1866667,21.0466667 17.4266667,19.2133333 13.42,19.2133333 L11.24,19.2133333 L9.73333333,17.16 L2.60208521e-18,17.16 L2.60208521e-18,16.0933333 L21.5333333,16.0933333 L21.5333333,18.1466667 L22.84,18.1466667 C22.36,11.2933333 16.6333333,5.86666667 9.66,5.86666667 L2.60208521e-18,5.86666667 L2.60208521e-18,4.8 L17.34,4.8 L14.06,1.50666667 C13.8066667,1.24666667 13.7333333,0.88 13.8733333,0.546666667 C14.0133333,0.213333333 14.3266667,0 14.6866667,0 L30.44,0 C31.5266667,0 32.4133333,0.886666667 32.4133333,1.98 Z M12.7866667,17.16 L10.5533333,17.16 L11.28,18.1466667 L12.06,18.1466667 L12.7866667,17.16 Z M19.54,17.16 L13.6133333,17.16 L12.8866667,18.1466667 L18.8133333,18.1466667 L19.54,17.16 Z M20.8666667,17.16 L20.3666667,17.16 L19.64,18.1466667 L20.8666667,18.1466667 L20.8666667,17.16 Z M23.96,2.4 L27.7466667,2.4 L27.7466667,0.666666667 L23.96,0.666666667 L23.96,2.4 Z M18.8466667,3.06666667 L16.56,3.06666667 L18.2866667,4.8 L18.8466667,4.8 L18.8466667,3.06666667 L18.8466667,3.06666667 L18.8466667,3.06666667 Z M18.8466667,0.666666667 L14.6866667,0.666666667 C14.56,0.666666667 14.5066667,0.76 14.4866667,0.8 C14.4733333,0.84 14.44,0.94 14.5333333,1.03333333 L15.8933333,2.4 L18.8466667,2.4 L18.8466667,0.666666667 L18.8466667,0.666666667 Z M23.2933333,3.06666667 L19.5066667,3.06666667 L19.5066667,4.8 L23.2933333,4.8 L23.2933333,3.06666667 Z M23.2933333,0.666666667 L19.5066667,0.666666667 L19.5066667,2.4 L23.2933333,2.4 L23.2933333,0.666666667 Z M23.96,4.8 L27.7466667,4.8 L27.7466667,3.06666667 L23.96,3.06666667 L23.96,4.8 Z M31.7466667,3.06666667 L28.4133333,3.06666667 L28.4133333,4.8 L31.7466667,4.8 L31.7466667,3.06666667 Z M31.7466667,1.98 C31.7466667,1.26 31.16,0.666666667 30.4333333,0.666666667 L28.4133333,0.666666667 L28.4133333,2.4 L31.7466667,2.4 L31.7466667,1.98 Z M4.74,28.6466667 C5.84,28.6466667 6.37333333,28.9466667 6.94666667,29.2733333 C7.56666667,29.62 8.20666667,29.98 9.48,29.98 C10.7533333,29.98 11.3933333,29.62 12.0133333,29.2733333 C12.5866667,28.9533333 13.12,28.6466667 14.22,28.6466667 C15.32,28.6466667 15.8533333,28.9466667 16.4266667,29.2733333 C16.5533333,29.3466667 16.6866667,29.42 16.82,29.4866667 L17.32,28.9866667 C17.12,28.8933333 16.94,28.7933333 16.7533333,28.6866667 C16.1333333,28.34 15.4933333,27.98 14.22,27.98 C12.9466667,27.98 12.3066667,28.34 11.6866667,28.6866667 C11.1133333,29.0066667 10.58,29.3133333 9.48,29.3133333 C8.38,29.3133333 7.84666667,29.0133333 7.27333333,28.6866667 C6.65333333,28.34 6.01333333,27.98 4.74,27.98 C3.46666667,27.98 2.82666667,28.34 2.20666667,28.6866667 C1.63333333,29.0066667 1.1,29.3133333 2.60208521e-18,29.3133333 L2.60208521e-18,29.98 C1.27333333,29.98 1.91333333,29.62 2.53333333,29.2733333 C3.1,28.9466667 3.64,28.6466667 4.74,28.6466667 Z M4.74,31.36 C5.84,31.36 6.37333333,31.66 6.94666667,31.9866667 C7.56666667,32.3333333 8.20666667,32.6933333 9.48,32.6933333 C10.7533333,32.6933333 11.3933333,32.3333333 12.0133333,31.9866667 C12.5866667,31.6666667 13.12,31.36 14.22,31.36 C15.32,31.36 14.7,31.3733333 14.9,31.4066667 L15.4666667,30.84 C15.1266667,30.7533333 14.72,30.6933333 14.22,30.6933333 C12.9466667,30.6933333 12.3066667,31.0533333 11.6866667,31.4 C11.1133333,31.72 10.58,32.0266667 9.48,32.0266667 C8.38,32.0266667 7.84666667,31.7266667 7.27333333,31.4 C6.65333333,31.0533333 6.01333333,30.6933333 4.74,30.6933333 C3.46666667,30.6933333 2.82666667,31.0533333 2.20666667,31.4 C1.63333333,31.72 1.1,32.0266667 2.60208521e-18,32.0266667 L2.60208521e-18,32.6933333 C1.27333333,32.6933333 1.91333333,32.3333333 2.53333333,31.9866667 C3.1,31.66 3.64,31.36 4.74,31.36 Z M4.74,34.0733333 C5.84,34.0733333 6.37333333,34.3733333 6.94666667,34.7 C7.56666667,35.0466667 8.20666667,35.4066667 9.48,35.4066667 C10.7533333,35.4066667 10.76,35.28 11.2,35.1066667 L12.6533333,33.6533333 C12.28,33.7866667 11.98,33.9533333 11.6866667,34.12 C11.1133333,34.44 10.58,34.7466667 9.48,34.7466667 C8.38,34.7466667 7.84666667,34.4466667 7.27333333,34.12 C6.65333333,33.7733333 6.01333333,33.4133333 4.74,33.4133333 C3.46666667,33.4133333 2.82666667,33.7733333 2.20666667,34.12 C1.63333333,34.44 1.1,34.7466667 2.60208521e-18,34.7466667 L2.60208521e-18,35.4133333 C1.27333333,35.4133333 1.91333333,35.0533333 2.53333333,34.7066667 C3.1,34.3733333 3.64,34.0733333 4.74,34.0733333 Z M6.94666667,37.4133333 C7.34,37.6333333 7.74,37.86 8.30666667,37.9933333 L8.88,37.42 C8.16,37.3333333 7.72666667,37.0866667 7.26666667,36.8333333 C6.64666667,36.4866667 6.00666667,36.1266667 4.73333333,36.1266667 C3.46,36.1266667 2.82,36.4866667 2.2,36.8333333 C1.62666667,37.1533333 1.09333333,37.46 -0.00666666667,37.46 L-0.00666666667,38.1266667 C1.26666667,38.1266667 1.90666667,37.7666667 2.52666667,37.42 C3.1,37.1 3.63333333,36.7933333 4.73333333,36.7933333 C5.83333333,36.7933333 6.37333333,37.0933333 6.94666667,37.4133333 Z M26.4666667,29.8533333 L25.16,29.8533333 C25.64,36.7066667 31.3666667,42.1333333 38.34,42.1333333 L48,42.1333333 L48,43.2 L30.66,43.2 L33.94,46.4933333 C34.1933333,46.7533333 34.2666667,47.12 34.1266667,47.4533333 C33.9866667,47.7866667 33.6733333,48 33.3133333,48 L17.56,48 C16.4666667,48 15.58,47.1133333 15.58,46.02 L15.58,42.1333333 L16.5133333,42.1333333 C18.28,42.1333333 19.8,41.4733333 20.9,40.2266667 C22.2066667,38.7533333 22.8666667,36.5533333 22.8666667,33.6866667 L22.8666667,29.8533333 L19.84,29.8533333 L20.5066667,29.1866667 L22.8666667,29.1866667 L22.8666667,26.8266667 L23.5333333,26.16 L23.5333333,33.6933333 C23.5333333,36.7266667 22.8133333,39.08 21.4,40.68 C20.6,41.5866667 19.6,42.2133333 18.4533333,42.54 L35.6133333,42.54 C29.2533333,41.2733333 24.4466667,35.6533333 24.4466667,28.9266667 L24.4466667,25.2466667 L25.1133333,24.58 L25.1133333,29.1866667 L32.0066667,29.1866667 C29.14,28.5466667 27.08,26.76 25.8466667,23.84 L26.36,23.3266667 C27.8,26.9533333 30.56,28.7866667 34.5666667,28.7866667 L36.7466667,28.7866667 L38.2533333,30.84 L47.9866667,30.84 L47.9866667,31.9066667 L26.4666667,31.9066667 L26.4666667,29.8533333 L26.4666667,29.8533333 Z M16.2533333,44.9333333 L19.5866667,44.9333333 L19.5866667,43.2 L16.2533333,43.2 L16.2533333,44.9333333 Z M17.56,47.3333333 L19.58,47.3333333 L19.58,45.6 L16.2466667,45.6 L16.2466667,46.02 C16.2533333,46.7466667 16.84,47.3333333 17.56,47.3333333 Z M24.04,45.6 L20.2533333,45.6 L20.2533333,47.3333333 L24.04,47.3333333 L24.04,45.6 Z M24.04,43.2 L20.2533333,43.2 L20.2533333,44.9333333 L24.04,44.9333333 L24.04,43.2 Z M28.4866667,45.6 L24.7,45.6 L24.7,47.3333333 L28.4866667,47.3333333 L28.4866667,45.6 Z M28.4866667,43.2 L24.7,43.2 L24.7,44.9333333 L28.4866667,44.9333333 L28.4866667,43.2 Z M32.1066667,45.6 L29.1533333,45.6 L29.1533333,47.3333333 L33.3133333,47.3333333 C33.44,47.3333333 33.4933333,47.24 33.5133333,47.2 C33.5266667,47.16 33.56,47.06 33.4666667,46.9666667 L32.1066667,45.6 Z M29.72,43.2 L29.16,43.2 L29.16,44.9333333 L31.4466667,44.9333333 L29.72,43.2 L29.72,43.2 Z M35.2133333,30.84 L37.4466667,30.84 L36.72,29.8533333 L35.94,29.8533333 L35.2133333,30.84 Z M28.46,30.84 L34.3866667,30.84 L35.1133333,29.8533333 L29.1866667,29.8533333 L28.46,30.84 Z M27.1333333,30.84 L27.6333333,30.84 L28.36,29.8533333 L27.1333333,29.8533333 L27.1333333,30.84 Z M43.58,5.18 L42.8266667,4.42666667 L4.42666667,42.8266667 L5.18,43.58 L43.58,5.18 Z" id="形状" fill="url(#linearGradient-3)" mask="url(#mask-2)"></path>
        </g>
    </g>
</svg>