<?xml version="1.0" encoding="UTF-8"?>
<svg width="48px" height="48px" viewBox="0 0 48 48" version="1.1" xmlns="http://www.w3.org/2000/svg" xmlns:xlink="http://www.w3.org/1999/xlink">
    <title>FBL</title>
    <defs>
        <rect id="path-1" x="0" y="0" width="48" height="48"></rect>
        <linearGradient x1="0%" y1="50%" x2="100%" y2="50%" id="linearGradient-3">
            <stop stop-color="#A8B2DE" offset="0%"></stop>
            <stop stop-color="#7D84C2" offset="100%"></stop>
        </linearGradient>
    </defs>
    <g id="FBL" stroke="none" stroke-width="1" fill="none" fill-rule="evenodd">
        <g id="FBL_small">
            <mask id="mask-2" fill="white">
                <use xlink:href="#path-1"></use>
            </mask>
            <g id="矩形"></g>
            <path d="M8.68666667,6.96666667 L7.62,5.9 L40.3733333,5.9 L39.3066667,6.96666667 L24.3333333,6.96666667 L24.3333333,14.5133333 C24.1133333,14.5066667 23.8866667,14.5066667 23.6666667,14.5133333 L23.6666667,6.96666667 L8.68666667,6.96666667 Z M14.96,33.7666667 L5.18,43.5533333 L4.42,42.8 L9.90666667,37.3133333 L0,37.3133333 L0,10.64 L9.90666667,10.64 L4.42,5.15333333 L5.18,4.4 L14.9666667,14.1866667 L14.2133333,14.94 L10.98,11.7066667 L3.20666667,11.7066667 C2.99333333,12.7866667 2.14,13.6333333 1.06666667,13.8466667 L1.06666667,34.1133333 C2.14,34.3266667 2.99333333,35.1733333 3.20666667,36.2533333 L10.9733333,36.2533333 L14.2066667,33.02 L14.96,33.7666667 Z M1.06666667,13.16 C1.77333333,12.9733333 2.33333333,12.4133333 2.52,11.7066667 L1.06666667,11.7066667 L1.06666667,13.16 Z M2.52,36.2466667 C2.33333333,35.54 1.77333333,34.98 1.06666667,34.7933333 L1.06666667,36.2466667 L2.52,36.2466667 Z M48,37.3133333 L38.0933333,37.3133333 L43.58,42.8 L42.8266667,43.5533333 L33.04,33.7666667 L33.7933333,33.0133333 L37.0266667,36.2466667 L44.7933333,36.2466667 C45.0066667,35.1733333 45.86,34.32 46.9333333,34.1066667 L46.9333333,13.84 C45.86,13.6266667 45.0066667,12.78 44.7933333,11.7 L37.0266667,11.7 L33.7933333,14.9333333 L33.04,14.18 L42.82,4.4 L43.5733333,5.15333333 L38.0866667,10.64 L48,10.64 L48,37.3133333 Z M46.9333333,34.7933333 C46.2266667,34.98 45.6666667,35.54 45.48,36.2466667 L46.9333333,36.2466667 L46.9333333,34.7933333 Z M46.9333333,11.7066667 L45.48,11.7066667 C45.6666667,12.4133333 46.2266667,12.9733333 46.9333333,13.16 L46.9333333,11.7066667 Z M29.4666667,16.2466667 L32.3333333,16.2466667 L32.3333333,15.18 L27.5066667,15.18 C28.2066667,15.46 28.86,15.82 29.4666667,16.2466667 Z M24,32.78 C19.1466667,32.78 15.1933333,28.8333333 15.1933333,23.9733333 C15.1933333,19.1133333 19.1466667,15.1733333 24,15.1733333 C28.8533333,15.1733333 32.8066667,19.12 32.8066667,23.98 C32.8066667,28.84 28.8533333,32.78 24,32.78 L24,32.78 Z M31.7533333,23.5466667 L30.2333333,25.26 L30.2333333,28.3133333 L30.88,28.3133333 C31.6733333,27.06 32.1333333,25.5733333 32.1333333,23.98 L32.1333333,23.8733333 L31.7533333,23.5466667 Z M26.1666667,16.5066667 L28.0333333,18.16 L30.3466667,19.3666667 L30.3466667,18.8866667 C29.38,17.6866667 28.08,16.76 26.5866667,16.26 L26.1666667,16.5066667 Z M22.5266667,16.7866667 L20.6533333,18.4466667 L22.1133333,19.8333333 L25.88,19.8333333 L27.34,18.4466667 L25.4666667,16.7866667 L22.5266667,16.7866667 L22.5266667,16.7866667 Z M17.6533333,19.3666667 L19.9666667,18.16 L21.8533333,16.4866667 L21.4866667,16.24 C19.96,16.7333333 18.6333333,17.6666667 17.6466667,18.8933333 L17.6466667,19.3666667 L17.6533333,19.3666667 Z M17.7666667,25.26 L16.2466667,23.5466667 L15.8666667,23.8666667 L15.8666667,23.9733333 C15.8666667,25.5666667 16.3266667,27.0533333 17.12,28.3066667 L17.7666667,28.3066667 L17.7666667,25.26 L17.7666667,25.26 L17.7666667,25.26 Z M18.18,24.7266667 L20.6466667,23.5666667 L21.6066667,20.2666667 L20.1066667,18.8466667 L17.6,20.1533333 L16.66,23.0133333 L18.18,24.7266667 L18.18,24.7266667 Z M21.0866667,30.38 L23.6666667,29.1666667 L23.6666667,26.18 L20.8866667,24.1866667 L18.4266667,25.34 L18.4266667,28.4666667 L20.7733333,30.1466667 L21.0866667,30.38 Z M26.4866667,30.9133333 L24,29.7466667 L21.5133333,30.92 L22.0266667,31.8733333 C22.66,32.0333333 23.32,32.1133333 24,32.1133333 C24.68,32.1133333 25.34,32.0266667 25.9733333,31.8733333 L26.4866667,30.9133333 L26.4866667,30.9133333 Z M29.5666667,25.3466667 L27.1066667,24.1933333 L24.3333333,26.18 L24.3333333,29.1666667 L26.9133333,30.38 L27.8266667,29.7266667 L29.5666667,28.4733333 L29.5666667,25.3466667 L29.5666667,25.3466667 Z M29.82,24.7266667 L31.34,23.0066667 L30.4,20.1466667 L27.8933333,18.84 L26.3933333,20.2666667 L27.3533333,23.5666667 L29.82,24.7266667 L29.82,24.7266667 Z M46.2666667,17.92 L46.2666667,17.2533333 L42.4466667,17.2533333 L42.4466667,30.72 L46.2666667,30.72 L46.2666667,30.0533333 L43.1133333,30.0533333 L43.1133333,17.92 L46.2666667,17.92 Z M1.73333333,30.0333333 L1.73333333,30.7 L5.55333333,30.7 L5.55333333,17.2333333 L1.73333333,17.2333333 L1.73333333,17.9 L4.88666667,17.9 L4.88666667,30.0333333 L1.73333333,30.0333333 Z M24.3333333,40.9866667 L24.3333333,33.44 C24.1133333,33.4466667 23.8866667,33.4466667 23.6666667,33.44 L23.6666667,40.9866667 L8.68666667,40.9866667 L7.62,42.0533333 L40.3733333,42.0533333 L39.3066667,40.9866667 L24.3333333,40.9866667 Z M7.33333333,24.5066667 L14.5466667,24.5066667 C14.54,24.3333333 14.5333333,24.1533333 14.5333333,23.9733333 C14.5333333,23.7933333 14.54,23.6133333 14.5466667,23.44 L7.33333333,23.44 L7.33333333,24.5066667 Z M35.1133333,28.9466667 L32.0533333,28.9466667 C31.82,29.32 31.5666667,29.68 31.2866667,30.0133333 L35.1133333,30.0133333 L35.1133333,28.9466667 Z M32.3333333,31.7066667 L29.4666667,31.7066667 C28.86,32.1333333 28.2066667,32.4933333 27.5066667,32.7733333 L32.3333333,32.7733333 L32.3333333,31.7066667 Z M37.8866667,26.1933333 L33.2,26.1933333 C33.1133333,26.56 33.0066667,26.9133333 32.8733333,27.26 L37.88,27.26 L37.88,26.1933333 L37.88,26.1933333 L37.8866667,26.1933333 Z M18.5333333,31.7066667 L15.6666667,31.7066667 L15.6666667,32.7733333 L20.4933333,32.7733333 C19.7933333,32.4933333 19.14,32.1333333 18.5333333,31.7066667 Z M12.8866667,19 L15.94,19 C16.1733333,18.6266667 16.4266667,18.2666667 16.7066667,17.9333333 L12.8866667,17.9333333 L12.8866667,19 Z M40.6666667,23.44 L33.4533333,23.44 C33.46,23.6133333 33.4666667,23.7933333 33.4666667,23.9733333 C33.4666667,24.1533333 33.46,24.3333333 33.4533333,24.5066667 L40.6666667,24.5066667 L40.6666667,23.44 Z M33.2066667,21.7533333 L37.8933333,21.7533333 L37.8933333,20.6866667 L32.8866667,20.6866667 C33.0066667,21.0333333 33.12,21.3933333 33.2066667,21.7533333 L33.2066667,21.7533333 Z M10.1133333,21.7533333 L14.8,21.7533333 C14.8866667,21.3866667 14.9933333,21.0333333 15.1266667,20.6866667 L10.12,20.6866667 L10.12,21.7533333 L10.12,21.7533333 L10.1133333,21.7533333 Z M15.9466667,28.9466667 L12.8933333,28.9466667 L12.8933333,30.0133333 L16.7133333,30.0133333 C16.4333333,29.68 16.18,29.3266667 15.9466667,28.9466667 Z M20.4933333,15.18 L15.6666667,15.18 L15.6666667,16.2466667 L18.5333333,16.2466667 C19.14,15.82 19.7933333,15.46 20.4933333,15.18 Z M14.7933333,26.1933333 L10.1066667,26.1933333 L10.1066667,27.26 L15.1133333,27.26 C14.9933333,26.9133333 14.88,26.56 14.7933333,26.1933333 Z M32.0533333,19 L35.1133333,19 L35.1133333,17.9333333 L31.2866667,17.9333333 C31.5666667,18.2733333 31.82,18.6266667 32.0533333,19 L32.0533333,19 Z" id="形状" fill="url(#linearGradient-3)" mask="url(#mask-2)"></path>
        </g>
    </g>
</svg>