<?xml version="1.0" encoding="UTF-8"?>
<svg width="48px" height="48px" viewBox="0 0 48 48" version="1.1" xmlns="http://www.w3.org/2000/svg" xmlns:xlink="http://www.w3.org/1999/xlink">
    <title>GRY</title>
    <defs>
        <rect id="path-1" x="0" y="0" width="48" height="48"></rect>
        <linearGradient x1="0%" y1="50%" x2="100%" y2="50%" id="linearGradient-3">
            <stop stop-color="#A8B2DE" offset="0%"></stop>
            <stop stop-color="#7D84C2" offset="100%"></stop>
        </linearGradient>
    </defs>
    <g id="GRY" stroke="none" stroke-width="1" fill="none" fill-rule="evenodd">
        <g id="GRY_small">
            <mask id="mask-2" fill="white">
                <use xlink:href="#path-1"></use>
            </mask>
            <g id="矩形"></g>
            <path d="M9.66666667,27.5266667 C9.66666667,30.1933333 7.5,32.36 4.83333333,32.36 C2.16666667,32.36 0,30.2 0,27.5266667 C0,24.8533333 2.16666667,22.6933333 4.83333333,22.6933333 C7.5,22.6933333 9.66666667,24.86 9.66666667,27.5266667 Z M43.1666667,25.3066667 C45.8333333,25.3066667 48,23.14 48,20.4733333 C48,17.8066667 45.8333333,15.64 43.1666667,15.64 C40.5,15.64 38.3333333,17.8 38.3333333,20.4733333 C38.3333333,23.1466667 40.5,25.3066667 43.1666667,25.3066667 Z M16.06,6.51333333 C16.1066667,6.55333333 16.1533333,6.59333333 16.2,6.63333333 C16.2466667,6.68 16.2933333,6.72 16.34,6.76666667 C16.42,6.84666667 16.5,6.92666667 16.58,7.00666667 C18.9066667,6 21.44,5.46666667 24,5.46666667 C28.2333333,5.46666667 32.3666667,6.92666667 35.6533333,9.58666667 C35.76,9.67333333 35.8733333,9.76666667 35.98,9.86 L36.4533333,9.38666667 C36.3266667,9.28 36.2,9.17333333 36.0733333,9.07333333 C32.6733333,6.32 28.3866667,4.80666667 24.0066667,4.80666667 C21.26,4.8 18.54,5.39333333 16.06,6.51333333 L16.06,6.51333333 Z M41.1466667,15.36 C40.46,14 39.6066667,12.72 38.62,11.5533333 L38.1466667,12.0266667 C39.0866667,13.1333333 39.8933333,14.3466667 40.5466667,15.64 C40.7333333,15.5333333 40.94,15.44 41.1466667,15.36 L41.1466667,15.36 Z M28.72,18.0533333 L38.5,8.27333333 C39.0666667,7.70666667 39.4466667,6.91333333 39.8133333,6.14666667 C39.8933333,5.98 39.9733333,5.82 40.0533333,5.66 C40.94,3.88 41.68,3.02666667 43.2133333,2.00666667 L44.4533333,1.18666667 L46.8133333,3.54666667 L45.9933333,4.78666667 C44.98,6.32 44.1266667,7.06 42.34,7.94666667 C42.18,8.02666667 42.0133333,8.10666667 41.8533333,8.18666667 C41.0866667,8.55333333 40.3,8.93333333 39.7266667,9.5 L29.9466667,19.28 C29.96,19.36 29.9666667,19.44 29.9666667,19.52 C29.9666667,20.34 29.3,21.0066667 28.48,21.0066667 C27.66,21.0066667 26.9933333,20.34 26.9933333,19.52 C26.9933333,18.7 27.66,18.0333333 28.48,18.0333333 C28.56,18.0333333 28.64,18.0333333 28.72,18.0533333 L28.72,18.0533333 Z M37.9333333,10.3466667 L39.2533333,9.02666667 C39.9066667,8.38 40.7466667,7.97333333 41.56,7.58 C41.72,7.5 41.88,7.42666667 42.04,7.34666667 C43.72,6.51333333 44.48,5.85333333 45.4333333,4.41333333 L45.9533333,3.63333333 L44.3666667,2.04666667 L43.5866667,2.56666667 C42.1466667,3.52 41.4933333,4.28 40.6533333,5.96 C40.5733333,6.12 40.5,6.28 40.42,6.44 C40.0266667,7.25333333 39.6266667,8.09333333 38.98,8.74666667 L37.9333333,9.78666667 L37.9333333,10.3466667 L37.9333333,10.3466667 L37.9333333,10.3466667 Z M35.8066667,12.4733333 L37.3266667,10.9533333 L37.3266667,10.3866667 L35.8066667,11.9066667 L35.8066667,12.4733333 Z M33.6866667,14.5933333 L35.2066667,13.0733333 L35.2066667,12.5066667 L33.6866667,14.0266667 L33.6866667,14.5933333 Z M28.7266667,18.74 C28.6466667,18.7133333 28.5666667,18.7 28.48,18.7 C28.0266667,18.7 27.66,19.0666667 27.66,19.52 C27.66,19.9733333 28.0266667,20.34 28.48,20.34 C28.9333333,20.34 29.3,19.9733333 29.3,19.52 C29.3,19.0666667 29.2866667,19.3533333 29.26,19.2733333 L29.2,19.08 L33.08,15.2 L33.08,14.6333333 L28.92,18.8 L28.7266667,18.74 L28.7266667,18.74 Z M12.4866667,2.08 C13.8266667,1.34 14.64,1.08666667 15.0933333,1.03333333 C15.16,0.66 15.1666667,0.306666667 15.0666667,0.106666667 C15.04,0.06 15.0066667,0 14.8666667,0 C14.7266667,0 14.7666667,0.00666666667 14.7,0.02 C13.82,0.193333333 12.8066667,0.693333333 11.9666667,1.15333333 C3.7,5.91333333 -0.86,15.14 0.146666667,24.6333333 C0.413333333,24.2 0.74,23.8 1.12,23.46 C0.593333333,14.76 4.91333333,6.44666667 12.4866667,2.08 Z M7.49333333,10.3533333 C7.65333333,10.0866667 7.92666667,9.74666667 8.37333333,9.34666667 C9.14,8.66 10.0933333,8.07333333 11.0466667,7.69333333 C11.0733333,7.66 11.1066667,7.63333333 11.1333333,7.6 C11.5266667,7.16666667 11.9133333,6.71333333 12.28,6.24666667 C10.58,6.52 8.83333333,7.5 7.66,8.55333333 C7.18,8.98666667 6.82,9.40666667 6.58,9.81333333 C6.51333333,9.93333333 6.44666667,10.1533333 6.53333333,10.24 C6.68666667,10.3866667 7.14666667,10.4 7.49333333,10.3533333 Z M8.45333333,18.7866667 C8.56666667,18.9066667 8.69333333,19 8.83333333,19.0733333 C8.71333333,18.12 9.6,16.4733333 11.2866667,14.5933333 C12.5666667,13.1733333 14.14,11.7933333 15.7266667,10.6733333 C15.6933333,10.2733333 15.6,9.90666667 15.4533333,9.56666667 C13.6866667,10.7666667 11.9133333,12.3 10.4933333,13.8733333 C9.42,15.0666667 8.65333333,16.1533333 8.20666667,17.1066667 L8.20666667,17.1066667 C7.96,17.7333333 8.04666667,18.3533333 8.44666667,18.7866667 L8.45333333,18.7866667 Z M17.8466667,19.8 L17.98,19.6666667 L27.32,29 L27.7933333,28.5266667 L18.4533333,19.1866667 L18.6,19.04 L17.3333333,17.78 C18,17.12 19.3933333,15.6933333 20.6733333,14.1066667 C23.1866667,10.9933333 23.9,8.93333333 22.8666667,7.81333333 C22.8533333,7.8 22.84,7.78666667 22.8266667,7.77333333 C21.78,6.86666667 19.9533333,7.06 17.52,8.32666667 C17.68,8.64666667 17.8133333,8.98 17.9133333,9.32666667 C19.8733333,8.28666667 21.42,8 22.1066667,8.55333333 C22.3266667,8.82 22.6933333,9.9 19.8533333,13.4266667 C18.1733333,15.5133333 16.2266667,17.3666667 16.2066667,17.3866667 C16.1,17.4866667 16.04,17.62 16.04,17.7666667 C16.04,17.9133333 16.0933333,18.0466667 16.2,18.1533333 L17.8466667,19.8 L17.8466667,19.8 Z M14.5133333,17.8733333 C15.8733333,16.28 16.8466667,14.4733333 17.26,12.7733333 C17.8066667,10.52 17.3266667,8.6 15.88,7.23333333 C15.6266667,6.97333333 15.34,6.76 15.02,6.6 C14.9066667,6.75333333 14.7933333,6.91333333 14.6733333,7.08 C14.5733333,7.21333333 14.4733333,7.34 14.3733333,7.48 C14.6533333,7.60666667 14.9066667,7.77333333 15.1266667,7.99333333 C15.1333333,7.99333333 15.14,8.00666667 15.14,8.00666667 C16.3133333,9.11333333 16.68,10.6333333 16.2266667,12.5266667 C15.4333333,15.8266667 12.3133333,19.2 10.2666667,19.7933333 C10.0466667,19.86 9.73333333,19.92 9.51333333,19.92 C9.29333333,19.92 9.12666667,19.8933333 8.94,19.84 C8.57333333,19.74 8.23333333,19.5333333 7.96666667,19.24 C7.88,19.1466667 7.80666667,19.0533333 7.74666667,18.9466667 C7.74666667,19.54 7.96,20.0333333 8.37333333,20.42 C8.64,20.68 9.07333333,20.94 9.72,20.94 C10.3666667,20.94 10.2466667,20.9 10.56,20.8133333 C11.7733333,20.46 13.22,19.3866667 14.5133333,17.8733333 L14.5133333,17.8733333 Z M13.94,5.10666667 C13.74,5.40666667 13.52,5.72 13.28,6.04 C12.5933333,6.96 11.86,7.82666667 11.14,8.56666667 C10.6666667,9.05333333 10.2,9.48666667 9.75333333,9.85333333 C9.12666667,10.3666667 8.56,10.7133333 8.12,10.88 C8.08666667,10.8933333 8.02,10.92 7.94,10.94 C7.7,11.0066667 7.38666667,11.04 7.10666667,11.04 C6.82666667,11.04 6.49333333,10.9933333 6.25333333,10.8466667 C6.25333333,11.1266667 6.33333333,11.3733333 6.51333333,11.5866667 C6.51333333,11.6 6.53333333,11.6066667 6.54666667,11.62 C7.1,12.1866667 8.22666667,12.48 10.4333333,10.68 C11.1333333,10.1066667 11.88,9.38 12.6066667,8.56666667 C13.5733333,7.48666667 14.4933333,6.27333333 15.22,5.10666667 C16.22,3.51333333 17.16,1.53333333 16.48,0.52 C16.2933333,0.246666667 16.04,0.0866666667 15.74,0.0133333333 C15.8866667,0.506666667 15.7866667,1.24666667 15.58,1.88666667 L15.58,1.88666667 C15.4266667,2.51333333 15,3.48666667 14.1266667,4.83333333 C14.06,4.92 14,5.01333333 13.94,5.10666667 Z M31.94,41.4866667 C31.8933333,41.4466667 31.8466667,41.4066667 31.8,41.3666667 C31.7533333,41.32 31.7066667,41.28 31.66,41.2333333 C31.58,41.1533333 31.5,41.0733333 31.42,40.9933333 C29.0933333,42 26.56,42.5333333 24,42.5333333 C19.7666667,42.5333333 15.6333333,41.0733333 12.3466667,38.4133333 C12.24,38.3266667 12.1266667,38.2333333 12.02,38.14 L11.5466667,38.6133333 C11.6733333,38.72 11.8,38.8266667 11.9266667,38.9266667 C15.3266667,41.68 19.6133333,43.1933333 23.9933333,43.1933333 C26.74,43.1933333 29.46,42.6066667 31.94,41.4866667 L31.94,41.4866667 Z M6.85333333,32.64 C7.54,34 8.39333333,35.28 9.38,36.4466667 L9.85333333,35.9733333 C8.91333333,34.8666667 8.10666667,33.6533333 7.45333333,32.36 C7.26666667,32.4666667 7.06,32.56 6.85333333,32.64 L6.85333333,32.64 Z M19.28,29.9466667 L9.5,39.7266667 C8.93333333,40.2933333 8.55333333,41.0866667 8.18666667,41.8533333 C8.10666667,42.02 8.02666667,42.18 7.94666667,42.34 C7.06,44.12 6.32,44.9733333 4.78666667,45.9933333 L3.54666667,46.8133333 L1.18666667,44.4533333 L2.00666667,43.2133333 C3.02,41.68 3.87333333,40.94 5.66,40.0533333 C5.82,39.9733333 5.98666667,39.8933333 6.14666667,39.8133333 C6.91333333,39.4466667 7.7,39.0666667 8.27333333,38.5 L18.0533333,28.72 C18.04,28.64 18.0333333,28.56 18.0333333,28.48 C18.0333333,27.66 18.7,26.9933333 19.52,26.9933333 C20.34,26.9933333 21.0066667,27.66 21.0066667,28.48 C21.0066667,29.3 20.34,29.9666667 19.52,29.9666667 C19.44,29.9666667 19.36,29.9666667 19.28,29.9466667 L19.28,29.9466667 Z M10.0666667,37.6533333 L8.74666667,38.9733333 C8.09333333,39.62 7.25333333,40.0266667 6.44,40.42 C6.28,40.5 6.12,40.5733333 5.96,40.6533333 C4.28,41.4866667 3.52,42.1466667 2.56666667,43.5866667 L2.04666667,44.3666667 L3.63333333,45.9533333 L4.41333333,45.4333333 C5.85333333,44.48 6.50666667,43.72 7.34666667,42.04 C7.42666667,41.88 7.5,41.72 7.58,41.56 C7.97333333,40.7466667 8.37333333,39.9066667 9.02,39.2533333 L10.06,38.2133333 L10.06,37.6533333 L10.06,37.6533333 L10.0666667,37.6533333 Z M12.1933333,35.5266667 L10.6733333,37.0466667 L10.6733333,37.6133333 L12.1933333,36.0933333 L12.1933333,35.5266667 Z M14.3133333,33.4066667 L12.7933333,34.9266667 L12.7933333,35.4933333 L14.3133333,33.9733333 L14.3133333,33.4066667 L14.3133333,33.4066667 Z M19.2733333,29.26 C19.3533333,29.2866667 19.4333333,29.3 19.52,29.3 C19.9733333,29.3 20.34,28.9333333 20.34,28.48 C20.34,28.0266667 19.9733333,27.66 19.52,27.66 C19.0666667,27.66 18.7,28.0266667 18.7,28.48 C18.7,28.9333333 18.7133333,28.6466667 18.74,28.7266667 L18.8,28.92 L14.92,32.8 L14.92,33.3666667 L19.08,29.2066667 L19.2733333,29.26 L19.2733333,29.26 Z M47.8533333,23.3666667 C47.5866667,23.8 47.26,24.2 46.88,24.54 C47.4066667,33.2333333 43.0933333,41.5533333 35.5133333,45.92 C34.1733333,46.66 33.36,46.9133333 32.9066667,46.9666667 C32.84,47.34 32.8333333,47.6933333 32.9333333,47.8933333 C32.96,47.94 32.9933333,48 33.1333333,48 C33.2733333,48 33.2333333,48 33.3,47.98 C34.18,47.8066667 35.1933333,47.3066667 36.0333333,46.8466667 C44.3,42.0866667 48.86,32.86 47.8533333,23.3666667 Z M40.5066667,37.6466667 C40.3466667,37.9133333 40.0733333,38.2533333 39.6266667,38.6533333 C38.86,39.34 37.9066667,39.9266667 36.9533333,40.3066667 C36.9266667,40.34 36.8933333,40.3666667 36.8666667,40.4 C36.4733333,40.8333333 36.0866667,41.2866667 35.72,41.7533333 C37.42,41.48 39.1666667,40.5 40.34,39.4466667 C40.82,39.0133333 41.18,38.5933333 41.42,38.1866667 C41.4866667,38.0666667 41.5533333,37.8466667 41.4666667,37.76 C41.3133333,37.6133333 40.8533333,37.6 40.5066667,37.6466667 L40.5066667,37.6466667 Z M39.5466667,29.2133333 C39.4333333,29.0933333 39.3066667,29 39.1666667,28.9266667 C39.2866667,29.88 38.4,31.5266667 36.7133333,33.4066667 C35.4333333,34.8266667 33.86,36.2066667 32.2733333,37.3266667 C32.3066667,37.7266667 32.4,38.0933333 32.5466667,38.4333333 C34.3133333,37.2333333 36.0866667,35.7 37.5066667,34.1266667 C38.58,32.9333333 39.3466667,31.8466667 39.7933333,30.8933333 L39.7933333,30.8933333 C40.04,30.2666667 39.9533333,29.6466667 39.5533333,29.2133333 L39.5466667,29.2133333 Z M31.7933333,30.6066667 C31.9,30.5066667 31.96,30.3733333 31.96,30.2266667 C31.96,30.08 31.9066667,29.9466667 31.8,29.84 L30.1533333,28.2 L30.02,28.3333333 L20.68,19 L20.2066667,19.4733333 L29.5466667,28.8133333 L29.4,28.96 L30.6666667,30.22 C30,30.88 28.6066667,32.3066667 27.3266667,33.8933333 C24.8133333,37.0066667 24.1,39.0666667 25.1333333,40.1866667 C25.1466667,40.2 25.16,40.2133333 25.1733333,40.2266667 C26.22,41.1333333 28.0466667,40.94 30.48,39.6733333 C30.32,39.3533333 30.1866667,39.02 30.0866667,38.6733333 C28.1266667,39.7133333 26.58,40 25.8933333,39.4466667 C25.6733333,39.18 25.3066667,38.1 28.1466667,34.5733333 C29.8266667,32.4866667 31.7733333,30.6266667 31.7933333,30.6066667 L31.7933333,30.6066667 Z M40.04,28.7666667 C40.1266667,28.86 40.2,28.9533333 40.26,29.06 C40.26,28.4666667 40.0466667,27.9733333 39.6333333,27.5866667 C39.3666667,27.3266667 38.9333333,27.0666667 38.2866667,27.0666667 C37.64,27.0666667 37.76,27.1066667 37.4466667,27.1933333 C36.2266667,27.5466667 34.7866667,28.62 33.4866667,30.1333333 C32.1266667,31.7266667 31.1533333,33.5333333 30.74,35.2333333 C30.1933333,37.4866667 30.6733333,39.4066667 32.12,40.7733333 C32.3733333,41.0333333 32.66,41.2466667 32.98,41.4066667 C33.0933333,41.2533333 33.2066667,41.0933333 33.3266667,40.9266667 C33.4266667,40.7933333 33.5266667,40.6666667 33.6266667,40.5266667 C33.3466667,40.4 33.0933333,40.2333333 32.8733333,40.0133333 C32.8666667,40.0133333 32.86,40 32.86,40 C31.6866667,38.8933333 31.32,37.3733333 31.7733333,35.48 C32.5666667,32.18 35.6866667,28.8066667 37.7333333,28.2133333 C37.9533333,28.1466667 38.2666667,28.0866667 38.4866667,28.0866667 C38.7066667,28.0866667 38.8733333,28.1133333 39.06,28.1666667 C39.4333333,28.2733333 39.7733333,28.4733333 40.04,28.7666667 L40.04,28.7666667 Z M34.06,42.8933333 C34.26,42.5933333 34.48,42.28 34.72,41.96 C35.4066667,41.04 36.14,40.1733333 36.86,39.4333333 C37.3333333,38.9466667 37.8,38.5133333 38.2466667,38.1466667 C38.8733333,37.6333333 39.44,37.2866667 39.88,37.12 C39.9133333,37.1066667 39.98,37.08 40.06,37.06 C40.3,36.9933333 40.6133333,36.96 40.8933333,36.96 C41.1733333,36.96 41.5066667,37.0066667 41.7466667,37.1533333 C41.7466667,36.8733333 41.6666667,36.6266667 41.4866667,36.4133333 C41.4866667,36.4 41.4666667,36.3933333 41.4533333,36.38 C40.9,35.8133333 39.7733333,35.52 37.5666667,37.32 C36.8666667,37.8933333 36.12,38.62 35.3933333,39.4333333 C34.4266667,40.5133333 33.5066667,41.7266667 32.78,42.8933333 C31.78,44.4866667 30.84,46.4666667 31.52,47.48 C31.7066667,47.7533333 31.96,47.9133333 32.26,47.9866667 C32.1133333,47.4933333 32.2133333,46.7533333 32.42,46.1133333 L32.42,46.1133333 C32.5733333,45.4866667 33,44.5133333 33.8733333,43.1666667 C33.94,43.08 34,42.9866667 34.06,42.8933333 L34.06,42.8933333 Z" id="形状" fill="url(#linearGradient-3)" mask="url(#mask-2)"></path>
        </g>
    </g>
</svg>