<?xml version="1.0" encoding="UTF-8"?>
<svg width="48px" height="48px" viewBox="0 0 48 48" version="1.1" xmlns="http://www.w3.org/2000/svg" xmlns:xlink="http://www.w3.org/1999/xlink">
    <title>GAR</title>
    <defs>
        <rect id="path-1" x="0" y="0" width="48" height="48"></rect>
        <linearGradient x1="0%" y1="50%" x2="100%" y2="50%" id="linearGradient-3">
            <stop stop-color="#A8B2DE" offset="0%"></stop>
            <stop stop-color="#7D84C2" offset="100%"></stop>
        </linearGradient>
    </defs>
    <g id="GAR" stroke="none" stroke-width="1" fill="none" fill-rule="evenodd">
        <g id="GAR_small">
            <mask id="mask-2" fill="white">
                <use xlink:href="#path-1"></use>
            </mask>
            <g id="矩形"></g>
            <path d="M29.78,18.22 C29.6533333,18.0933333 29.52,17.9733333 29.3866667,17.86 L35.4066667,11.84 L36.16,12.5933333 L30.14,18.6133333 C30.0266667,18.48 29.9066667,18.3466667 29.78,18.22 L29.78,18.22 Z M1.46666667,2.22666667 C1.46666667,1.15333333 1.74,0 2.52,0 L45.48,0 C46.26,0 46.5333333,1.15333333 46.5333333,2.22666667 C46.5333333,3.3 46.2533333,4.45333333 45.4733333,4.45333333 L44.2933333,4.45333333 L40.8466667,7.9 L45.26,12.3133333 L44.5066667,13.0666667 L35.8933333,4.45333333 L12.1066667,4.45333333 L3.49333333,13.0733333 L2.73333333,12.32 L7.14666667,7.90666667 L3.7,4.45333333 L2.52,4.45333333 C1.74,4.45333333 1.46666667,3.30666667 1.46666667,2.22666667 Z M10.6,4.45333333 L5.20666667,4.45333333 L7.9,7.14666667 L10.6,4.45333333 L10.6,4.45333333 Z M42.7933333,4.45333333 L37.4,4.45333333 L40.0933333,7.14666667 L42.7933333,4.45333333 L42.7933333,4.45333333 Z M2.13333333,2.22666667 C2.13333333,3.24 2.41333333,3.78666667 2.52666667,3.78666667 L45.4866667,3.78666667 C45.6,3.78666667 45.88,3.24 45.88,2.22666667 C45.88,1.21333333 45.5933333,0.666666667 45.48,0.666666667 L2.52,0.666666667 C2.40666667,0.666666667 2.13333333,1.21333333 2.13333333,2.22666667 Z M48,13.9733333 L48,9.8 L43.6866667,9.8 L44.7533333,10.8666667 L46.9333333,10.8666667 L46.9333333,13.9733333 L47.1333333,13.9733333 L47.1333333,34.02 L46.9333333,34.02 L46.9333333,37.1333333 L44.7533333,37.1333333 L43.6866667,38.2 L48,38.2 L48,34.0266667 L47.8,34.0266667 L47.8,13.9733333 L48,13.9733333 Z M11.1266667,6.38 L36.8666667,6.38 L41.62,11.1333333 L41.62,36.8733333 L36.8666667,41.6266667 L11.1266667,41.6266667 L6.37333333,36.8733333 L6.37333333,11.1266667 L11.1266667,6.38 Z M10.3333333,10.3333333 L10.3333333,37.6666667 L37.6666667,37.6666667 L37.6666667,10.3333333 L10.3333333,10.3333333 Z M3.24666667,37.1333333 L1.06666667,37.1333333 L1.06666667,34.0266667 L0.866666667,34.0266667 L0.866666667,13.9733333 L1.06666667,13.9733333 L1.06666667,10.8666667 L3.24666667,10.8666667 L4.31333333,9.8 L0,9.8 L0,13.9733333 L0.2,13.9733333 L0.2,34.02 L0,34.02 L0,38.2 L4.31333333,38.2 L3.24666667,37.1333333 Z M18.6133333,30.14 C18.48,30.0266667 18.3466667,29.9066667 18.22,29.78 C18.0933333,29.6533333 17.9733333,29.52 17.86,29.3866667 L11.84,35.4066667 L12.5933333,36.16 L18.6133333,30.14 L18.6133333,30.14 Z M46.5333333,45.7733333 C46.5333333,46.8533333 46.2533333,48 45.4733333,48 L2.52,48 C1.74,48 1.46666667,46.8466667 1.46666667,45.7733333 C1.46666667,44.7 1.74666667,43.5466667 2.52666667,43.5466667 L3.70666667,43.5466667 L7.15333333,40.1 L2.74,35.6866667 L3.49333333,34.9333333 L12.1133333,43.5533333 L35.8933333,43.5533333 L44.5133333,34.9333333 L45.2666667,35.6866667 L40.8533333,40.1 L44.3,43.5466667 L45.48,43.5466667 C46.26,43.5466667 46.5333333,44.6933333 46.5333333,45.7733333 Z M37.4,43.5466667 L42.7933333,43.5466667 L40.1,40.8533333 L37.4,43.5466667 Z M5.20666667,43.5466667 L10.6,43.5466667 L7.90666667,40.8533333 L5.20666667,43.5466667 Z M45.8666667,45.7733333 C45.8666667,44.76 45.5866667,44.2133333 45.4733333,44.2133333 L2.52,44.2133333 C2.40666667,44.2133333 2.12666667,44.76 2.12666667,45.7733333 C2.12666667,46.7866667 2.40666667,47.3333333 2.52,47.3333333 L45.48,47.3333333 C45.5933333,47.3333333 45.8666667,46.7866667 45.8666667,45.7733333 L45.8666667,45.7733333 Z M22.2266667,30.7733333 C24.2666667,30.7733333 26.02,29.5533333 26.8,27.8 C26.4666667,27.86 26.1266667,27.8933333 25.7733333,27.8933333 C25.42,27.8933333 25.62,27.8933333 25.5466667,27.8866667 C24.8466667,28.98 23.62,29.7066667 22.2266667,29.7066667 C20.0533333,29.7066667 18.2933333,27.9466667 18.2933333,25.7733333 C18.2933333,23.6 19.02,23.1533333 20.1133333,22.4533333 C20.1133333,22.38 20.1066667,22.3 20.1066667,22.2266667 C20.1066667,21.8733333 20.14,21.5333333 20.2,21.2 C18.4466667,21.98 17.2266667,23.7333333 17.2266667,25.7733333 C17.2266667,27.8133333 19.4666667,30.7733333 22.2266667,30.7733333 Z M26.1533333,25.4733333 C26.52,25.4333333 26.8733333,25.3266667 27.1933333,25.1733333 C26.92,22.8933333 25.1066667,21.08 22.8266667,20.8066667 C22.6733333,21.1266667 22.5666667,21.48 22.5266667,21.8466667 C24.46,21.9933333 26.0066667,23.54 26.1533333,25.4733333 Z M20.7666667,22.2266667 C20.7666667,19.4666667 23.0066667,17.2266667 25.7666667,17.2266667 C28.5266667,17.2266667 30.7666667,19.4666667 30.7666667,22.2266667 C30.7666667,24.9866667 28.5266667,27.2266667 25.7666667,27.2266667 C23.0066667,27.2266667 20.7666667,24.9866667 20.7666667,22.2266667 Z M21.8333333,22.2266667 C21.8333333,24.4 23.5933333,26.16 25.7666667,26.16 C27.94,26.16 29.7,24.4 29.7,22.2266667 C29.7,20.0533333 27.94,18.2933333 25.7666667,18.2933333 C23.5933333,18.2933333 21.8333333,20.0533333 21.8333333,22.2266667 Z" id="形状" fill="url(#linearGradient-3)" mask="url(#mask-2)"></path>
        </g>
    </g>
</svg>