<?xml version="1.0" encoding="UTF-8"?>
<svg width="48px" height="48px" viewBox="0 0 48 48" version="1.1" xmlns="http://www.w3.org/2000/svg" xmlns:xlink="http://www.w3.org/1999/xlink">
    <title>VVO</title>
    <defs>
        <rect id="path-1" x="0" y="0" width="48" height="48"></rect>
        <linearGradient x1="0%" y1="50%" x2="100%" y2="50%" id="linearGradient-3">
            <stop stop-color="#A8B2DE" offset="0%"></stop>
            <stop stop-color="#7D84C2" offset="100%"></stop>
        </linearGradient>
    </defs>
    <g id="VVO" stroke="none" stroke-width="1" fill="none" fill-rule="evenodd">
        <g id="VVO_small">
            <mask id="mask-2" fill="white">
                <use xlink:href="#path-1"></use>
            </mask>
            <g id="矩形"></g>
            <g id="编组" mask="url(#mask-2)" fill="url(#linearGradient-3)">
                <path d="M26.68,33.5933333 C30.66,33.5933333 33.8866667,36.82 33.8866667,40.8 C33.8866667,44.78 30.66,48.0066667 26.68,48.0066667 C22.7,48.0066667 19.4733333,44.78 19.4733333,40.8 C19.4733333,36.82 22.7,33.5933333 26.68,33.5933333 Z M30.1931958,41.88974 C29.9407333,41.8471167 27.3643333,41.482 25.2933333,43.9266667 C24.0866667,45.3533333 23,45.6466667 22.2733333,45.62 C23.44,46.6866667 24.9866667,47.3333333 26.68,47.3333333 C28.5933333,47.3333333 30.3133333,46.5066667 31.5066667,45.2 C31.1533333,44.88 30.64,44.0466667 30.2133333,41.8933333 Z M40,1.88 L46.12,8 L27.44,26.6866667 L30.08,29.3266667 L41.2333333,18.18 L39.06,16.0066667 L39.5333333,15.5333333 L48,24 L36.3733333,35.62 L43.5733333,42.82 L42.82,43.5733333 L26.68,27.4333333 L8,46.1133333 L1.88,39.9933333 L20.56,21.3066667 L17.92,18.6666667 L6.76666667,29.82 L8.94,31.9933333 L8.46666667,32.4666667 L0,24 L11.62,12.38 L4.42,5.18 L5.18,4.42 L21.32,20.56 L40,1.88 Z M8,41.4133333 L6.12,43.2933333 L8,45.1733333 L9.88,43.2933333 L8,41.4133333 Z M26.38,34.2733333 C22.92,34.4266667 20.1466667,37.3 20.1466667,40.8 C20.1466667,41.6266667 20.3,42.42 20.5866667,43.1533333 C20.9733333,43.1133333 21.62,42.8866667 22.26,41.96 C23.1133333,40.7133333 25.38,39.3266667 28.2333333,39.8133333 C28.5666667,39.1666667 28.9133333,38.22 28.82,37.1933333 C28.6466667,35.3733333 27.0933333,34.5533333 26.38,34.2733333 Z M10.3533333,39.06 L8.47333333,40.94 L10.3533333,42.82 L12.2333333,40.94 L10.3533333,39.06 Z M5.64666667,39.06 L3.76666667,40.94 L5.64666667,42.82 L7.52666667,40.94 L5.64666667,39.06 Z M31.1266667,36.0133333 C31.54,37.3 31.2133333,38.3533333 30.78,39.0866667 C31.0266667,39.56 32.1666667,41.68 33.0933333,42.0666667 C33.1209195,41.9241379 33.1445422,41.9536266 33.1636547,41.9760903 L33.1745765,41.9872932 C33.2005062,42.0060311 33.2160419,41.9283937 33.2193385,41.1501125 L33.22,40.8 C33.22,38.9133333 32.4133333,37.2066667 31.1266667,36.0133333 Z M8,36.7066667 L6.12,38.5866667 L8,40.4666667 L9.88666667,38.5866667 L8,36.7066667 Z M12.7066667,36.7066667 L10.8266667,38.5866667 L12.7066667,40.4666667 L14.5866667,38.5866667 L12.7066667,36.7066667 Z M40,2.82666667 L2.82666667,39.9933333 L3.3,40.4666667 L40.4733333,3.3 L40,2.82666667 Z M10.3533333,34.3533333 L8.47333333,36.2333333 L10.3533333,38.1133333 L12.2333333,36.2333333 L10.3533333,34.3533333 Z M15.06,34.3533333 L13.18,36.2333333 L15.06,38.1133333 L16.94,36.2333333 L15.06,34.3533333 Z M12.7066667,32 L10.8266667,33.88 L12.7066667,35.76 L14.5866667,33.88 L12.7066667,32 Z M17.4133333,32 L15.5333333,33.88 L17.4133333,35.76 L19.2933333,33.88 L17.4133333,32 Z M41.7066667,18.64 L30.5533333,29.7933333 L35.9066667,35.1533333 L47.06,23.9933333 L41.7066667,18.64 Z M19.7666667,29.6466667 L17.8866667,31.5266667 L19.7666667,33.4066667 L21.6466667,31.5266667 L19.7666667,29.6466667 Z M15.06,29.6466667 L13.18,31.5266667 L15.06,33.4066667 L16.94,31.5266667 L15.06,29.6466667 Z M22.12,27.3 L20.24,29.18 L22.12,31.06 L24,29.18 L22.12,27.3 Z M17.4133333,27.2933333 L15.5333333,29.1733333 L17.4133333,31.0533333 L19.2933333,29.1733333 L17.4133333,27.2933333 Z M12.0933333,12.8466667 L0.94,24 L6.3,29.3533333 L17.4466667,18.2 L12.0933333,12.8466667 Z M24.4733333,24.9466667 L22.5933333,26.8266667 L24.4733333,28.7066667 L26.3533333,26.8266667 L24.4733333,24.9466667 Z M19.7666667,24.94 L17.8866667,26.82 L19.7666667,28.7 L21.6466667,26.82 L19.7666667,24.94 Z M26.8266667,22.5933333 L24.9466667,24.4733333 L26.8266667,26.3533333 L28.7066667,24.4733333 L26.8266667,22.5933333 Z M22.12,22.5933333 L20.24,24.4733333 L22.12,26.3533333 L24,24.4733333 L22.12,22.5933333 Z M29.18,20.24 L27.3,22.12 L29.18,24 L31.06,22.12 L29.18,20.24 Z M24.4666667,20.24 L22.5866667,22.12 L24.4733333,24 L26.3466667,22.12 L24.4666667,20.24 Z M31.5266667,17.8866667 L29.6466667,19.7666667 L31.5266667,21.6466667 L33.4066667,19.7666667 L31.5266667,17.8866667 Z M26.8266667,17.8866667 L24.9466667,19.7666667 L26.8266667,21.6466667 L28.7066667,19.7666667 L26.8266667,17.8866667 Z M29.18,15.5333333 L27.3,17.4133333 L29.18,19.2933333 L31.06,17.4133333 L29.18,15.5333333 Z M33.88,15.5333333 L32,17.4133333 L33.88,19.2933333 L35.76,17.4133333 L33.88,15.5333333 Z M36.2333333,13.18 L34.3533333,15.06 L36.2333333,16.94 L38.1133333,15.06 L36.2333333,13.18 Z M31.5333333,13.18 L29.6533333,15.06 L31.5333333,16.94 L33.4133333,15.06 L31.5333333,13.18 Z M38.5866667,10.8266667 L36.7066667,12.7066667 L38.5866667,14.5866667 L40.4666667,12.7066667 L38.5866667,10.8266667 Z M33.88,10.8266667 L32,12.7066667 L33.8866667,14.5866667 L35.7666667,12.7066667 L33.88,10.8266667 Z M21.32,0 C25.3,0 28.5266667,3.22 28.5266667,7.2 C28.5266667,11.18 25.3,14.4066667 21.32,14.4066667 C17.34,14.4066667 14.1133333,11.1866667 14.1133333,7.20666667 C14.1133333,3.22666667 17.34,0 21.32,0 Z M27.4133333,4.84666667 C27.0266667,4.88666667 26.38,5.11333333 25.74,6.04 C24.8866667,7.28666667 22.62,8.67333333 19.7666667,8.18666667 C19.4333333,8.83333333 19.0866667,9.78 19.18,10.8066667 C19.3533333,12.6266667 20.9066667,13.4466667 21.62,13.7266667 C25.08,13.5733333 27.8533333,10.7 27.8533333,7.2 C27.8533333,6.37333333 27.7,5.58 27.4133333,4.84666667 Z M40.94,8.47333333 L39.06,10.3533333 L40.94,12.2333333 L42.82,10.3533333 L40.94,8.47333333 Z M36.24,8.47333333 L34.36,10.3533333 L36.24,12.2333333 L38.12,10.3533333 L36.24,8.47333333 Z M14.9066667,5.93333333 C14.8266667,6.34666667 14.78,6.76666667 14.78,7.2 C14.78,9.08666667 15.5866667,10.7933333 16.8733333,11.9866667 C16.46,10.7 16.7866667,9.64666667 17.22,8.91333333 C16.9733333,8.44 15.8333333,6.32 14.9066667,5.93333333 Z M43.2933333,6.12 L41.4133333,8 L43.2933333,9.88 L45.1733333,8 L43.2933333,6.12 Z M38.5866667,6.12 L36.7066667,8 L38.5866667,9.88 L40.4666667,8 L38.5866667,6.12 Z M40.94,3.77333333 L39.06,5.65333333 L40.94,7.53333333 L42.82,5.64666667 L40.94,3.77333333 Z M21.32,0.666666667 C19.4066667,0.666666667 17.6866667,1.49333333 16.4933333,2.8 C16.8466667,3.12 17.36,3.95333333 17.7866667,6.10666667 L17.8068042,6.11026 C18.0592667,6.15288333 20.6356667,6.518 22.7066667,4.07333333 C23.9133333,2.64666667 25,2.35333333 25.7266667,2.38 C24.56,1.31333333 23.0133333,0.666666667 21.32,0.666666667 Z" id="形状结合"></path>
            </g>
        </g>
    </g>
</svg>