<?xml version="1.0" encoding="UTF-8"?>
<svg width="48px" height="48px" viewBox="0 0 48 48" version="1.1" xmlns="http://www.w3.org/2000/svg" xmlns:xlink="http://www.w3.org/1999/xlink">
    <title>TEN</title>
    <defs>
        <rect id="path-1" x="0" y="0" width="48" height="48"></rect>
        <linearGradient x1="0%" y1="50%" x2="100%" y2="50%" id="linearGradient-3">
            <stop stop-color="#A8B2DE" offset="0%"></stop>
            <stop stop-color="#7D84C2" offset="100%"></stop>
        </linearGradient>
    </defs>
    <g id="TEN" stroke="none" stroke-width="1" fill="none" fill-rule="evenodd">
        <g id="TEN_small">
            <mask id="mask-2" fill="white">
                <use xlink:href="#path-1"></use>
            </mask>
            <g id="矩形"></g>
            <path d="M22.04,27.8666667 L20.1333333,25.96 L20.4533333,25.62 C20.6066667,25.46 20.82,25.3666667 21.04,25.36 C21.26,25.3533333 21.48,25.4466667 21.6333333,25.6 L22.3933333,26.36 C22.5466667,26.5133333 22.6333333,26.72 22.6333333,26.9466667 L22.6333333,26.96 C22.6333333,27.18 22.5333333,27.3933333 22.3733333,27.5466667 L22.04,27.8666667 Z M24.6133333,3.16666667 C24.5466667,3.21333333 24.4866667,3.26666667 24.42,3.31333333 C23.9733333,3.65333333 23.5866667,3.76666667 23.1866667,3.76666667 C22.7866667,3.76666667 22.7933333,3.74 22.58,3.69333333 C22.3733333,3.64666667 22.0333333,3.48666667 21.7533333,3.2 C22.08,4.12 22.96,4.78 23.9933333,4.78 C25.0266667,4.78 26.2866667,3.8 26.3666667,2.55333333 C25.62,2.38666667 25.1266667,2.76666667 24.6133333,3.16666667 L24.6133333,3.16666667 Z M21.0533333,22.64 C21.2733333,22.64 21.48,22.5533333 21.64,22.4 L22.4,21.64 C22.56,21.48 22.6466667,21.2666667 22.64,21.0466667 C22.64,20.8266667 22.54,20.6133333 22.38,20.46 L22.04,20.14 L20.1333333,22.04 L20.4533333,22.38 C20.6066667,22.54 20.82,22.6333333 21.04,22.64 L21.0533333,22.64 Z M26.96,22.64 C27.18,22.64 27.3933333,22.54 27.5466667,22.38 L27.8666667,22.04 L25.96,20.1333333 L25.62,20.4533333 C25.46,20.6066667 25.3666667,20.82 25.36,21.04 L25.36,21.0533333 C25.36,21.2733333 25.4466667,21.48 25.6,21.64 L26.36,22.4 C26.52,22.5533333 26.74,22.64 26.96,22.64 Z M25.96,27.8666667 L27.8666667,25.96 L27.5466667,25.62 C27.3933333,25.46 27.18,25.3666667 26.96,25.36 L26.9466667,25.36 C26.7266667,25.36 26.52,25.4466667 26.36,25.6 L25.6,26.36 C25.44,26.52 25.3533333,26.7333333 25.36,26.9533333 C25.36,27.1733333 25.46,27.3866667 25.62,27.54 L25.96,27.8666667 L25.96,27.8666667 Z M40.4333333,9.29333333 L36.9066667,5.76666667 C36.8,6 36.7133333,6.22666667 36.6466667,6.44666667 L39.96,9.76 L40.4333333,9.29333333 L40.4333333,9.29333333 Z M22.68,3.26666667 C23.2333333,3.38666667 23.6133333,3.37333333 24.16,2.96666667 C24.22,2.92 24.2866667,2.87333333 24.3466667,2.82 C24.8533333,2.42666667 25.4666667,1.95333333 26.3666667,2.10666667 C26.22,0.926666667 25.22,0.0133333333 24,0.0133333333 C22.78,0.0133333333 22.08,0.68 21.7533333,1.6 C21.64,1.94 21.66,2.26 21.82,2.55333333 C22.0333333,2.96 22.46,3.22 22.68,3.26666667 Z M7.78,11.6 C8.20666667,11.6266667 8.50666667,11.6 8.74666667,11.5733333 L9.76666667,10.5533333 L9.29333333,10.08 L7.78,11.6 Z M5.77333333,11.0933333 C6.00666667,11.2 6.23333333,11.2866667 6.45333333,11.3533333 L9.76666667,8.04 L9.29333333,7.56666667 L5.77333333,11.0933333 L5.77333333,11.0933333 Z M44.2,5.53333333 L40.7666667,2.1 C40.5533333,2.18666667 40.3466667,2.29333333 40.1333333,2.40666667 L43.7333333,6.00666667 L44.2,5.53333333 Z M44.8,21.76 C43.88,22.0866667 43.22,22.9666667 43.22,24 C43.22,25.0333333 44.2,26.2933333 45.4466667,26.3733333 C45.62,25.62 45.24,25.1266667 44.84,24.6133333 C44.7933333,24.5466667 44.74,24.4866667 44.6933333,24.42 C44.3533333,23.9733333 44.24,23.5866667 44.24,23.1866667 C44.24,22.7866667 44.2666667,22.7933333 44.3133333,22.58 C44.3466667,22.3733333 44.5133333,22.04 44.8,21.76 L44.8,21.76 Z M42.94,9.29333333 L37.8933333,4.24666667 C37.74,4.42 37.6,4.6 37.48,4.77333333 L42.4733333,9.76666667 L42.94,9.29333333 L42.94,9.29333333 Z M37.92,9.29333333 L36.4,7.77333333 C36.3733333,8.2 36.4,8.5 36.4266667,8.74 L37.4466667,9.76 L37.92,9.29333333 L37.92,9.29333333 Z M44.2,8.04 L39.1933333,3.03333333 C39.02,3.16666667 38.8533333,3.30666667 38.68,3.46 L43.7333333,8.51333333 L44.2,8.04 L44.2,8.04 Z M4.78,10.52 L9.77333333,5.52666667 L9.3,5.05333333 L4.25333333,10.1 C4.42666667,10.26 4.6,10.3933333 4.78,10.52 L4.78,10.52 Z M47.9866667,24 C47.9866667,22.96 47.32,22.08 46.4,21.7533333 C46.06,21.64 45.74,21.66 45.4466667,21.82 C45.0466667,22.0333333 44.7866667,22.46 44.74,22.68 C44.62,23.2333333 44.6333333,23.6133333 45.04,24.16 C45.0866667,24.22 45.1333333,24.2866667 45.1866667,24.3466667 C45.58,24.8533333 46.0533333,25.4666667 45.9,26.3666667 C47.0733333,26.22 47.9866667,25.22 47.9866667,24 L47.9866667,24 Z M44.2,3.02 L42.9466667,1.76666667 C42.9466667,1.76666667 42.5533333,1.7 42.0066667,1.76666667 L43.7333333,3.49333333 L44.2,3.02 L44.2,3.02 Z M27.3866667,20.62 L26.4466667,19.68 L31.1666667,15.2266667 C32.8266667,13.56 33.38,11.42 33.9666667,9.15333333 C34.3066667,7.85333333 34.6466667,6.52666667 35.22,5.28666667 C35.58,4.42 36.1466667,3.50666667 37.0333333,2.62666667 C40.6,-0.94 44.2933333,-0.446666667 46.3733333,1.63333333 C48.4533333,3.71333333 48.9466667,7.40666667 45.38,10.9733333 C44.4933333,11.86 43.5866667,12.4266667 42.72,12.7866667 C41.48,13.36 40.1533333,13.7 38.8533333,14.04 C36.5866667,14.6266667 34.4466667,15.18 32.78,16.84 L28.3266667,21.56 L27.3866667,20.62 Z M35.7266667,8.13333333 C35.7266667,9.72 36.3266667,10.8866667 36.7266667,11.2866667 C37.1266667,11.6866667 38.2933333,12.28 39.88,12.2866667 C40.56,12.2866667 41.42,12.18 42.3466667,11.7866667 C43.1733333,11.4 43.9466667,10.9066667 44.6266667,10.22 C46.3066667,8.54 46.94,6.92666667 46.94,5.54666667 C46.94,4.16666667 46.3866667,3.15333333 45.62,2.39333333 C44.86,1.62666667 43.76,1.06666667 42.4666667,1.06666667 C41.1733333,1.06666667 39.4733333,1.7 37.7933333,3.38 C37.1066667,4.06666667 36.6133333,4.84 36.2266667,5.66666667 C35.8333333,6.59333333 35.72,7.45333333 35.7266667,8.13333333 L35.7266667,8.13333333 Z M32.9866667,14.6666667 L33.16,14.84 L33.3333333,15.0133333 C34.8,14.04 36.46,13.5533333 38.1066667,13.12 C37.14,12.8733333 36.38,12.4533333 35.9666667,12.0333333 L35.9666667,12.0333333 C35.5466667,11.62 35.1266667,10.86 34.88,9.89333333 C34.4533333,11.54 33.9666667,13.2 32.9866667,14.6666667 L32.9866667,14.6666667 Z M45.3733333,37.0333333 C48.94,40.6 48.4466667,44.2933333 46.3666667,46.3733333 C44.2866667,48.4533333 40.5933333,48.9466667 37.0266667,45.38 C33.46,41.8133333 35.5733333,43.5866667 35.2133333,42.72 C34.64,41.48 34.3,40.1533333 33.96,38.8533333 C33.3733333,36.5866667 32.82,34.4466667 31.16,32.78 L26.44,28.3266667 L27.38,27.3866667 L28.32,26.4466667 L32.7733333,31.1666667 C34.44,32.8266667 36.58,33.38 38.8466667,33.9666667 C40.1466667,34.3066667 41.4733333,34.6466667 42.7133333,35.22 C43.58,35.58 44.4866667,36.1533333 45.3733333,37.0333333 L45.3733333,37.0333333 Z M35.96,35.9733333 L35.96,35.9733333 C35.96,35.9733333 35.96,35.9733333 35.96,35.9733333 C36.38,35.5466667 37.1333333,35.1266667 38.1066667,34.88 C36.4666667,34.4466667 34.8066667,33.9666667 33.3333333,32.9866667 L33.16,33.16 L32.9866667,33.3333333 C33.96,34.8 34.4466667,36.46 34.88,38.1066667 C35.12,37.14 35.54,36.3866667 35.96,35.9733333 L35.96,35.9733333 Z M46.9333333,42.4666667 C46.9333333,41.0866667 46.3,39.4733333 44.62,37.7933333 C43.9333333,37.1066667 43.1666667,36.6133333 42.34,36.2266667 C41.4133333,35.8333333 40.5533333,35.7266667 39.8733333,35.7266667 C38.2866667,35.7266667 37.12,36.3266667 36.72,36.7266667 C36.32,37.1266667 35.7266667,38.2933333 35.72,39.88 C35.72,40.56 35.8266667,41.42 36.22,42.3466667 C36.6066667,43.1733333 37.1,43.9466667 37.7866667,44.6266667 C39.4666667,46.3066667 41.08,46.94 42.46,46.94 C43.84,46.94 44.8533333,46.3866667 45.6133333,45.62 C46.38,44.86 46.9333333,43.76 46.9333333,42.4666667 L46.9333333,42.4666667 Z M25.32,44.7333333 C24.7666667,44.6133333 24.3866667,44.6266667 23.84,45.0333333 C23.78,45.08 23.7133333,45.1266667 23.6533333,45.18 C23.1466667,45.5733333 22.5333333,46.0466667 21.6333333,45.8933333 C21.78,47.0733333 22.78,47.9866667 24,47.9866667 C25.22,47.9866667 25.92,47.32 26.2466667,46.4 C26.36,46.06 26.34,45.74 26.18,45.4466667 C25.9666667,45.04 25.54,44.78 25.32,44.7333333 L25.32,44.7333333 Z M40.22,36.4 C39.7933333,36.3733333 39.4933333,36.4 39.2533333,36.4266667 L38.2333333,37.4466667 L38.7066667,37.92 L40.22,36.4 L40.22,36.4 Z M23.3866667,44.8333333 C23.4533333,44.7866667 23.5133333,44.7333333 23.58,44.6866667 C24.0266667,44.3466667 24.4133333,44.2333333 24.8133333,44.2333333 C25.2133333,44.2333333 25.2066667,44.26 25.42,44.3066667 C25.6266667,44.3533333 25.9666667,44.5133333 26.2466667,44.8 C25.92,43.88 25.04,43.22 24.0066667,43.22 C22.9733333,43.22 21.7133333,44.2 21.6333333,45.4466667 C22.38,45.6133333 22.8733333,45.2333333 23.3866667,44.8333333 L23.3866667,44.8333333 Z M42.2266667,36.9066667 C41.9933333,36.8 41.7666667,36.7133333 41.5466667,36.6466667 L38.2333333,39.96 L38.7066667,40.4333333 L42.2266667,36.9066667 L42.2266667,36.9066667 Z M20.6133333,27.38 L21.5533333,28.32 L16.8333333,32.7733333 C15.1733333,34.44 14.62,36.58 14.0333333,38.8466667 C13.6933333,40.1466667 13.3533333,41.4733333 12.78,42.7133333 C12.42,43.58 11.8533333,44.4933333 10.9666667,45.3733333 C7.4,48.94 3.70666667,48.4466667 1.62666667,46.3666667 C-0.453333333,44.2933333 -0.953333333,40.6 2.62,37.0266667 C3.50666667,36.14 4.41333333,35.5733333 5.28,35.2133333 C6.52,34.64 7.84666667,34.3 9.14666667,33.96 C11.4133333,33.3733333 13.5533333,32.82 15.22,31.16 L19.6733333,26.44 L20.6133333,27.38 Z M12.2733333,39.8666667 C12.2666667,38.28 11.6733333,37.1133333 11.2733333,36.7133333 C10.8733333,36.3133333 9.70666667,35.72 8.12,35.7133333 C7.44,35.7133333 6.58,35.82 5.65333333,36.2133333 C4.82666667,36.6 4.05333333,37.0933333 3.37333333,37.78 C1.69333333,39.46 1.06,41.0733333 1.06,42.4533333 C1.06,43.8333333 1.61333333,44.8466667 2.38,45.6066667 C3.14,46.3733333 4.24,46.9333333 5.53333333,46.9333333 C6.82666667,46.9333333 8.52666667,46.3 10.2066667,44.62 C10.8933333,43.9333333 11.3866667,43.1666667 11.7733333,42.34 C12.1666667,41.4066667 12.28,40.5466667 12.2733333,39.8666667 L12.2733333,39.8666667 Z M15.0133333,33.3333333 L14.84,33.16 L14.6666667,32.9866667 C13.2,33.96 11.54,34.4466667 9.89333333,34.88 C10.86,35.1266667 11.62,35.5466667 12.0333333,35.9666667 L12.0333333,35.9666667 C12.4533333,36.38 12.8733333,37.14 13.12,38.1066667 C13.5466667,36.46 14.0333333,34.8 15.0133333,33.3333333 L15.0133333,33.3333333 Z M42.4666667,44.2 L45.9,40.7666667 C45.8133333,40.5533333 45.7066667,40.3466667 45.5933333,40.1333333 L41.9933333,43.7333333 L42.4666667,44.2 Z M43.22,37.48 L38.2266667,42.4733333 L38.7,42.9466667 L43.7466667,37.9 C43.5733333,37.74 43.4,37.6066667 43.22,37.48 L43.22,37.48 Z M39.4866667,43.7266667 L39.96,44.2 L44.9666667,39.1933333 C44.8333333,39.02 44.6933333,38.8533333 44.54,38.68 L39.4866667,43.7266667 L39.4866667,43.7266667 Z M10.08,38.7066667 L11.6,40.2266667 C11.6266667,39.8 11.6,39.5 11.5733333,39.26 L10.5533333,38.24 L10.08,38.7066667 Z M3.02,3.8 L1.76666667,5.06 C1.76666667,5.06 1.7,5.45333333 1.76666667,6 L3.49333333,4.27333333 L3.02,3.8 L3.02,3.8 Z M44.98,44.2 L46.2333333,42.9466667 C46.2333333,42.9466667 46.3,42.5533333 46.2333333,42.0066667 L44.5066667,43.7333333 L44.98,44.2 Z M2.62666667,10.9666667 C-0.94,7.39333333 -0.446666667,3.7 1.63333333,1.62666667 C3.70666667,-0.453333333 7.4,-0.953333333 10.9733333,2.62 C11.86,3.50666667 12.4266667,4.41333333 12.7866667,5.28 C13.36,6.52 13.7,7.84666667 14.04,9.14666667 C14.6266667,11.4133333 15.18,13.5533333 16.84,15.22 L21.56,19.6733333 L20.62,20.6133333 L19.68,21.5533333 L15.2266667,16.8333333 C13.56,15.1733333 11.42,14.62 9.15333333,14.0333333 C7.85333333,13.6933333 6.52666667,13.3533333 5.28666667,12.78 C4.42,12.42 3.51333333,11.8466667 2.62666667,10.9666667 L2.62666667,10.9666667 Z M12.04,12.0266667 L12.04,12.0266667 C12.04,12.0311111 12.04,12.0311111 12.04,12.0266667 C11.62,12.4533333 10.8666667,12.8733333 9.89333333,13.12 C11.5333333,13.5533333 13.1933333,14.0333333 14.6666667,15.0133333 L14.84,14.84 L15.0133333,14.6666667 C14.04,13.2 13.5533333,11.54 13.12,9.89333333 C12.88,10.86 12.46,11.6133333 12.04,12.0266667 L12.04,12.0266667 Z M1.06666667,5.53333333 C1.06666667,6.91333333 1.7,8.52666667 3.38,10.2066667 C4.06666667,10.8933333 4.84,11.3866667 5.66666667,11.7733333 C6.59333333,12.1666667 7.45333333,12.2733333 8.13333333,12.2733333 C9.72,12.2666667 10.8866667,11.6733333 11.2866667,11.2733333 C11.6866667,10.8733333 12.28,9.70666667 12.2866667,8.12 C12.2866667,7.44 12.18,6.58 11.7866667,5.65333333 C11.4,4.82666667 10.9066667,4.05333333 10.22,3.37333333 C8.53333333,1.69333333 6.92666667,1.06 5.54,1.06 C4.15333333,1.06 3.14666667,1.61333333 2.38666667,2.38 C1.62,3.14 1.06666667,4.24 1.06666667,5.53333333 Z M7.56666667,38.7066667 L11.0933333,42.2333333 C11.2,42 11.2866667,41.7733333 11.3533333,41.5533333 L8.04,38.24 L7.56666667,38.7066667 L7.56666667,38.7066667 Z M4.78666667,24 C4.78666667,22.74 3.80666667,21.7066667 2.56,21.6266667 C2.38666667,22.38 2.76666667,22.8733333 3.16666667,23.3866667 C3.21333333,23.4533333 3.26666667,23.5133333 3.31333333,23.58 C3.65333333,24.0266667 3.76666667,24.4133333 3.76666667,24.8133333 C3.76666667,25.2133333 3.74,25.2066667 3.69333333,25.42 C3.64666667,25.6266667 3.48666667,25.9666667 3.2,26.2466667 C4.12,25.9133333 4.78666667,25.0333333 4.78666667,24 L4.78666667,24 Z M5.53333333,3.8 L2.1,7.23333333 C2.18666667,7.44666667 2.29333333,7.65333333 2.40666667,7.86666667 L6.00666667,4.26666667 L5.53333333,3.8 Z M8.51333333,4.27333333 L8.04,3.8 L3.03333333,8.80666667 C3.16666667,8.98 3.30666667,9.14666667 3.46,9.32 L8.51333333,4.27333333 L8.51333333,4.27333333 Z M0.0133333333,24 C0.0133333333,25.04 0.68,25.92 1.6,26.2466667 C1.94,26.36 2.26,26.34 2.55333333,26.18 C2.95333333,25.9666667 3.21333333,25.54 3.26,25.32 C3.38,24.7666667 3.36666667,24.3866667 2.96,23.84 C2.91333333,23.78 2.86666667,23.7133333 2.81333333,23.6533333 C2.42,23.1466667 1.94666667,22.5333333 2.1,21.6333333 C0.926666667,21.78 0.0133333333,22.78 0.0133333333,24 Z M3.8,39.96 L8.80666667,44.9666667 C8.98,44.8333333 9.14666667,44.6933333 9.32,44.54 L4.26666667,39.4866667 L3.8,39.96 L3.8,39.96 Z M5.06,38.7066667 L10.1066667,43.7533333 C10.26,43.58 10.4,43.4 10.52,43.2266667 L5.52666667,38.2333333 L5.06,38.7066667 L5.06,38.7066667 Z M3.8,42.4666667 L7.23333333,45.9 C7.44666667,45.8133333 7.65333333,45.7066667 7.86666667,45.5933333 L4.26666667,41.9933333 L3.8,42.4666667 Z M3.8,44.98 L5.05333333,46.2333333 C5.05333333,46.2333333 5.44666667,46.3 5.99333333,46.2333333 L4.26666667,44.5066667 L3.8,44.98 Z" id="形状" fill="url(#linearGradient-3)" mask="url(#mask-2)"></path>
        </g>
    </g>
</svg>