<?xml version="1.0" encoding="UTF-8"?>
<svg width="48px" height="48px" viewBox="0 0 48 48" version="1.1" xmlns="http://www.w3.org/2000/svg" xmlns:xlink="http://www.w3.org/1999/xlink">
    <title>ROW</title>
    <defs>
        <rect id="path-1" x="0" y="0" width="48" height="48"></rect>
        <linearGradient x1="0%" y1="50%" x2="100%" y2="50%" id="linearGradient-3">
            <stop stop-color="#A8B2DE" offset="0%"></stop>
            <stop stop-color="#7D84C2" offset="100%"></stop>
        </linearGradient>
    </defs>
    <g id="ROW" stroke="none" stroke-width="1" fill="none" fill-rule="evenodd">
        <g id="ROW_small">
            <mask id="mask-2" fill="white">
                <use xlink:href="#path-1"></use>
            </mask>
            <g id="矩形"></g>
            <path d="M25.5733333,16.8933333 L30.4533333,21.7733333 L29.8133333,22.0733333 L24.9333333,17.1933333 L25.5733333,16.8933333 L25.5733333,16.8933333 Z M23.1266667,15.3866667 L23.7666667,15.0866667 L20.7066667,12.0266667 L20.2333333,12.5 L23.1266667,15.3866667 Z M27.7733333,13.22 L20.5666667,6.01333333 L20.0933333,6.48666667 L27.1266667,13.52 L27.7733333,13.22 L27.7733333,13.22 Z M34.46,19.9066667 L29.58,15.0266667 L28.94,15.3266667 L33.82,20.2066667 L34.46,19.9066667 Z M31.62,23.88 L35.5,27.76 L35.9733333,27.2866667 L32.2666667,23.58 L31.62,23.88 L31.62,23.88 Z M41.9866667,27.4333333 L36.2666667,21.7133333 L35.6266667,22.0133333 L41.52,27.9066667 L41.9866667,27.4333333 Z M38.4666667,18.04 L33.5866667,13.16 L32.9466667,13.46 L37.8266667,18.34 L38.4666667,18.04 Z M39.6266667,20.1466667 L47.5266667,28.0466667 L48,27.5733333 L40.2733333,19.8466667 L39.6266667,20.1466667 L39.6266667,20.1466667 Z M31.7733333,11.3533333 L20.4266667,0 L19.9533333,0.473333333 L31.1333333,11.6533333 L31.7733333,11.3533333 L31.7733333,11.3533333 Z M22.0733333,29.8133333 L17.1933333,24.9333333 L16.8933333,25.5733333 L21.7733333,30.4533333 L22.0733333,29.8133333 Z M23.88,31.62 L23.58,32.26 L27.2866667,35.9666667 L27.76,35.4933333 L23.88,31.62 L23.88,31.62 Z M13.16,33.58 L18.04,38.46 L18.34,37.82 L13.46,32.94 L13.16,33.58 L13.16,33.58 Z M15.0266667,29.58 L19.9066667,34.46 L20.2066667,33.82 L15.3266667,28.94 L15.0266667,29.58 L15.0266667,29.58 Z M21.7133333,36.2666667 L27.4333333,41.9866667 L27.9066667,41.5133333 L22.02,35.6266667 L21.7133333,36.2666667 Z M15.3866667,23.1266667 L12.5,20.24 L12.0266667,20.7133333 L15.0866667,23.7733333 L15.3866667,23.1266667 Z M19.8466667,40.2733333 L27.5733333,48 L28.0466667,47.5266667 L20.1466667,39.6266667 L19.8466667,40.2733333 L19.8466667,40.2733333 Z M11.6533333,31.1333333 L0.473333333,19.9533333 L0,20.4266667 L11.3533333,31.78 L11.6533333,31.1333333 L11.6533333,31.1333333 Z M6.01333333,20.5666667 L13.22,27.7733333 L13.52,27.1333333 L6.48666667,20.0933333 L6.01333333,20.5666667 Z M48,17.8866667 L47.4133333,18.2933333 C46.3533333,19.02 45.1866667,19.5666667 43.94,19.9133333 L43.3466667,20.08 L42.8,19.7733333 C42.1733333,19.42 41.4866667,19.1666667 40.78,19.04 L40.5466667,19 L27.8733333,24.9066667 L29.62,26.6533333 C33.1333333,30.1666667 36.46,33.9333333 39.5066667,37.8533333 L43.1266667,42.5 C43.2666667,42.68 43.2533333,42.94 43.0866667,43.1 C43,43.1866667 42.88,43.2333333 42.76,43.2333333 C42.64,43.2333333 42.5666667,43.2 42.48,43.14 L37.7733333,39.5 C33.8866667,36.4733333 30.1466667,33.1733333 26.66,29.6866667 L24.8733333,27.9 L18.9666667,40.56 L19.0066667,40.7933333 C19.14,41.5066667 19.3866667,42.1866667 19.74,42.8133333 L20.0466667,43.36 L19.88,43.9533333 C19.5333333,45.1933333 18.9933333,46.36 18.26,47.4266667 L17.8533333,48.0133333 L17.5333333,47.9733333 C16.6733333,47.8733333 15.8533333,47.4933333 15.22,46.8933333 L14.9933333,46.68 L15.1266667,46.1333333 C15.5933333,44.2133333 16.4,42.4133333 17.5333333,40.7933333 L17.9333333,40.22 L24.0533333,27.0933333 L18.3533333,21.3933333 C18.2933333,21.3333333 18.2333333,21.2666667 18.1666667,21.2066667 L11.7,35.0666667 L11.74,35.3 C11.8733333,36.0133333 12.12,36.6933333 12.4733333,37.32 L12.78,37.8666667 L12.6133333,38.46 C12.2666667,39.7 11.7266667,40.8666667 10.9933333,41.9333333 L10.5866667,42.52 L10.2666667,42.48 C9.40666667,42.38 8.58666667,42 7.95333333,41.4 L7.72666667,41.1866667 L7.86,40.64 C8.32666667,38.72 9.13333333,36.92 10.2666667,35.3 L10.6666667,34.7266667 L17.3533333,20.3933333 C14.2066667,17.1733333 11.22,13.7533333 8.46,10.2 L4.84,5.53333333 C4.7,5.35333333 4.71333333,5.09333333 4.88,4.93333333 C5.04,4.77333333 5.3,4.75333333 5.48,4.89333333 L10.1866667,8.55333333 C13.72,11.3 17.12,14.28 20.3266667,17.4133333 L34.6733333,10.72 L35.2466667,10.32 C36.8733333,9.19333333 38.6666667,8.38666667 40.5866667,7.91333333 L41.1333333,7.78 L41.3466667,8.00666667 C41.94,8.63333333 42.3266667,9.46 42.4266667,10.32 L42.4666667,10.64 L41.88,11.0466667 C40.82,11.7733333 39.6533333,12.32 38.4066667,12.6666667 L37.8133333,12.8333333 L37.2666667,12.5266667 C36.64,12.1733333 35.9533333,11.92 35.2466667,11.7933333 L35.0133333,11.7533333 L21.14,18.22 C21.1866667,18.2666667 21.24,18.32 21.2933333,18.3666667 L27.0333333,24.1066667 L40.1733333,17.98 L40.7466667,17.58 C42.3733333,16.4533333 44.1666667,15.6466667 46.0866667,15.1733333 L46.6333333,15.04 L46.8466667,15.2666667 C47.44,15.8933333 47.8266667,16.72 47.9266667,17.58 L48,17.8866667 L48,17.8866667 Z M18.9066667,17.2266667 C18.5866667,16.9066667 17.8666667,16.32 17.0866667,15.82 C16.3066667,15.3133333 15.4733333,14.9 14.92,14.92 C14.92,15.4866667 15.3333333,16.3266667 15.82,17.1133333 C16.3133333,17.8933333 16.88,18.62 17.1933333,18.94 L22.8,24.4533333 L24.4466667,22.8066667 L18.9066667,17.2266667 Z M29.0666667,30.8066667 C29.3933333,31.12 30.1133333,31.6933333 30.8933333,32.18 C31.6733333,32.6733333 32.52,33.08 33.0866667,33.08 C33.1066667,32.5266667 32.6866667,31.6866667 32.1866667,30.9133333 C31.68,30.1333333 31.0933333,29.4133333 30.78,29.0933333 L25.2,23.5533333 L23.5533333,25.2 L29.0666667,30.8066667 L29.0666667,30.8066667 Z" id="形状" fill="url(#linearGradient-3)" mask="url(#mask-2)"></path>
        </g>
    </g>
</svg>