<?xml version="1.0" encoding="UTF-8"?>
<svg width="48px" height="48px" viewBox="0 0 48 48" version="1.1" xmlns="http://www.w3.org/2000/svg" xmlns:xlink="http://www.w3.org/1999/xlink">
    <title>TRI</title>
    <defs>
        <rect id="path-1" x="0" y="0" width="48" height="48"></rect>
        <linearGradient x1="0%" y1="50%" x2="100%" y2="50%" id="linearGradient-3">
            <stop stop-color="#A8B2DE" offset="0%"></stop>
            <stop stop-color="#7D84C2" offset="100%"></stop>
        </linearGradient>
    </defs>
    <g id="TRI" stroke="none" stroke-width="1" fill="none" fill-rule="evenodd">
        <g id="TRI_small">
            <mask id="mask-2" fill="white">
                <use xlink:href="#path-1"></use>
            </mask>
            <g id="矩形"></g>
            <path d="M3.16,26.4933333 C2.38666667,26.9 1.58666667,27.32 2.60208521e-18,27.32 L2.60208521e-18,26.6533333 C1.42,26.6533333 2.11333333,26.2866667 2.84666667,25.9 C3.62,25.4933333 4.42,25.0733333 6.00666667,25.0733333 C7.59333333,25.0733333 7.55333333,25.2133333 8.09333333,25.4066667 C8.06666667,25.64 8.05333333,25.8733333 8.05333333,26.1066667 C7.53333333,25.8933333 6.92666667,25.7466667 6.01333333,25.7466667 C4.58666667,25.74 3.89333333,26.1066667 3.16,26.4933333 Z M6.00666667,18.9666667 C7.42666667,18.9666667 8.12,19.3333333 8.85333333,19.72 C9.47333333,20.0466667 10.1133333,20.38 11.16,20.5 C11.5666667,20.2466667 11.9933333,20.0333333 12.4533333,19.8666667 C12.3133333,19.8733333 12.1666667,19.88 12.0066667,19.88 C10.5866667,19.88 9.89333333,19.5133333 9.16,19.1266667 C8.38666667,18.72 7.58666667,18.3 6,18.3 C4.41333333,18.3 3.61333333,18.72 2.84,19.1266667 C2.10666667,19.5133333 1.41333333,19.88 -0.00666666667,19.88 L-0.00666666667,20.5466667 C1.57333333,20.5466667 2.38,20.1266667 3.15333333,19.72 C3.89333333,19.3333333 4.58666667,18.9666667 6.00666667,18.9666667 Z M6.00666667,22.3533333 C7.38666667,22.3533333 8.08,22.7 8.79333333,23.0733333 C8.89333333,22.8733333 9.00666667,22.68 9.12666667,22.5 C8.36,22.1 7.56,21.6866667 6,21.6866667 C4.44,21.6866667 3.61333333,22.1066667 2.84,22.5133333 C2.11333333,22.9066667 1.42,23.2666667 2.60208521e-18,23.2666667 L2.60208521e-18,23.9333333 C1.58,23.9333333 2.38666667,23.5133333 3.16,23.1066667 C3.89333333,22.72 4.58666667,22.3533333 6.00666667,22.3533333 L6.00666667,22.3533333 Z M6.00666667,29.1333333 C7.42666667,29.1333333 8.12,29.5 8.85333333,29.8866667 C9.03333333,29.98 9.21333333,30.0733333 9.40666667,30.1666667 C9.14666667,29.8266667 8.92,29.46 8.73333333,29.0733333 C8.07333333,28.7466667 7.3,28.4666667 6.00666667,28.4666667 C4.71333333,28.4666667 3.62,28.8866667 2.84666667,29.2933333 C2.11333333,29.68 1.42,30.0466667 2.60208521e-18,30.0466667 L2.60208521e-18,30.7133333 C1.58,30.7133333 2.38666667,30.2933333 3.16,29.8866667 C3.89333333,29.5 4.58666667,29.1333333 6.00666667,29.1333333 Z M32.9933333,26.2733333 L34.0266667,26 L31.2666667,15.6733333 C31.2533333,15.6333333 31.2733333,15.6 31.2866667,15.58 C31.3,15.56 31.3266667,15.54 31.3733333,15.54 L33.5866667,15.54 C34.0666667,15.5466667 34.46,15.94 34.46,16.42 C34.46,16.9 34.0666667,17.2933333 33.5866667,17.2933333 L33.5866667,18.36 C34.6533333,18.36 35.5266667,17.4866667 35.5266667,16.42 C35.5266667,15.3533333 34.6533333,14.48 33.5933333,14.48 L31.3733333,14.48 C31.0066667,14.4733333 30.6733333,14.64 30.4466667,14.9266667 C30.22,15.2133333 30.1466667,15.58 30.2333333,15.94 L32.9933333,26.2733333 L32.9933333,26.2733333 Z M14.0933333,19.5 C14.3,19.48 14.5066667,19.4666667 14.72,19.4666667 C14.9333333,19.4666667 15.2733333,19.4866667 15.5466667,19.52 C16.16,19.2133333 16.84,18.96 18.0133333,18.96 C19.1866667,18.96 18.1533333,18.96 18.22,18.9666667 L17.56,18.3066667 C16.2733333,18.38 15.5533333,18.7533333 14.8533333,19.12 C14.6066667,19.26 14.36,19.3866667 14.0933333,19.5 L14.0933333,19.5 Z M31.4,22.8933333 L30.8333333,20.76 C28.86,21.7466667 27.5066667,23.78 27.5066667,26.1333333 C27.5066667,28.4866667 30.1933333,32.1333333 33.5066667,32.1333333 C36.82,32.1333333 39.5066667,29.4466667 39.5066667,26.1333333 C39.5066667,22.82 36.82,20.1333333 33.5066667,20.1333333 C30.1933333,20.1333333 33.2666667,20.14 33.1466667,20.1466667 L33.7133333,22.2733333 C35.7466667,22.38 37.3733333,24.0733333 37.3733333,26.1333333 C37.3733333,28.1933333 35.64,30 33.5066667,30 C31.3733333,30 29.64,28.2666667 29.64,26.1333333 C29.64,24.78 30.34,23.5866667 31.4,22.8933333 L31.4,22.8933333 Z M24.5066667,9.72666667 C24.3666667,9.64666667 24.1933333,9.6 24,9.6 C23.8066667,9.6 23.6333333,9.64666667 23.4933333,9.72666667 C23.2933333,9.42 22.9133333,9.13333333 22.4533333,8.9 L20.4666667,10.8933333 C20.5333333,10.9133333 20.6066667,10.9333333 20.6733333,10.9533333 C21.12,11.0666667 21.5866667,11.1266667 22.0133333,11.1266667 C22.8266667,11.1266667 23.5,10.9 23.6333333,10.3733333 C23.66,10.26 23.7333333,10.1266667 24,10.1266667 C24.2666667,10.1266667 24.34,10.26 24.3666667,10.3733333 C24.4666667,10.76 24.8533333,10.98 25.3733333,11.0733333 L28.1466667,8.3 C27.6933333,8.28666667 27.1866667,8.35333333 26.7066667,8.47333333 C25.78,8.70666667 24.8666667,9.18 24.5066667,9.72666667 Z M14.6466667,13.8866667 L5.18,4.42 L4.42666667,5.18 L13.8933333,14.6466667 L14.6466667,13.8866667 L14.6466667,13.8866667 Z M26.5666667,1.68666667 C26.8466667,1.45333333 27.1466667,1.15333333 27.3266667,0.833333333 C26.5066667,0.26 25.4533333,0 24,0 C21.88,0 20.62,0.546666667 19.6933333,1.82666667 C19.0866667,2.66666667 18.7066667,3.65333333 18.48,4.65333333 C19.5666667,3.64666667 21.3933333,3.25333333 23.0666667,2.88666667 C24.5,2.58 25.84,2.28666667 26.5666667,1.68666667 Z M6.00666667,15.58 C7.42666667,15.58 8.12,15.9466667 8.85333333,16.3333333 C9.62666667,16.74 10.4266667,17.16 12.0133333,17.16 C13.6,17.16 14.3933333,16.74 15.1666667,16.3333333 C15.26,16.2866667 15.3466667,16.24 15.44,16.1933333 L14.9466667,15.7 C14.92,15.7133333 14.8866667,15.7333333 14.86,15.7466667 C14.1266667,16.1333333 13.4333333,16.5 12.0133333,16.5 C10.5933333,16.5 9.9,16.1333333 9.16666667,15.7466667 C8.39333333,15.34 7.59333333,14.92 6.00666667,14.92 C4.42,14.92 3.62,15.34 2.84666667,15.7466667 C2.11333333,16.1333333 1.42,16.5 2.60208521e-18,16.5 L2.60208521e-18,17.1666667 C1.58,17.1666667 2.38666667,16.7466667 3.16,16.34 C3.89333333,15.94 4.58666667,15.58 6.00666667,15.58 Z M18.3133333,9.28 C18.3533333,9.80666667 18.98,10.3066667 19.7733333,10.6466667 L21.7933333,8.62666667 C21.6266667,8.56666667 21.46,8.52 21.2933333,8.48 C20.4933333,8.28 19.6266667,8.24 19.0333333,8.43333333 C19.8466667,7.08666667 21.7666667,6.14 24,6.14 C26.2333333,6.14 28.1533333,7.08666667 28.9666667,8.43333333 L26.2733333,11.1266667 C26.62,11.1066667 26.98,11.0533333 27.3266667,10.96 C28.4866667,10.6666667 29.6266667,10.0066667 29.6866667,9.28666667 C29.9266667,7.69333333 29.9933333,4.17333333 28.3,1.83333333 C28.16,1.64 28.0066667,1.46 27.8466667,1.29333333 L27.8466667,1.29333333 C27.6533333,1.6 27.3733333,1.90666667 27,2.22 C26.1466667,2.92666667 24.7266667,3.24 23.2133333,3.56666667 C20.7866667,4.09333333 18.2733333,4.64 18.1933333,6.86 C18.16,7.82 18.2266667,8.68 18.3133333,9.28 Z M43.12,17.44 C43.5,18.0066667 43.8,18.62 44,19.2733333 L44.6333333,19.0733333 C44.4066667,18.3666667 44.0866667,17.6933333 43.6666667,17.0733333 L43.12,17.44 Z M41.6933333,27.04 C41.1666667,27.4733333 40.58,27.8266667 39.9533333,28.0933333 L40.2133333,28.7066667 C40.8933333,28.4133333 41.5333333,28.0266667 42.1133333,27.5533333 L41.6933333,27.04 Z M41.1066667,14.3 L40.6333333,14.7733333 L42.1533333,16.28 L42.62,15.8 L41.1066667,14.3 L41.1066667,14.3 Z M44.8733333,22.9 C44.96,22.4266667 45.0066667,21.94 45.0066667,21.4533333 C45.0066667,20.9666667 44.9933333,20.9333333 44.9666667,20.68 L44.3,20.7466667 C44.32,20.98 44.3333333,21.22 44.3333333,21.4533333 C44.3333333,21.9 44.2933333,22.34 44.2133333,22.7733333 L44.8733333,22.9 Z M38.0133333,12.1466667 L39.52,13.6533333 L39.9933333,13.18 L38.4866667,11.6733333 L38.0133333,12.1466667 Z M43.2733333,26.3866667 C43.74,25.8066667 44.12,25.16 44.4066667,24.48 L43.7933333,24.2266667 C43.5333333,24.8533333 43.1866667,25.44 42.76,25.9733333 L43.2733333,26.3866667 L43.2733333,26.3866667 Z M29.2666667,42.6066667 L28.16,42.6066667 C27.9733333,42.6066667 27.8266667,42.46 27.8266667,42.2733333 C27.8266667,42.0866667 27.9733333,41.94 28.16,41.94 L29.0533333,41.94 L28.8333333,41.2333333 L27.48,41.2333333 C27.2933333,41.2333333 27.1466667,41.0866667 27.1466667,40.9 C27.1466667,40.7133333 27.2933333,40.5666667 27.48,40.5666667 L28.6266667,40.5666667 L28.4066667,39.86 L26.8,39.86 C26.6133333,39.86 26.4666667,39.7133333 26.4666667,39.5266667 C26.4666667,39.34 26.6133333,39.1933333 26.8,39.1933333 L28.1933333,39.1933333 L27.9733333,38.4866667 L26.1133333,38.4866667 C25.9266667,38.4866667 25.78,38.34 25.78,38.1533333 C25.78,37.9666667 25.9266667,37.82 26.1133333,37.82 L27.7666667,37.82 L27.4533333,36.7466667 C23.5466667,37.2866667 24.72,35.04 23.5666667,34.18 C22.14,34.6666667 20.9266667,35.5933333 20.2533333,36.1933333 L20.34,36.34 C21.24,37.9333333 21.9,38.3333333 22.9933333,38.9933333 C23.5666667,39.34 24.22,39.7333333 25.0466667,40.3733333 C25.6933333,40.8733333 26.2733333,41.92 26.8933333,43.0333333 C27.4666667,44.0666667 28.06,45.14 28.66,45.7 C29.1666667,46.1733333 29.4266667,46.34 29.54,46.3933333 C30.08,46.04 30.5733333,46.1066667 31.3,46.6733333 C31.1266667,46.02 30.6066667,45.1866667 30.1933333,44.4933333 C29.76,43.7733333 29.52,43.3266667 29.2666667,42.6066667 L29.2666667,42.6066667 Z M20.5,27.74 C19.8,30.28 17.4733333,32.14 14.7133333,32.14 C11.9533333,32.14 8.71333333,29.4533333 8.71333333,26.14 C8.71333333,22.8266667 11.4,20.14 14.7133333,20.14 C18.0266667,20.14 16.58,20.3666667 17.3866667,20.7666667 L19.66,17.5666667 L18.7733333,14.6466667 L18.62,14.6866667 C18.42,14.7533333 18.2133333,14.7866667 18.0133333,14.7866667 C17.38,14.7866667 16.7666667,14.4733333 16.4066667,13.9266667 L16.18,13.5933333 C16.0866667,13.46 16.08,13.2866667 16.16,13.14 C16.2333333,13 16.3866667,12.9066667 16.5466667,12.9066667 L21.6866667,12.9066667 C21.96,12.9066667 22.1866667,13.1333333 22.1866667,13.4066667 C22.1866667,13.68 22.0466667,13.8133333 21.8466667,13.88 L19.82,14.3866667 L20.5266667,16.7066667 L29.76,16.7066667 L30.3466667,18.9 L23.5333333,26.7533333 C23.3533333,26.96 23.1,27.0733333 22.8266667,27.0733333 L14.72,27.0733333 C14.2066667,27.0733333 13.7866667,26.6533333 13.7866667,26.14 C13.7866667,25.6266667 13.8466667,25.7666667 13.9466667,25.6133333 L13.9466667,25.6133333 L16.1333333,22.54 C15.6933333,22.3666667 15.22,22.2733333 14.72,22.2733333 C12.5866667,22.2733333 10.8533333,24.0066667 10.8533333,26.14 C10.8533333,28.2733333 12.5866667,30.0066667 14.72,30.0066667 C16.8533333,30.0066667 17.6333333,29.0733333 18.24,27.74 L20.5,27.74 L20.5,27.74 Z M20.72,17.3733333 L22.92,24.6066667 L29.1933333,17.3733333 L20.72,17.3733333 L20.72,17.3733333 Z M16.7333333,22.84 L15.0533333,25.2066667 L21.9866667,25.2066667 L19.9133333,18.3733333 L17.9733333,21.1 C19.1933333,21.8866667 20.1066667,23.1066667 20.5,24.54 L18.2333333,24.54 C17.9133333,23.8333333 17.3866667,23.2466667 16.7333333,22.84 L16.7333333,22.84 Z M29.8866667,46.9666667 C29.74,47.0666667 29.62,47.1266667 29.4,47.06 C29.1266667,46.9733333 28.7333333,46.6866667 28.2,46.1866667 C27.5266667,45.5533333 26.9066667,44.4333333 26.3066667,43.3533333 C25.7266667,42.3 25.1733333,41.3133333 24.6333333,40.8933333 C23.8333333,40.28 23.2,39.8933333 22.64,39.5533333 C21.5333333,38.8866667 20.74,38.4 19.7533333,36.6666667 C19.74,36.6466667 19.7466667,36.6666667 19.7533333,36.6666667 C19.2666667,37 18.62,37.4533333 20.3066667,39.1866667 C20.3066667,39.1866667 21.3733333,40.52 23.38,41.9533333 C23.96,42.3666667 24.4333333,42.9066667 24.7933333,43.52 C26.1733333,45.84 28.42,47.1933333 28.42,47.1933333 C29.2466667,47.7933333 29.8466667,47.98 30.2733333,47.98 C30.9866667,47.98 31.22,47.4733333 31.22,47.4733333 L31.2133333,47.4733333 C30.3266667,46.6733333 30.1133333,46.8133333 29.8866667,46.9666667 L29.8866667,46.9666667 Z M33.5066667,32.8066667 C32.9333333,32.8066667 32.3733333,32.7333333 31.84,32.5933333 L42.82,43.5733333 L43.5733333,42.82 L33.56,32.8066667 L33.5066667,32.8066667 L33.5066667,32.8066667 Z M4.42666667,42.82 L5.18,43.5733333 L16.0933333,32.66 C15.6466667,32.7533333 15.1866667,32.8066667 14.7133333,32.8066667 C14.24,32.8066667 14.54,32.8066667 14.4533333,32.8 C14.4466667,32.8 14.4466667,32.8066667 14.44,32.8066667 C13.7866667,33.14 13.2733333,33.4333333 12.0066667,33.4333333 C10.74,33.4333333 9.89333333,33.0666667 9.16,32.68 C8.38666667,32.2733333 7.58666667,31.8533333 6,31.8533333 C4.41333333,31.8533333 3.61333333,32.2733333 2.84,32.68 C2.10666667,33.0666667 1.41333333,33.4333333 -0.00666666667,33.4333333 L-0.00666666667,34.1 C1.57333333,34.1 2.38,33.68 3.15333333,33.2733333 C3.88666667,32.8866667 4.58,32.52 6,32.52 C7.42,32.52 8.11333333,32.8866667 8.84666667,33.2733333 C9.62,33.68 10.42,34.1 12.0066667,34.1 C13.5933333,34.1 12.8933333,34.06 13.2466667,33.9933333 L10.58,36.66 C10.0133333,36.52 9.59333333,36.3 9.16,36.0666667 C8.38666667,35.66 7.58666667,35.24 6,35.24 C4.41333333,35.24 3.61333333,35.66 2.84,36.0666667 C2.10666667,36.4533333 1.41333333,36.82 -0.00666666667,36.82 L-0.00666666667,37.4866667 C1.57333333,37.4866667 2.38,37.0666667 3.15333333,36.66 C3.88666667,36.2733333 4.58,35.9066667 6,35.9066667 C7.42,35.9066667 8.11333333,36.2733333 8.84666667,36.66 C9.21333333,36.8533333 9.58666667,37.0466667 10.04,37.2 L4.42666667,42.82 L4.42666667,42.82 Z M44.4266667,13.3933333 L39.8933333,8.86 L39.8933333,8.86 C39.8933333,8.85333333 43.5733333,5.17333333 43.5733333,5.17333333 L42.82,4.42 L33.4333333,13.8066667 L33.5866667,13.8066667 C33.98,13.8066667 34.3533333,13.9 34.6933333,14.06 L35.1933333,13.56 L39.9466667,18.3133333 L39.96,18.3266667 C40.8466667,19.1266667 41.3533333,20.2666667 41.3533333,21.46 C41.3533333,22.6533333 40.8266667,23.7933333 39.9866667,24.5666667 C40.0466667,24.8133333 40.0933333,25.0666667 40.1266667,25.32 C41.28,24.4266667 42.02,23.0266667 42.02,21.46 C42.02,19.8933333 41.4333333,18.7666667 40.4133333,17.84 L35.66,13.0866667 L39.4133333,9.33333333 L43.9533333,13.8733333 L43.9666667,13.8866667 C46.1,15.82 47.3266667,18.58 47.3266667,21.46 C47.3266667,27.0533333 42.8066667,31.6066667 37.2266667,31.6666667 C36.8333333,31.9333333 36.4066667,32.16 35.96,32.3333333 L37.1133333,32.3333333 C43.1133333,32.3333333 47.9933333,27.4533333 47.9933333,21.4533333 C47.9933333,15.4533333 46.6933333,15.4533333 44.42,13.3933333 L44.4266667,13.3933333 Z" id="形状" fill="url(#linearGradient-3)" mask="url(#mask-2)"></path>
        </g>
    </g>
</svg>