<?xml version="1.0" encoding="UTF-8"?>
<svg width="48px" height="48px" viewBox="0 0 48 48" version="1.1" xmlns="http://www.w3.org/2000/svg" xmlns:xlink="http://www.w3.org/1999/xlink">
    <title>ATH</title>
    <defs>
        <rect id="path-1" x="0" y="0" width="48" height="48"></rect>
        <linearGradient x1="0%" y1="50%" x2="100%" y2="50%" id="linearGradient-3">
            <stop stop-color="#A8B2DE" offset="0%"></stop>
            <stop stop-color="#7D84C2" offset="100%"></stop>
        </linearGradient>
    </defs>
    <g id="ATH" stroke="none" stroke-width="1" fill="none" fill-rule="evenodd">
        <g id="ATH_small">
            <mask id="mask-2" fill="white">
                <use xlink:href="#path-1"></use>
            </mask>
            <g id="矩形"></g>
            <path d="M9.14,13.2466667 L22.3866667,0 L22.86,0.473333333 L8.86666667,14.46 C9,14.0733333 9.09333333,13.6733333 9.14,13.2466667 Z M12.0066667,5.28666667 L16.82,0.473333333 L16.3533333,0 L11.5666667,4.78666667 C11.76,4.94 11.9066667,5.10666667 12.0066667,5.28666667 Z M7.26,12.9 C7.49333333,9.60666667 8,8.50666667 9.11333333,7.15333333 C9.76,6.36666667 10.18,5.45333333 10.3533333,4.79333333 C10.32,4.78 10.2933333,4.76666667 10.26,4.74666667 C9.07333333,4.22666667 8.04,3.88 7.24666667,3.72 C6.4,3.56 5.98,3.51333333 5.73333333,3.78666667 C7.12666667,5.58 5.89333333,8.04666667 3.66,8.22666667 C3.66,8.22666667 3.70666667,8.71333333 3.76,9.43333333 L5.25333333,8.66666667 C5.42,8.58 5.62,8.64666667 5.7,8.81333333 C5.78666667,8.98 5.72,9.18 5.55333333,9.26 L3.8,10.1533333 C3.8,10.3266667 3.82,10.5133333 3.82666667,10.7 L5.00666667,10.1 C5.17333333,10.0133333 5.37333333,10.08 5.45333333,10.2466667 C5.54,10.4133333 5.47333333,10.6133333 5.30666667,10.6933333 L3.85333333,11.44 C3.85333333,11.6266667 3.85333333,11.8066667 3.86666667,11.9933333 L4.76666667,11.5333333 C4.93333333,11.4466667 5.13333333,11.5133333 5.21333333,11.68 C5.3,11.8466667 5.23333333,12.0466667 5.06666667,12.1266667 L3.86,12.74 C3.86,12.82 3.86,12.9066667 3.86,12.9866667 C3.86,13.1 3.84666667,13.2066667 3.84,13.3133333 L4.52666667,12.96 C4.69333333,12.8733333 4.89333333,12.94 4.97333333,13.1066667 C5.06,13.2733333 4.99333333,13.4733333 4.82666667,13.5533333 L3.72,14.12 C3.40666667,15.6733333 2.67333333,16.98 2.57333333,17.9866667 C2.57333333,18.0333333 2.57333333,18.08 2.57333333,18.12 C5.46666667,16.74 7.13333333,14.8866667 7.27333333,12.9 L7.26,12.9 Z M7.92666667,12.9466667 C7.76666667,15.1866667 5.96666667,17.2266667 2.85333333,18.72 C3.02666667,18.8533333 3.27333333,18.9066667 3.56,18.8133333 C3.70666667,18.7666667 4.03333333,18.6133333 4.46,18.3666667 L4.77333333,18.72 L4.62666667,18.2666667 C5.06666667,18 5.59333333,17.64 6.10666667,17.1866667 L6.52666667,17.54 L6.25333333,17.06 C6.74666667,16.62 7.22,16.1 7.60666667,15.5066667 L7.99333333,15.6866667 L7.69333333,15.38 C8.12,14.6866667 8.42666667,13.9 8.49333333,13.0266667 C8.55333333,12.18 8.66,11.4733333 8.79333333,10.8666667 C9.32666667,8.81333333 10.36,8.04666667 10.84,7.34666667 C11.5666667,6.28666667 11.8666667,5.72666667 10.94,5.16 C10.7133333,5.91333333 10.2666667,6.80666667 9.63333333,7.57333333 C8.64666667,8.77333333 8.16,9.68666667 7.92666667,12.9466667 Z M48,13.3133333 L43.72,17.5933333 C43.78,19.5266667 43.4466667,21.4666667 42.7,23.28 L47.2466667,18.7333333 L48,19.4866667 L27.7933333,39.7 C22.42,45.0733333 13.6733333,45.0733333 8.3,39.7 C7.21333333,38.6133333 6.34666667,37.3866667 5.7,36.08 L0.753333333,41.0266667 L0,40.2666667 L5.24,35.0266667 C4.76666667,33.82 4.46666667,32.56 4.34,31.2866667 L0.473333333,35.1533333 L0,34.6866667 L4.28,30.4066667 C4.22,28.4733333 4.55333333,26.5333333 5.3,24.72 L0.753333333,29.2666667 L0,28.5066667 L20.2066667,8.3 C25.58,2.92666667 34.3266667,2.92666667 39.7,8.3 C40.7866667,9.38666667 41.6533333,10.6133333 42.3,11.92 L47.2466667,6.97333333 L48,7.73333333 L42.76,12.9733333 C43.2333333,14.18 43.5333333,15.44 43.66,16.7133333 L47.5266667,12.8466667 L48,13.3133333 Z M5.35333333,29.3333333 L22.6666667,12.0266667 C26.34,8.35333333 32.3066667,8.35333333 35.98,12.0266667 C37.1066667,13.1533333 37.88,14.4933333 38.32,15.9133333 L41.5066667,12.7266667 C40.8933333,11.4 40.0466667,10.1533333 38.9533333,9.06 C33.9933333,4.1 25.9266667,4.1 20.9733333,9.06 L9.06,20.96 C6.73333333,23.28 5.5,26.2866667 5.35333333,29.3333333 Z M34.0666667,20.1533333 L37.7733333,16.4466667 C37.3933333,15 36.64,13.6266667 35.5066667,12.4933333 C32.0933333,9.08 26.5466667,9.08 23.14,12.4933333 L12.4933333,23.1333333 C10.5466667,25.08 9.71333333,27.7266667 9.98666667,30.2733333 L24.8,15.4666667 C26.9333333,13.3333333 30.4,13.3333333 32.5333333,15.4666667 C34.6666667,17.6 34.32,18.4933333 34.0666667,20.1533333 Z M31.7733333,22.4466667 L31.7733333,22.4466667 C33.4866667,20.7266667 33.4866667,17.94 31.7733333,16.2266667 C30.06,14.5133333 27.2666667,14.5133333 25.5466667,16.2266667 L16.2133333,25.56 C14.5,27.2733333 14.5,30.0666667 16.2133333,31.7866667 C17.9266667,33.5 20.72,33.5 22.44,31.7866667 L31.7733333,22.4466667 L31.7733333,22.4466667 Z M10.2266667,31.5466667 C10.6066667,32.9933333 11.36,34.3666667 12.4933333,35.5 C15.9066667,38.9133333 21.4533333,38.9133333 24.86,35.5 L35.5,24.8666667 C37.4466667,22.92 38.28,20.2733333 38.0066667,17.7266667 L23.2,32.5333333 C21.0666667,34.6666667 17.6,34.6666667 15.4666667,32.5333333 C13.3333333,30.4 13.68,29.5066667 13.9333333,27.8466667 L10.2266667,31.5466667 Z M6.06666667,34.2 L9.4,30.8666667 C9.10666667,29.1 9.32,27.26 10.04,25.5933333 L5.34666667,30.2866667 C5.38,31.6133333 5.62,32.9333333 6.06666667,34.2 Z M42.6466667,18.6666667 L25.3333333,35.9733333 C21.66,39.6466667 15.6933333,39.6466667 12.02,35.9733333 C10.8933333,34.8466667 10.12,33.5066667 9.68,32.0866667 L6.49333333,35.2733333 C7.10666667,36.6 7.95333333,37.8466667 9.04666667,38.94 C14.0066667,43.9 22.0733333,43.9 27.0266667,38.94 L38.9333333,27.04 L38.9333333,27.04 C41.2666667,24.7133333 42.5,21.7133333 42.6466667,18.6666667 L42.6466667,18.6666667 Z M42.6533333,17.7133333 C42.62,16.3866667 42.38,15.06 41.9333333,13.7933333 L38.6,17.1266667 C38.8933333,18.8933333 38.68,20.7333333 37.96,22.4 L42.6533333,17.7133333 Z M39.1333333,33.54 L25.14,47.5266667 L25.6133333,48 L38.86,34.7533333 C38.9066667,34.3266667 39,33.9266667 39.1333333,33.54 L39.1333333,33.54 Z M35.9866667,42.7133333 L31.1733333,47.5266667 L31.6466667,48 L36.4333333,43.2133333 C36.24,43.06 36.0933333,42.8933333 35.9866667,42.7133333 L35.9866667,42.7133333 Z M40.74,35.1 C40.5066667,38.3933333 40,39.4933333 38.8866667,40.8466667 C38.24,41.6333333 37.82,42.5466667 37.6466667,43.2066667 C37.68,43.22 37.7066667,43.2333333 37.74,43.2533333 C38.9266667,43.7733333 39.96,44.12 40.7533333,44.28 C41.6,44.4466667 42.0266667,44.4933333 42.2666667,44.22 C40.8733333,42.4266667 42.1066667,39.96 44.34,39.78 C44.34,39.78 44.2933333,39.2933333 44.24,38.5733333 L42.7466667,39.3333333 C42.58,39.42 42.38,39.3533333 42.3,39.1866667 C42.2133333,39.02 42.28,38.82 42.4466667,38.74 L44.2,37.8466667 C44.2,37.6733333 44.18,37.4866667 44.1733333,37.3 L42.9933333,37.9 C42.8266667,37.9866667 42.6266667,37.92 42.5466667,37.7533333 C42.46,37.5866667 42.5266667,37.3866667 42.6933333,37.3066667 L44.1466667,36.56 C44.1466667,36.3733333 44.1466667,36.1933333 44.1333333,36.0066667 L43.2333333,36.4666667 C43.0666667,36.5533333 42.8666667,36.4866667 42.7866667,36.32 C42.7,36.1533333 42.7666667,35.9533333 42.9333333,35.8733333 L44.14,35.26 C44.14,35.18 44.14,35.0933333 44.14,35.0133333 C44.14,34.9 44.1533333,34.7933333 44.16,34.6866667 L43.4733333,35.04 C43.3066667,35.1266667 43.1066667,35.06 43.0266667,34.8933333 C42.9466667,34.7266667 43.0066667,34.5266667 43.1733333,34.4466667 L44.28,33.88 C44.5933333,32.3266667 45.3266667,31.02 45.4266667,30.0133333 C45.4266667,29.9666667 45.4266667,29.92 45.4266667,29.88 C42.5333333,31.26 40.8666667,33.1133333 40.7266667,35.1 L40.74,35.1 Z M40.0733333,35.0533333 C40.2333333,32.8133333 42.0333333,30.7733333 45.1466667,29.28 C44.9733333,29.1466667 44.7266667,29.0933333 44.44,29.1866667 C44.2933333,29.2333333 43.9666667,29.3866667 43.54,29.6333333 L43.2266667,29.28 L43.3733333,29.7333333 C42.9333333,30 42.4066667,30.36 41.8933333,30.8133333 L41.4733333,30.46 L41.7466667,30.94 C41.2533333,31.38 40.78,31.9 40.3933333,32.4933333 L40.0066667,32.3133333 L40.3066667,32.62 C39.88,33.3133333 39.5733333,34.1 39.5066667,34.9733333 C39.4466667,35.82 39.34,36.5266667 39.2066667,37.1333333 C38.6733333,39.1866667 37.64,39.9533333 37.16,40.6533333 C36.4333333,41.7133333 36.1333333,42.2733333 37.06,42.84 C37.2866667,42.0866667 37.7333333,41.1933333 38.3666667,40.4266667 C39.3533333,39.2266667 39.84,38.3133333 40.0733333,35.0533333 L40.0733333,35.0533333 Z" id="形状" fill="url(#linearGradient-3)" mask="url(#mask-2)"></path>
        </g>
    </g>
</svg>