<?xml version="1.0" encoding="UTF-8"?>
<svg width="48px" height="48px" viewBox="0 0 48 48" version="1.1" xmlns="http://www.w3.org/2000/svg" xmlns:xlink="http://www.w3.org/1999/xlink">
    <title>RUS</title>
    <defs>
        <rect id="path-1" x="0" y="0" width="48" height="48"></rect>
        <linearGradient x1="0%" y1="50%" x2="100%" y2="50%" id="linearGradient-3">
            <stop stop-color="#A8B2DE" offset="0%"></stop>
            <stop stop-color="#7D84C2" offset="100%"></stop>
        </linearGradient>
    </defs>
    <g id="RUS" stroke="none" stroke-width="1" fill="none" fill-rule="evenodd">
        <g id="RUS_small">
            <mask id="mask-2" fill="white">
                <use xlink:href="#path-1"></use>
            </mask>
            <g id="矩形"></g>
            <path d="M22.64,3.89333333 L21.5,2.75333333 L21.9733333,2.28 L23.1133333,3.42 L22.64,3.89333333 Z M20.8266667,1.14 L19.6866667,0 L19.2133333,0.473333333 L20.3533333,1.61333333 L20.8266667,1.14 L20.8266667,1.14 Z M3.89333333,22.64 L2.75333333,21.5 L2.28,21.9733333 L3.42,23.1133333 L3.89333333,22.64 Z M25.3933333,5.70666667 L24.2533333,4.56666667 L23.78,5.04 L24.92,6.18 L25.3933333,5.70666667 Z M26.6066667,10.1133333 L20.7666667,15.9533333 L22.4666667,17.6533333 L28.3066667,11.8133333 L27.8333333,11.34 L28.8133333,10.36 L37.64,19.1866667 L36.66,20.1666667 L36.1866667,19.6933333 L30.3466667,25.5333333 L32.0466667,27.2333333 L37.8866667,21.3933333 L37.4133333,20.92 L48,10.34 L47.2466667,9.58666667 L38.4,18.4266667 L29.5666667,9.6 L38.4133333,0.753333333 L37.66,0 L27.08,10.58 L26.6066667,10.1133333 Z M40.42,2.14 C42.64,-0.0866666667 45.66,-0.666666667 47.1666667,0.833333333 C48.6733333,2.33333333 48.0866667,5.36 45.86,7.58 C43.6333333,9.80666667 40.6133333,10.3866667 39.1133333,8.88666667 C37.6133333,7.38666667 38.1933333,4.36 40.42,2.14 Z M44.8533333,6.57333333 C43.6133333,7.81333333 42.26,8.68666667 41.1466667,9.04666667 C41.44,9.06 41.76,9.04 42.0933333,8.97333333 C43.24,8.75333333 44.4133333,8.08666667 45.3933333,7.10666667 C46.3733333,6.12666667 47.04,4.95333333 47.26,3.80666667 C47.3266667,3.47333333 47.3466667,3.16 47.3333333,2.86 C46.9666667,3.98 46.0933333,5.33333333 44.8533333,6.57333333 Z M45.0266667,1.42 C44.0266667,1.82666667 42.9133333,2.60666667 41.9,3.62 C40.8866667,4.63333333 40.1066667,5.74666667 39.7,6.74666667 C39.3866667,7.52 39.3466667,8.17333333 39.5866667,8.42 C39.8266667,8.66 40.4866667,8.62 41.26,8.30666667 C42.26,7.9 43.3733333,7.12 44.3866667,6.10666667 C45.4,5.09333333 46.18,3.98 46.5866667,2.98 C46.9,2.20666667 46.94,1.55333333 46.7,1.30666667 C46.4533333,1.06666667 45.7933333,1.10666667 45.0266667,1.42 Z M39.02,5.90666667 C38.9533333,6.24 38.9333333,6.55333333 38.9466667,6.85333333 C39.3066667,5.74 40.18,4.38666667 41.42,3.14666667 C42.6666667,1.90666667 44.02,1.03333333 45.1333333,0.673333333 C44.84,0.66 44.52,0.68 44.1866667,0.746666667 C43.04,0.966666667 41.8666667,1.63333333 40.8866667,2.61333333 C39.9066667,3.59333333 39.2466667,4.76666667 39.02,5.90666667 Z M1.61333333,20.3533333 L0.473333333,19.2133333 L0,19.6866667 L1.14,20.8266667 L1.61333333,20.3533333 Z M40.6866667,21.94 L41.16,21.4666667 L40.02,20.3266667 L39.5466667,20.8 L40.6866667,21.94 Z M27.6733333,7.98666667 L26.5333333,6.84666667 L26.06,7.32 L27.2,8.46 L27.6733333,7.98666667 L27.6733333,7.98666667 Z M7.31333333,26.06 L6.84,26.5333333 L7.98,27.6733333 L8.45333333,27.2 L7.31333333,26.06 L7.31333333,26.06 Z M24.8933333,44.5733333 L26.0333333,45.7133333 L26.5066667,45.24 L25.3666667,44.1 L24.8933333,44.5733333 Z M27.1733333,46.86 L28.3133333,48 L28.7866667,47.5266667 L27.6466667,46.3866667 L27.1733333,46.86 Z M41.8266667,23.08 L42.9666667,24.22 L43.44,23.7466667 L42.3,22.6066667 L41.8266667,23.08 Z M7.58,45.86 C5.36,48.0866667 2.34,48.6666667 0.833333333,47.1666667 C-0.666666667,45.66 -0.0866666667,42.64 2.14,40.4133333 C4.36666667,38.1866667 7.38666667,37.6066667 8.88666667,39.1066667 C10.3866667,40.6133333 9.80666667,43.6333333 7.58,45.86 Z M3.14666667,41.4266667 C4.38666667,40.1866667 5.74,39.3133333 6.85333333,38.9533333 C6.56,38.94 6.24,38.9533333 5.90666667,39.0266667 C4.76,39.2466667 3.58666667,39.9133333 2.60666667,40.8933333 C1.62666667,41.8733333 0.96,43.0466667 0.74,44.1933333 C0.673333333,44.5266667 0.653333333,44.84 0.666666667,45.14 C1.03333333,44.02 1.90666667,42.6666667 3.14666667,41.4266667 Z M2.97333333,46.58 C3.97333333,46.1733333 5.08666667,45.3933333 6.1,44.38 C7.11333333,43.3666667 7.89333333,42.2533333 8.3,41.2533333 C8.61333333,40.48 8.65333333,39.8266667 8.41333333,39.58 C8.17333333,39.34 7.51333333,39.38 6.74,39.6933333 C5.74,40.1 4.62666667,40.88 3.61333333,41.8933333 C2.6,42.9066667 1.82,44.02 1.41333333,45.02 C1.1,45.7933333 1.06,46.4466667 1.3,46.6933333 C1.54666667,46.9333333 2.20666667,46.8866667 2.97333333,46.58 Z M8.98,42.0866667 C9.04666667,41.7533333 9.06666667,41.44 9.05333333,41.14 C8.69333333,42.2533333 7.82,43.6066667 6.58,44.8466667 C5.33333333,46.0933333 3.98,46.9666667 2.86666667,47.3266667 C3.16,47.34 3.48,47.3266667 3.81333333,47.2533333 C4.96,47.0333333 6.13333333,46.3666667 7.11333333,45.3866667 C8.09333333,44.4066667 8.75333333,43.2333333 8.98,42.0866667 Z M46.86,27.1733333 L46.3866667,27.6466667 L47.5266667,28.7866667 L48,28.3133333 L46.86,27.1733333 Z M44.1066667,25.36 L45.2466667,26.5 L45.72,26.0266667 L44.58,24.8866667 L44.1066667,25.36 Z M21.3933333,37.8866667 L27.2333333,32.0466667 L25.5333333,30.3466667 L19.6933333,36.1866667 L20.1666667,36.66 L19.1866667,37.64 L10.3533333,28.8133333 L11.3333333,27.8333333 L11.8066667,28.3066667 L17.6466667,22.4666667 L15.9466667,20.7666667 L10.1066667,26.6066667 L10.58,27.08 L0,37.66 L0.753333333,38.4133333 L9.6,29.5666667 L18.4333333,38.4 L9.58666667,47.2466667 L10.34,48 L20.92,37.42 L21.3933333,37.8866667 L21.3933333,37.8866667 Z M5.03333333,23.78 L4.56,24.2533333 L5.7,25.3933333 L6.17333333,24.92 L5.03333333,23.78 Z M22.6066667,42.2933333 L23.7466667,43.4333333 L24.22,42.96 L23.08,41.82 L22.6066667,42.2933333 Z M20.3266667,40.0133333 L21.4666667,41.1533333 L21.94,40.68 L20.8,39.54 L20.3266667,40.0133333 Z M41.0333333,35.8666667 L40.56,35.3933333 L38.2133333,37.74 L10.2533333,9.78666667 L12.6,7.44 L12.1266667,6.96666667 L9.78,9.31333333 L5.03333333,4.56 L4.56,5.03333333 L9.30666667,9.78 L6.96666667,12.1333333 L7.44,12.6066667 L9.78666667,10.26 L37.7466667,38.22 L35.4,40.5666667 L35.8733333,41.04 L38.22,38.6933333 L42.9666667,43.44 L43.2,43.2 L43.4333333,42.9666667 L38.6866667,38.22 L41.0333333,35.8666667 L41.0333333,35.8666667 Z" id="形状" fill="url(#linearGradient-3)" mask="url(#mask-2)"></path>
        </g>
    </g>
</svg>