<?xml version="1.0" encoding="UTF-8"?>
<svg width="48px" height="48px" viewBox="0 0 48 48" version="1.1" xmlns="http://www.w3.org/2000/svg" xmlns:xlink="http://www.w3.org/1999/xlink">
    <title>ARC</title>
    <defs>
        <rect id="path-1" x="0" y="0" width="48" height="48"></rect>
        <linearGradient x1="0%" y1="50%" x2="100%" y2="50%" id="linearGradient-3">
            <stop stop-color="#A8B2DE" offset="0%"></stop>
            <stop stop-color="#7D84C2" offset="100%"></stop>
        </linearGradient>
    </defs>
    <g id="ARC" stroke="none" stroke-width="1" fill="none" fill-rule="evenodd">
        <g id="ARC_small">
            <mask id="mask-2" fill="white">
                <use xlink:href="#path-1"></use>
            </mask>
            <g id="矩形"></g>
            <path d="M36.1133333,35.64 C42.36,29.14 42.36,18.8533333 36.1133333,12.36 L38.5333333,9.94 C41,12.2866667 44.3333333,13.7333333 48,13.7333333 L48,12.6666667 C44.6266667,12.6666667 41.56,11.34 39.2866667,9.18666667 L43.14,5.33333333 L44.6266667,5.33333333 L48,1.92666667 L46.0733333,1.92666667 L46.0733333,0 L42.6666667,3.38 L42.6666667,4.86666667 L38.8133333,8.72 C36.66,6.44 35.3333333,3.37333333 35.3333333,0 L34.2666667,0 C34.2666667,3.66666667 35.7133333,7 38.06,9.46666667 L35.64,11.8866667 C29.14,5.64 18.8533333,5.64 12.36,11.8866667 L9.94,9.46666667 C12.2866667,7 13.7333333,3.66666667 13.7333333,0 L12.6666667,0 C12.6666667,3.37333333 11.34,6.44 9.18666667,8.71333333 L5.33333333,4.86 L5.33333333,3.38 L1.92666667,0 L1.92666667,1.92666667 L0,1.92666667 L3.38,5.33333333 L4.86666667,5.33333333 L8.72,9.18666667 C6.44,11.34 3.37333333,12.6666667 0,12.6666667 L0,13.7333333 C3.66666667,13.7333333 7,12.2866667 9.46666667,9.94 L11.8866667,12.36 C5.64,18.86 5.64,29.1466667 11.8866667,35.64 L9.46666667,38.06 C7,35.7133333 3.66666667,34.2666667 0,34.2666667 L0,35.3333333 C3.37333333,35.3333333 6.44,36.66 8.71333333,38.8133333 L4.86,42.6666667 L3.38,42.6666667 L0,46.0733333 L1.92666667,46.0733333 L1.92666667,48 L5.33333333,44.62 L5.33333333,43.1333333 L9.18666667,39.28 C11.34,41.56 12.6666667,44.6266667 12.6666667,48 L13.7333333,48 C13.7333333,44.3333333 12.2866667,41 9.94,38.5333333 L12.36,36.1133333 C18.86,42.36 29.1466667,42.36 35.64,36.1133333 L38.06,38.5333333 C35.7133333,41 34.2666667,44.3333333 34.2666667,48 L35.3333333,48 C35.3333333,44.6266667 36.66,41.56 38.8133333,39.2866667 L42.6666667,43.14 L42.6666667,44.6266667 L46.0733333,48.0066667 L46.0733333,46.08 L48,46.08 L44.62,42.6666667 L43.1333333,42.6666667 L39.28,38.8133333 C41.56,36.66 44.6266667,35.3333333 48,35.3333333 L48,34.2666667 C44.3333333,34.2666667 41,35.7133333 38.5333333,38.06 L36.1133333,35.64 Z M34.8866667,12.64 L33.9466667,13.58 C28.3866667,8.26666667 19.62,8.26666667 14.06,13.58 L13.12,12.64 C19.1933333,6.80666667 28.8066667,6.80666667 34.8866667,12.64 Z M25.2333333,25.22 L26.7666667,26.3 C26.6266667,26.4666667 26.4666667,26.6266667 26.3,26.7666667 L25.22,25.2333333 C24.5466667,25.9 23.46,25.9 22.7866667,25.2333333 L21.7066667,26.7666667 C21.54,26.6266667 21.38,26.4666667 21.24,26.3 L22.7733333,25.22 C22.1066667,24.5466667 22.1066667,23.46 22.7733333,22.7866667 L21.24,21.7 C21.38,21.5333333 21.54,21.3733333 21.7066667,21.2333333 L22.7933333,22.7666667 C23.4666667,22.1 24.5533333,22.1 25.2266667,22.7666667 L26.3066667,21.2333333 C26.4733333,21.3733333 26.6333333,21.5333333 26.7733333,21.7 L25.24,22.78 C25.9,23.46 25.9,24.54 25.24,25.22 L25.2333333,25.22 Z M26.3,21.2266667 C24.9733333,20.12 23.0333333,20.12 21.7,21.2266667 L20.4733333,20 C22.4866667,18.22 25.5133333,18.22 27.5266667,20 L26.3,21.2266667 L26.3,21.2266667 Z M21.2266667,21.7 C20.12,23.0266667 20.12,24.9666667 21.2266667,26.3 L20,27.5266667 C18.22,25.5133333 18.22,22.4866667 20,20.4733333 L21.2266667,21.7 L21.2266667,21.7 Z M21.7,26.7666667 C23.0266667,27.8733333 24.9666667,27.8733333 26.3,26.7666667 L27.5266667,27.9933333 C25.5133333,29.7733333 22.4866667,29.7733333 20.4733333,27.9933333 L21.7,26.7666667 L21.7,26.7666667 Z M26.7666667,26.3 C27.8733333,24.9733333 27.8733333,23.0333333 26.7666667,21.7 L27.9933333,20.4733333 C29.7733333,22.4866667 29.7733333,25.5133333 27.9933333,27.5266667 L26.7666667,26.3 L26.7666667,26.3 Z M19.1533333,18.68 L17.9266667,17.4533333 C21.3466667,14.2733333 26.6533333,14.2733333 30.08,17.4533333 L28.8533333,18.68 C26.1066667,16.1733333 21.8933333,16.1733333 19.1533333,18.68 L19.1533333,18.68 Z M18.68,19.1533333 C16.1733333,21.9 16.1733333,26.1066667 18.68,28.8533333 L17.4533333,30.08 C14.2733333,26.66 14.2733333,21.3533333 17.4533333,17.9266667 L18.68,19.1533333 L18.68,19.1533333 Z M19.1533333,29.32 C21.9,31.8266667 26.1066667,31.8266667 28.8533333,29.32 L30.08,30.5466667 C26.66,33.7266667 21.3533333,33.7266667 17.9266667,30.5466667 L19.1533333,29.32 L19.1533333,29.32 Z M29.32,28.8466667 C31.8266667,26.1 31.8266667,21.8933333 29.32,19.1466667 L30.5466667,17.92 C33.7266667,21.34 33.7266667,26.6466667 30.5466667,30.0733333 L29.32,28.8466667 L29.32,28.8466667 Z M16.6066667,16.1333333 L15.38,14.9066667 C20.2066667,10.32 27.7933333,10.32 32.62,14.9066667 L31.3933333,16.1333333 C27.24,12.2266667 20.76,12.2266667 16.6066667,16.1333333 Z M16.1333333,16.6066667 C12.2266667,20.76 12.2266667,27.2466667 16.1333333,31.4 L14.9066667,32.6266667 C10.32,27.8 10.32,20.2133333 14.9066667,15.3866667 L16.1333333,16.6066667 Z M16.6066667,31.8666667 C20.76,35.7733333 27.2466667,35.7733333 31.4,31.8666667 L32.6266667,33.0933333 C27.7933333,37.68 20.2133333,37.68 15.3866667,33.0933333 L16.6066667,31.8666667 Z M31.8666667,31.3933333 C35.7733333,27.24 35.7733333,20.7533333 31.8666667,16.6 L33.0933333,15.3733333 C37.68,20.2 37.68,27.7866667 33.0933333,32.6133333 L31.8666667,31.3933333 Z M12.64,13.1133333 L13.58,14.0533333 C8.26666667,19.6133333 8.26666667,28.38 13.58,33.94 L12.64,34.88 C6.80666667,28.8066667 6.80666667,19.1933333 12.64,13.1133333 Z M13.1133333,35.36 L14.0533333,34.42 C19.6133333,39.7333333 28.38,39.7333333 33.94,34.42 L34.88,35.36 C28.8066667,41.1933333 19.1933333,41.1933333 13.1133333,35.36 Z M35.36,34.8866667 L34.42,33.9466667 C39.7333333,28.3866667 39.7333333,19.62 34.42,14.06 L35.36,13.12 C41.1933333,19.1933333 41.1933333,28.8066667 35.36,34.8866667 Z" id="形状" fill="url(#linearGradient-3)" mask="url(#mask-2)"></path>
        </g>
    </g>
</svg>