<?xml version="1.0" encoding="UTF-8"?>
<svg width="48px" height="48px" viewBox="0 0 48 48" version="1.1" xmlns="http://www.w3.org/2000/svg" xmlns:xlink="http://www.w3.org/1999/xlink">
    <title>BKB</title>
    <defs>
        <rect id="path-1" x="0" y="0" width="48" height="48"></rect>
        <linearGradient x1="0%" y1="50%" x2="100%" y2="50%" id="linearGradient-3">
            <stop stop-color="#A8B2DE" offset="0%"></stop>
            <stop stop-color="#7D84C2" offset="100%"></stop>
        </linearGradient>
    </defs>
    <g id="BKB" stroke="none" stroke-width="1" fill="none" fill-rule="evenodd">
        <g id="BKB_small">
            <mask id="mask-2" fill="white">
                <use xlink:href="#path-1"></use>
            </mask>
            <g id="矩形"></g>
            <path d="M21,6.64 C20.9,4.86666667 20.28,3.19333333 19.2266667,1.78666667 C20.3733333,0.773333333 21.8466667,0.12 23.4666667,0 L23.4666667,6.64 L21,6.64 Z M28.7733333,1.78666667 C27.6266667,0.773333333 26.1533333,0.12 24.5333333,0 L24.5333333,6.64 L27,6.64 C27.1066667,4.87333333 27.72,3.19333333 28.7733333,1.78666667 Z M19.9266667,7.70666667 L16.82,7.70666667 C16.9333333,9.25333333 17.5333333,10.6666667 18.4733333,11.7866667 C19.3266667,10.5933333 19.8333333,9.19333333 19.9266667,7.70666667 L19.9266667,7.70666667 Z M19.9266667,6.64 C19.8266667,5.16 19.3266667,3.75333333 18.4733333,2.56 C17.5333333,3.68 16.9333333,5.09333333 16.82,6.64 L19.9266667,6.64 Z M27,7.70666667 L24.5333333,7.70666667 L24.5333333,14.3466667 C26.1533333,14.2266667 27.6266667,13.5733333 28.7733333,12.56 C27.72,11.16 27.1066667,9.48 27,7.70666667 Z M28.0733333,6.64 L31.18,6.64 C31.0666667,5.09333333 30.4666667,3.68666667 29.5266667,2.56666667 C28.6733333,3.76 28.1666667,5.16 28.0733333,6.64 Z M28.0733333,7.70666667 C28.1733333,9.18666667 28.6733333,10.5933333 29.5266667,11.7866667 C30.4666667,10.6666667 31.0666667,9.25333333 31.18,7.70666667 C31.18,7.70666667 28.0733333,7.70666667 28.0733333,7.70666667 L28.0733333,7.70666667 Z M23.4666667,7.70666667 L21,7.70666667 C20.9,9.48 20.28,11.1533333 19.2266667,12.56 C20.3733333,13.5733333 21.8466667,14.2266667 23.4666667,14.3466667 L23.4666667,7.70666667 Z M24.5333333,41.36 L24.5333333,48 C26.1533333,47.88 27.6266667,47.2266667 28.7733333,46.2133333 C27.72,44.8066667 27.1066667,43.1333333 27,41.36 L24.5333333,41.36 L24.5333333,41.36 Z M19.2266667,46.2133333 C20.3733333,47.2266667 21.8466667,47.88 23.4666667,48 L23.4666667,41.36 L21,41.36 C20.8933333,43.1266667 20.28,44.8066667 19.2266667,46.2133333 L19.2266667,46.2133333 Z M28.0733333,40.2933333 L31.18,40.2933333 C31.0666667,38.7466667 30.4666667,37.3333333 29.5266667,36.2133333 C28.6733333,37.4066667 28.1666667,38.8066667 28.0733333,40.2933333 Z M28.0733333,41.36 C28.1733333,42.84 28.6733333,44.2466667 29.5266667,45.44 C30.4666667,44.32 31.0666667,42.9066667 31.18,41.36 L28.0733333,41.36 Z M21,40.2933333 L23.4666667,40.2933333 L23.4666667,33.6533333 C21.8466667,33.7733333 20.3733333,34.4266667 19.2266667,35.44 C20.28,36.84 20.8933333,38.52 21,40.2933333 L21,40.2933333 Z M19.9266667,41.36 L16.82,41.36 C16.9333333,42.9066667 17.5333333,44.32 18.4733333,45.44 C19.3266667,44.24 19.8333333,42.84 19.9266667,41.36 Z M19.9266667,40.2933333 C19.8266667,38.8133333 19.3266667,37.4066667 18.4733333,36.2133333 C17.5333333,37.3333333 16.9333333,38.7466667 16.82,40.2933333 L19.9266667,40.2933333 Z M24.5333333,40.2933333 L27,40.2933333 C27.1,38.52 27.72,36.8466667 28.7733333,35.44 C27.6266667,34.4266667 26.1533333,33.7733333 24.5333333,33.6533333 L24.5333333,40.2933333 Z M44.9266667,32.0066667 L38.8466667,38.0866667 L43.58,42.82 L42.8266667,43.5733333 L24,24.7533333 L17.92,30.8333333 L17.92,30.8333333 L5.16666667,43.58 L4.41333333,42.8266667 L13.9066667,33.3333333 C10.2333333,34.5866667 5.99333333,33.7533333 3.07333333,30.8333333 C-1.02,26.74 -1.02,20.08 3.07333333,15.9933333 L9.15333333,9.91333333 L4.42,5.18 L5.17333333,4.42666667 L24,23.2466667 L42.8333333,4.42 L43.5866667,5.17333333 L34.0933333,14.6666667 C37.7666667,13.4133333 42.0066667,14.2466667 44.9266667,17.1666667 C49.02,21.26 49.02,27.9133333 44.9266667,32.0066667 Z M13.2866667,14.0466667 L6.60666667,20.7333333 L13.18,27.3066667 L19.8666667,20.62 L13.2866667,14.0466667 Z M7.12666667,22.1933333 C5.92,23.46 5.94,25.4733333 7.18666667,26.72 C8.43333333,27.9666667 10.4466667,27.98 11.7133333,26.78 L7.12666667,22.1933333 L7.12666667,22.1933333 Z M23.2466667,24 L20.3333333,21.0933333 L13.18,28.2466667 L12.1866667,27.2533333 C10.6533333,28.72 8.22,28.7 6.71333333,27.1933333 C5.20666667,25.6866667 5.18666667,23.2533333 6.65333333,21.72 L5.66,20.7333333 L12.82,13.58 L9.9,10.6666667 L3.82,16.7466667 C0.14,20.42 0.14,26.4066667 3.82,30.08 C7.5,33.7533333 13.48,33.7533333 17.1533333,30.08 L23.2466667,24 L23.2466667,24 Z M34.7133333,33.9533333 L41.3933333,27.2666667 L34.82,20.6933333 L28.1333333,27.38 L34.7133333,33.9533333 L34.7133333,33.9533333 Z M40.8733333,25.8066667 C42.08,24.54 42.06,22.5266667 40.8133333,21.28 C39.5666667,20.0333333 37.5533333,20.02 36.2866667,21.22 L40.8733333,25.8066667 L40.8733333,25.8066667 Z M24.7533333,24 L27.6666667,26.9066667 L34.8266667,19.7533333 L35.82,20.7466667 C37.3533333,19.28 39.7866667,19.3 41.2933333,20.8066667 C42.8,22.3133333 42.82,24.7466667 41.3533333,26.28 L42.3466667,27.2733333 L35.18,34.4266667 L38.0933333,37.34 L44.1733333,31.26 C47.8533333,27.5866667 47.8533333,21.6 44.1733333,17.9266667 C40.4933333,14.2533333 34.5133333,14.2533333 30.8333333,17.9266667 L24.7533333,24 L24.7533333,24 Z" id="形状" fill="url(#linearGradient-3)" mask="url(#mask-2)"></path>
        </g>
    </g>
</svg>