<?xml version="1.0" encoding="UTF-8"?>
<svg width="48px" height="48px" viewBox="0 0 48 48" version="1.1" xmlns="http://www.w3.org/2000/svg" xmlns:xlink="http://www.w3.org/1999/xlink">
    <title>WPO</title>
    <defs>
        <rect id="path-1" x="0" y="0" width="48" height="48"></rect>
        <linearGradient x1="0%" y1="50%" x2="100%" y2="50%" id="linearGradient-3">
            <stop stop-color="#A8B2DE" offset="0%"></stop>
            <stop stop-color="#7D84C2" offset="100%"></stop>
        </linearGradient>
    </defs>
    <g id="WPO" stroke="none" stroke-width="1" fill="none" fill-rule="evenodd">
        <g id="WPO_small">
            <mask id="mask-2" fill="white">
                <use xlink:href="#path-1"></use>
            </mask>
            <g id="矩形"></g>
            <path d="M42.6666667,24 L27.94,38.7266667 C27.68,38.48 27.3933333,38.26 27.0933333,38.0666667 L41.16,24 L27.0933333,9.93333333 C27.3933333,9.74 27.68,9.52 27.94,9.27333333 L42.6666667,24 L42.6666667,24 Z M28.58,39.44 C28.7333333,39.64 28.8666667,39.8466667 28.9933333,40.06 C30.1933333,39.9466667 31.4266667,40.1266667 32.5333333,40.6066667 C33.4266667,40.9933333 34.4,41.1866667 35.3733333,41.1866667 C36.3466667,41.1866667 37.3266667,40.9933333 38.2133333,40.6066667 C38.3666667,40.54 38.54,40.4733333 38.7133333,40.4133333 L38.1933333,39.8933333 C38.1066667,39.9266667 38.0266667,39.96 37.9466667,39.9933333 C36.3333333,40.7 34.4066667,40.7 32.7933333,39.9933333 C31.4866667,39.4266667 30,39.24 28.58,39.44 L28.58,39.44 Z M27.9866667,25.9733333 C27.9866667,25.9666667 27.9866667,25.6333333 27.9133333,25.14 L24.7,28.3533333 C24.8933333,28.4666667 25.0533333,28.6333333 25.1733333,28.8266667 L27.9866667,26.0133333 L27.9866667,25.9733333 L27.9866667,25.9733333 Z M32.7933333,36.5933333 C32.36,36.4066667 31.9133333,36.26 31.4533333,36.1533333 L30.8866667,36.72 C31.4533333,36.8133333 32.0066667,36.9733333 32.5266667,37.2 C33.6266667,37.68 34.8533333,37.86 36.0533333,37.7466667 L35.42,37.1133333 C34.52,37.1266667 33.62,36.9533333 32.7933333,36.5933333 L32.7933333,36.5933333 Z M36.9666667,26.32 L37.6333333,26.32 L37.6333333,24.7733333 L36.9666667,24.7733333 L36.9666667,26.32 Z M23.8,30.2066667 C23.9333333,30.2466667 24.0733333,30.2466667 24.2,30.2066667 L25.76,31.7666667 L26.2333333,31.2933333 L24.6733333,29.7333333 C24.7466667,29.4933333 24.6866667,29.22 24.5,29.0333333 C24.2266667,28.76 23.78,28.76 23.5,29.0333333 C23.3133333,29.22 23.2533333,29.4933333 23.3266667,29.7333333 L21.7666667,31.2933333 L22.24,31.7666667 L23.8,30.2066667 Z M9.8,39.9 L9.28,40.42 C9.44666667,40.48 9.61333333,40.5466667 9.78,40.6133333 C11.5733333,41.3866667 13.7,41.3866667 15.4666667,40.6133333 C16.5666667,40.1333333 17.8,39.9466667 19.0066667,40.0666667 C19.1333333,39.8533333 19.2666667,39.64 19.42,39.4466667 C18,39.2466667 16.5133333,39.4333333 15.2066667,40.0066667 C13.6066667,40.7066667 11.68,40.7066667 10.0533333,40.0066667 C9.96666667,39.96 9.88,39.9266667 9.8,39.9 L9.8,39.9 Z M34.18,14.5733333 L44.2466667,4.51333333 L43.4933333,3.76 L33.4266667,13.82 L34.18,14.5733333 L34.18,14.5733333 Z M10.3666667,26.32 L11.0333333,26.32 L11.0333333,24.7733333 L10.3666667,24.7733333 L10.3666667,26.32 Z M19.42,8.56 C19.2666667,8.36 19.1333333,8.15333333 19.0066667,7.94 C17.8066667,8.05333333 16.5733333,7.87333333 15.4666667,7.39333333 C14.5733333,7.00666667 13.6,6.81333333 12.6266667,6.81333333 C11.6533333,6.81333333 10.6733333,7.00666667 9.78666667,7.39333333 C9.63333333,7.46 9.46,7.52666667 9.28666667,7.58666667 L9.80666667,8.10666667 C9.89333333,8.07333333 9.97333333,8.04 10.0533333,8.00666667 C11.6666667,7.3 13.5933333,7.3 15.2066667,8.00666667 C16.5133333,8.57333333 18,8.76 19.42,8.56 Z M20.9066667,38.0666667 L6.84,24 L20.9066667,9.93333333 C20.6066667,9.74 20.32,9.52 20.06,9.27333333 L7.52,21.8066667 L5.33333333,24 L20.06,38.7266667 C20.32,38.48 20.6066667,38.26 20.9066667,38.0666667 Z M15.2066667,11.4066667 C15.64,11.5933333 16.0866667,11.74 16.5466667,11.8466667 L17.1133333,11.28 C16.5466667,11.1866667 15.9933333,11.0266667 15.4733333,10.8 C14.3733333,10.32 13.1466667,10.14 11.9466667,10.2533333 L12.58,10.8866667 C13.48,10.8733333 14.38,11.0466667 15.2066667,11.4066667 L15.2066667,11.4066667 Z M37.6333333,21.68 L36.9666667,21.68 L36.9666667,23.2266667 L37.6333333,23.2266667 L37.6333333,21.68 Z M24,16.6666667 C23.8266667,16.6666667 23.6533333,16.68 23.4933333,16.6933333 C22.8866667,17.42 22.0533333,18.7733333 21.7066667,20.9866667 C22.3066667,20.62 23.06,20.3933333 24,20.3933333 C24.94,20.3933333 25.6933333,20.62 26.2933333,20.9866667 C25.9466667,18.7733333 25.1133333,17.42 24.5066667,16.6933333 C24.3466667,16.6733333 24.1733333,16.6666667 24,16.6666667 L24,16.6666667 Z M17.1133333,36.72 L16.5466667,36.1533333 C16.0866667,36.26 15.6333333,36.4 15.2066667,36.5933333 C14.3866667,36.9533333 13.48,37.1266667 12.58,37.12 L11.9466667,37.7533333 C12.1733333,37.7733333 12.4,37.7866667 12.6333333,37.7866667 C13.6066667,37.7866667 14.5866667,37.5933333 15.4733333,37.2066667 C15.9933333,36.9733333 16.5466667,36.8133333 17.1133333,36.72 Z M11.0333333,21.68 L10.3666667,21.68 L10.3666667,23.2266667 L11.0333333,23.2266667 L11.0333333,21.68 Z M19.8066667,20.3866667 L19.3466667,20.3866667 C18.6066667,20.3866667 18,21.08 18,22.1933333 L18,24.22 C18,25.3333333 18.6,25.98 19.3466667,25.98 C19.3466667,25.98 19.3466667,23.2266667 20.9533333,21.5866667 C21.18,19.4066667 21.8333333,17.9133333 22.4666667,16.9466667 C21.0466667,17.5133333 20.2466667,18.88 19.8066667,20.3866667 L19.8066667,20.3866667 Z M28.6533333,25.9733333 C29.3933333,25.9733333 30,25.3333333 30,24.2133333 L30,22.1866667 C30,21.08 29.4,20.38 28.6533333,20.38 L28.1933333,20.38 C27.7533333,18.8733333 26.9533333,17.5066667 25.5333333,16.9333333 C26.1666667,17.9 26.82,19.3933333 27.0466667,21.5733333 C28.6533333,23.2266667 28.6533333,25.9733333 28.6533333,25.9733333 L28.6533333,25.9733333 Z M23.2933333,28.36 L20.08,25.1466667 C20.0066667,25.64 20.0066667,25.9733333 20.0066667,25.98 L20.0066667,26.02 L22.82,28.8333333 C22.94,28.6333333 23.1,28.4733333 23.2933333,28.36 Z M13.82,33.4266667 L3.75333333,43.4866667 L4.50666667,44.24 L14.5666667,34.18 L13.82,33.4266667 L13.82,33.4266667 Z M37.9466667,46.8066667 C36.3333333,47.5133333 34.4066667,47.5133333 32.7933333,46.8066667 C31.52,46.2466667 30.08,46.06 28.6933333,46.2333333 C28.4933333,46.52 28.26,46.7866667 28.0133333,47.0333333 C29.5066667,46.68 31.1266667,46.8066667 32.5266667,47.42 C33.42,47.8066667 34.3933333,48 35.3666667,48 C36.34,48 37.32,47.8066667 38.2066667,47.42 C38.94,47.1 39.9066667,46.84 40.9533333,46.7733333 L41.6333333,46.0933333 C40.2333333,46.0666667 38.9066667,46.3866667 37.9466667,46.8066667 L37.9466667,46.8066667 Z M29.0866667,42.9133333 C29.0866667,45.72 26.8066667,48 24,48 C21.1933333,48 18.9133333,45.72 18.9133333,42.9133333 C18.9133333,40.1066667 21.1933333,37.8266667 24,37.8266667 C26.8066667,37.8266667 29.0866667,40.1066667 29.0866667,42.9133333 Z M24.3866667,42.88 C24.5666667,43.12 24.9866667,43.6133333 25.66,44.1066667 C25.9533333,43.68 27.1866667,41.6866667 26.5466667,39.3066667 C26.0133333,38.9266667 25.3866667,38.6666667 24.7133333,38.5533333 C25.2133333,40.6733333 24.6266667,42.3333333 24.3866667,42.88 L24.3866667,42.88 Z M19.8333333,41.44 C21.6333333,40.12 23.66,40.1733333 24.24,40.22 C24.24,39.7 24.18,39.12 24.0133333,38.5 L24,38.5 C22.08,38.5 20.4466667,39.7266667 19.8333333,41.44 L19.8333333,41.44 Z M19.8666667,44.4733333 C21.4533333,42.98 23.1866667,42.66 23.78,42.5933333 C23.8933333,42.32 24.12,41.7066667 24.2066667,40.88 C23.6933333,40.84 21.3466667,40.7733333 19.6,42.5133333 C19.5866667,42.6466667 19.58,42.78 19.58,42.9133333 C19.58,43.46 19.68,43.9866667 19.8666667,44.4733333 L19.8666667,44.4733333 Z M24.8066667,47.26 C22.7666667,46.36 21.7933333,44.58 21.5466667,44.0533333 C21.0933333,44.3133333 20.62,44.6533333 20.1666667,45.1066667 C20.9333333,46.44 22.36,47.3333333 24,47.3333333 C25.64,47.3333333 24.54,47.3066667 24.8066667,47.26 L24.8066667,47.26 Z M27.42,45.7133333 C25.3333333,45.0866667 24.1933333,43.7466667 23.84,43.2666667 C23.5466667,43.3 22.9066667,43.4133333 22.14,43.7533333 C22.3666667,44.22 23.4733333,46.2866667 25.8533333,46.9266667 C26.46,46.64 27,46.2266667 27.42,45.7133333 L27.42,45.7133333 Z M27.82,45.1333333 C28.2,44.48 28.42,43.72 28.42,42.9133333 C28.42,42.1066667 28.02,40.82 27.36,40.0466667 C27.6,42.26 26.54,43.9933333 26.2133333,44.4666667 C26.6666667,44.7333333 27.2,44.9666667 27.82,45.1333333 L27.82,45.1333333 Z M9.78666667,44.0133333 C11.58,44.7866667 13.7066667,44.7866667 15.4733333,44.0133333 C16.3533333,43.6333333 17.3133333,43.44 18.2733333,43.4333333 C18.26,43.26 18.2466667,43.0933333 18.2466667,42.9133333 C18.2466667,42.7333333 18.2466667,42.8133333 18.2533333,42.7666667 C17.2066667,42.7666667 16.16,42.9866667 15.2066667,43.4 C13.6066667,44.1 11.68,44.1 10.0533333,43.4 C9.05333333,42.9666667 8.02666667,42.74 6.98,42.72 L6.3,43.4 C7.49333333,43.32 8.65333333,43.5266667 9.78666667,44.0133333 L9.78666667,44.0133333 Z M38.2,8.1 L38.72,7.58 C38.5533333,7.52 38.3866667,7.45333333 38.22,7.38666667 C36.4266667,6.61333333 34.3,6.61333333 32.5333333,7.38666667 C31.4333333,7.86666667 30.2,8.05333333 28.9933333,7.93333333 C28.8666667,8.14666667 28.7333333,8.36 28.58,8.55333333 C30,8.75333333 31.4866667,8.56666667 32.7933333,7.99333333 C34.3933333,7.29333333 36.32,7.29333333 37.9466667,7.99333333 C38.0333333,8.04 38.12,8.07333333 38.2,8.1 L38.2,8.1 Z M36.7666667,17.1533333 L37.8333333,18.22 L37.8333333,16.1333333 L43.32,16.1333333 L43.32,31.8666667 L37.8333333,31.8666667 L37.8333333,29.78 L36.7666667,30.8466667 L36.7666667,32.9333333 L44.3866667,32.9333333 L44.3866667,15.0666667 L36.7666667,15.0666667 L36.7666667,17.1533333 Z M37.9466667,43.4 C36.3333333,44.1066667 34.4066667,44.1066667 32.7933333,43.4 C31.84,42.98 30.7933333,42.7733333 29.7466667,42.7666667 C29.7466667,42.8133333 29.7533333,42.8666667 29.7533333,42.9133333 C29.7533333,43.0866667 29.7466667,43.26 29.7266667,43.4333333 C30.6866667,43.4333333 31.6466667,43.6333333 32.5266667,44.0133333 C33.42,44.4 34.3933333,44.5933333 35.3666667,44.5933333 C36.34,44.5933333 37.32,44.4 38.2066667,44.0133333 C39.1,43.6266667 40.3333333,43.3266667 41.6466667,43.3533333 L40.9933333,42.7 C39.8333333,42.7666667 38.76,43.0466667 37.9466667,43.4 L37.9466667,43.4 Z M45.0533333,19.86 L45.0533333,20.9266667 L46.9333333,20.9266667 L46.9333333,27.06 L45.0533333,27.06 L45.0533333,28.1266667 L48,28.1266667 L48,19.86 L45.0533333,19.86 Z M33.4266667,34.18 L43.4866667,44.24 L44.24,43.4866667 L34.18,33.4266667 L33.4266667,34.18 L33.4266667,34.18 Z M15.2066667,46.8066667 C13.5933333,47.5133333 11.6666667,47.5133333 10.0533333,46.8066667 C8.86,46.3 7.64666667,46.08 6.40666667,46.1333333 L7.07333333,46.8 C7.99333333,46.84 8.90666667,47.04 9.79333333,47.42 C11.5733333,48.2 13.7,48.2 15.48,47.42 C16.8866667,46.8066667 18.5,46.68 19.9933333,47.0333333 C19.74,46.7866667 19.5133333,46.52 19.3133333,46.2333333 C17.92,46.06 16.48,46.2466667 15.2066667,46.8066667 Z M32.7933333,1.19333333 C34.4066667,0.486666667 36.3333333,0.486666667 37.9466667,1.19333333 C39.14,1.7 40.3533333,1.92 41.5933333,1.86666667 L40.9266667,1.2 C40.0066667,1.16 39.0933333,0.96 38.2066667,0.58 C36.4266667,-0.2 34.3,-0.2 32.52,0.58 C31.1133333,1.19333333 29.5,1.32 28.0066667,0.966666667 C28.26,1.21333333 28.4866667,1.48 28.6866667,1.76666667 C30.0866667,1.94 31.52,1.75333333 32.7933333,1.19333333 L32.7933333,1.19333333 Z M18.9133333,5.08666667 C18.9133333,2.28 21.1933333,0 24,0 C26.8066667,0 29.0866667,2.28 29.0866667,5.08666667 C29.0866667,7.89333333 26.8066667,10.1733333 24,10.1733333 C21.1933333,10.1733333 18.9133333,7.89333333 18.9133333,5.08666667 Z M23.6133333,5.12 C23.4333333,4.88 23.0133333,4.38666667 22.34,3.89333333 C22.0466667,4.32 20.8133333,6.31333333 21.4533333,8.69333333 C21.9866667,9.07333333 22.6133333,9.33333333 23.2866667,9.44666667 C22.7866667,7.32666667 23.38,5.66666667 23.6133333,5.12 L23.6133333,5.12 Z M28.1666667,6.56 C26.3666667,7.88 24.34,7.82666667 23.76,7.78 C23.76,8.3 23.82,8.88 23.9866667,9.5000269 L24,9.5000269 C25.92,9.50666667 27.56,8.27333333 28.1666667,6.56 L28.1666667,6.56 Z M28.1333333,3.52666667 C26.5466667,5.02 24.8133333,5.33333333 24.22,5.4 C24.1066667,5.67333333 23.88,6.28666667 23.7933333,7.11333333 C24.3066667,7.15333333 26.6533333,7.22 28.4,5.48 C28.4133333,5.34666667 28.42,5.21333333 28.42,5.08 C28.42,4.54 28.32,4.01333333 28.1333333,3.52666667 L28.1333333,3.52666667 Z M23.2,0.74 C25.24,1.64 26.2133333,3.42 26.46,3.94666667 C26.9133333,3.68666667 27.3866667,3.34666667 27.84,2.89333333 C27.0666667,1.56 25.64,0.666666667 24,0.666666667 C22.36,0.666666667 23.46,0.693333333 23.2,0.74 L23.2,0.74 Z M20.58,2.28666667 C22.6666667,2.91333333 23.8066667,4.25333333 24.16,4.73333333 C24.4533333,4.7 25.0933333,4.58666667 25.86,4.24666667 C25.6333333,3.78 24.5266667,1.71333333 22.1466667,1.07333333 C21.54,1.36 21.0066667,1.77333333 20.58,2.28666667 Z M20.18,2.86666667 C19.8,3.52 19.58,4.28 19.58,5.08666667 C19.58,5.89333333 19.98,7.18 20.64,7.95333333 C20.4,5.73333333 21.4533333,4.00666667 21.7866667,3.53333333 C21.3333333,3.26666667 20.8,3.03333333 20.18,2.86666667 L20.18,2.86666667 Z M38.2133333,3.98666667 C36.42,3.21333333 34.2933333,3.21333333 32.5266667,3.98666667 C31.6466667,4.36666667 30.6866667,4.56 29.7266667,4.56666667 C29.74,4.74 29.7533333,4.90666667 29.7533333,5.08666667 C29.7533333,5.26666667 29.7533333,5.18666667 29.7466667,5.23333333 C30.7933333,5.23333333 31.84,5.01333333 32.7933333,4.6 C34.3933333,3.9 36.32,3.9 37.9466667,4.6 C38.9466667,5.03333333 39.9733333,5.26 41.02,5.28 L41.7,4.6 C40.5133333,4.68 39.3466667,4.47333333 38.2133333,3.98666667 Z M30.8866667,11.28 L31.4533333,11.8466667 C31.9133333,11.74 32.3666667,11.6 32.7933333,11.4066667 C33.6133333,11.0466667 34.52,10.8733333 35.42,10.88 L36.0533333,10.2466667 C35.8266667,10.2266667 35.6,10.2133333 35.3666667,10.2133333 C34.3933333,10.2133333 33.4133333,10.4066667 32.5266667,10.7933333 C32.0066667,11.0266667 31.4533333,11.1866667 30.8866667,11.28 L30.8866667,11.28 Z M11.2333333,30.8466667 L10.1666667,29.78 L10.1666667,31.8666667 L4.68,31.8666667 L4.68,16.1333333 L10.1666667,16.1333333 L10.1666667,18.22 L11.2333333,17.1533333 L11.2333333,15.0666667 L3.61333333,15.0666667 L3.61333333,32.9333333 L11.2333333,32.9333333 L11.2333333,30.8466667 L11.2333333,30.8466667 Z M14.5733333,13.82 L4.51333333,3.75333333 L3.75333333,4.51333333 L13.8133333,14.5733333 L14.5733333,13.82 L14.5733333,13.82 Z M10.0533333,1.19333333 C11.6666667,0.486666667 13.5933333,0.486666667 15.2066667,1.19333333 C16.48,1.75333333 17.92,1.94 19.3066667,1.76666667 C19.5066667,1.48 19.74,1.21333333 19.9866667,0.966666667 C18.4933333,1.32 16.8733333,1.19333333 15.4733333,0.58 C14.58,0.193333333 13.6066667,0 12.6333333,0 C11.66,0 10.6733333,0.2 9.78666667,0.586666667 C9.05333333,0.906666667 8.08666667,1.16666667 7.04,1.23333333 L6.36,1.91333333 C7.76666667,1.93333333 9.09333333,1.61333333 10.0533333,1.19333333 Z M0,28.14 L2.94666667,28.14 L2.94666667,27.0733333 L1.06666667,27.0733333 L1.06666667,20.94 L2.94666667,20.94 L2.94666667,19.8733333 L0,19.8733333 L0,28.14 Z M10.0533333,4.6 C11.6666667,3.89333333 13.5933333,3.89333333 15.2066667,4.6 C16.16,5.02 17.2066667,5.22666667 18.2533333,5.23333333 C18.2533333,5.18666667 18.2466667,5.13333333 18.2466667,5.08666667 C18.2466667,4.91333333 18.2533333,4.74 18.2733333,4.56666667 C17.3133333,4.56666667 16.3533333,4.36666667 15.4733333,3.98666667 C14.58,3.6 13.6066667,3.40666667 12.6333333,3.40666667 C11.66,3.40666667 10.68,3.6 9.79333333,3.98666667 C8.9,4.37333333 7.66666667,4.67333333 6.35333333,4.64666667 L7.00666667,5.3 C8.16666667,5.23333333 9.24,4.95333333 10.0533333,4.6 Z" id="形状" fill="url(#linearGradient-3)" mask="url(#mask-2)"></path>
        </g>
    </g>
</svg>